<svg version="1.2" xmlns="http://www.w3.org/2000/svg" viewBox="0 0 1189 410" width="1189" height="410">
	<title>primelogo</title>
	<defs>
		<linearGradient id="g1" x2="1" gradientUnits="userSpaceOnUse" gradientTransform="matrix(0,604.516,-1058.927,0,372.128,90.397)">
			<stop offset="0" stop-color="#ffffff"/>
			<stop offset="1" stop-color="#000000"/>
		</linearGradient>
		<linearGradient id="g2" x2="1" gradientUnits="userSpaceOnUse" gradientTransform="matrix(0,-374.403,668.887,0,372.128,350.355)">
			<stop offset=".03" stop-color="#891523"/>
			<stop offset=".52" stop-color="#e13d50"/>
			<stop offset="1" stop-color="#891523"/>
		</linearGradient>
		<linearGradient id="g3" x2="1" gradientUnits="userSpaceOnUse" gradientTransform="matrix(0,-61.004,184.23,0,368.505,327.212)">
			<stop offset="0" stop-color="#e13d50"/>
			<stop offset="1" stop-color="#891523"/>
		</linearGradient>
		<radialGradient id="g4" cx="0" cy="0" r="1" gradientUnits="userSpaceOnUse" gradientTransform="matrix(157.651,0,0,157.651,377.698,36.231)">
			<stop offset="0" stop-color="#ac1b2c"/>
			<stop offset="1" stop-color="#31080c"/>
		</radialGradient>
	</defs>
	<style>
		.s0 { fill: url(#g1) } 
		.s1 { fill: #545455 } 
		.s2 { fill: url(#g2) } 
		.s3 { fill: url(#g3) } 
		.s4 { fill: #e24658 } 
		.s5 { fill: #ed8c98 } 
		.s6 { fill: url(#g4) } 
		.s7 { fill: #ffffff } 
		.s8 { paint-order:stroke fill markers;stroke: #000000;stroke-width: 26;stroke-linejoin: round;;fill: #ffffff } 
	</style>
	<g id="logo-logo">
		<g>
			<g>
			</g>
			<g>
			</g>
			<g>
			</g>
			<g>
			</g>
			<g>
			</g>
			<g>
			</g>
			<g>
				<path class="s0" d="m538.9 400.9h-0.6q-0.8-0.2-1.6-0.2c-0.5 0-0.9 0-1.4 0.2l-0.6 0.1h-17l-0.7-0.2c0 0-0.4 0-0.7-0.1-3.8-0.4-7.7-0.5-11.5-0.5h-1.2c-2.5-0.1-5.1-0.3-7.6-0.6-1.4-0.1-2.7-0.5-3.9-1.1-2.3-1.3-4.9-2.5-7.2-3.6-2.7-1.3-5.8-2.7-8.8-4.4q-1.5-0.8-3-1.6c-2-1-4-2.1-6-3.4l-0.3-0.1c-0.4-0.3-1-0.6-1.6-1.1q-0.1 0-0.4 0c-21.9-0.2-45.8-0.4-70.9-0.6-5.1 0-10.2-0.1-15.2-0.2q-3.1 0-6.3-0.1h-0.9c-2 0-4.1 0.1-6.2 0.1-5 0.1-10.2 0.1-15.2 0.2-25.2 0.2-49 0.4-71 0.6q-0.2 0-0.4 0c-0.5 0.5-1.1 0.8-1.5 1l-0.3 0.2c-2 1.3-4 2.4-5.9 3.4h-0.1c-1 0.5-2 1.1-3 1.6-2.9 1.6-5.8 3-8.7 4.4l-0.3 0.1c-2.3 1.1-4.8 2.3-7.1 3.5-1 0.6-2.4 1-3.8 1.1-2.5 0.3-5.1 0.5-7.7 0.5h-1c-3.9 0.2-7.8 0.2-11.6 0.6-0.2 0-0.4 0-0.6 0.1l-0.7 0.2h-17l-0.6-0.1q-0.6-0.2-1.4-0.2-0.7 0-1.7 0.2h-0.5-9.9l-0.6-0.2c-5.7-0.3-12.6-0.8-19.1-0.8h-0.7q-2.1 0-4.2 0c-1.4 0-2.9 0-4.3 0q-1.7 0-3.3 0c-4.1-0.2-8.2-0.3-11.8-0.3-4.5 0-9.2-0.1-13.8-0.4q-2.1-0.1-4.2-0.2h-0.3c-4.1-0.1-8.3-0.4-12.5-0.9-5.4-0.7-9.6-2.4-12.9-5.4-4.6-4.2-8.1-9-11.3-13.5-3.1-4.4-5.2-9.1-7-13.5-1.3-3.1-2.4-6.4-2.8-10.1-0.4-4.2 0.1-7.5 1.7-10.5 0.6-1.3 1.2-2.4 1.8-3.6l0.8-1.6q1.4-2.6 2.7-5.2c0.5-1 1.1-2.2 1.7-3.5-1.1-2.8-2-5.3-2.9-7.9q-1-3.1-1.9-6.2v-0.1c-0.6-1.8-1.1-3.8-1.7-5.6-1.4-4.3-2.3-8.4-2.7-12.7v-0.2c-0.1-0.8-0.2-1.9-0.1-3 0.2-2.8 1-5.8 2.2-8.9 2.5-6.1 5.8-14.1 9.5-22.1 0.2-0.4 0.2-0.6 0.2-0.7-0.2-1.6-0.1-3.1 0.1-4.5 0.4-2.4 0.7-4.4 1-6.1 0.3-1.2 0.5-2.3 0.8-3.3 0.4-1.7 0.8-3.5 0.9-5.2 0.3-3 0.9-5.9 1.9-8.5 0.8-2.2 1.4-4.7 2-7.1v-0.3c1.2-4.5 2.9-8.8 4.5-12.9l0.6-1.4c1.6-4.1 3.8-7.9 6.5-11.3 2.4-3 5.4-6.5 9.7-8.9 4.1-2.4 8.2-4.2 12.4-5.7 1.9-0.7 3.7-1.3 5.4-2.1 3.2-1.4 6.4-2.9 9.5-4.4l1.2-0.7c0.6-0.2 1.1-0.5 1.6-0.7q1-0.5 2-1c0 0 0.6-0.3 0.9-0.4-1.8-1.6-3.5-3.3-5.1-4.8l-0.6-0.5c-1-1-2-1.9-3-2.9-0.7-0.6-1.4-1.2-2.1-1.9q-2.2-2.1-4.4-4.2l-0.8-0.7c-4.5-4.3-9.3-8.8-14.2-12.8-1.2-0.9-2.3-1.8-3.4-2.8l-0.3-0.2c-1-0.9-2.1-1.9-3.2-2.7-1.7-1.3-3.3-2.7-5-4.2-4.3-3.7-9.4-8-15.4-10.8-2.2-1-4.8-2.3-7.4-3.3-0.6-0.1-1.1-0.4-1.6-0.6-1.5-0.5-3.1-1.2-4.6-1.4-2-0.4-4.1-0.8-5.9-1.1l-3-0.5c-2.6-0.4-5.2-0.9-7.8-1.8-4.5-1.5-8.6-3.7-13.3-6.4-6-3.5-11.6-7.8-16.7-13-3.3-3.4-6.3-7.2-9.5-12.1-5.3-7.9-8.7-16.7-10-26.1-0.3-1.6-0.4-3.2-0.5-4.8v-0.4c0-1.1-0.1-2.1-0.2-3-0.4-3.7 0.1-7.3 0.7-10.6 0.4-2.3 1.1-4.4 1.8-6.4v-0.1c0.3-0.6 0.5-1.3 0.7-1.9 0.2-0.6 0.4-1 0.6-1.5 0.3-0.8 0.6-1.6 0.7-2.3l0.4-3.2 2.8-1.5 0.2-0.2c1.2-0.8 2.6-1.2 4.1-1.2q1.2 0 2.4 0.4c1.3 0.4 2.7 1.1 3.8 2l0.6 0.5 0.5 0.5q1.2 0.9 2.3 1.9 1.8 1.5 3.6 3.1l0.1 0.1c2.1 1.9 4.5 4 6.8 5.9 5 4.1 9.4 8 13.3 11.8q1.4 1.3 2.8 2.6c2.5 2.5 5 5.1 7.8 7.2 1.9 1.3 3.6 2.7 5.6 4.2l0.4 0.3c1.2 1 2.5 1.9 3.7 2.8 1.6-0.5 2.9-1.1 4.2-1.9 0.8-0.5 0.9-0.7 1-0.7 0.5-1.5 0.4-2.4 0.3-3-0.6-2.1-1.1-3.6-2.2-4.7-0.5-0.5-0.9-1.1-1.3-1.6-0.1-0.1-0.2-0.2-0.3-0.4-1.1-1.3-2.3-2.6-3.6-3.7-3.7-3.1-7-5.8-10.5-8.2-1.6-1-3.2-2.2-5-3.6-1.1-0.9-2.3-1.8-3.4-2.7-1.2-0.9-2.4-1.8-3.5-2.7-0.8-0.6-1.7-1.2-2.4-1.7-1.2-0.8-2.2-1.6-3.2-2.4-3.8-2.9-7.3-5.8-10.6-8.5-1.9-1.5-3.4-3.4-4.7-5.6-1.8-3.1-1.5-6.6 0.8-9.4q0.8-1.1 1.9-1.8c3-2.3 6-3.9 9.3-4.9l0.6-0.2c0.3-0.1 0.7-0.2 1-0.3 2.3-0.8 4.8-1.6 8.1-2.2 0.7-0.2 1.3-0.2 1.8-0.2q0.1 0 0.3 0l0.8-0.3h3.2l0.7 0.2c0 0 0.3 0 0.4 0 4.2 0.3 8.3 0.8 12.5 1.8 5.7 1.5 10.2 3.1 14.2 5 5.8 2.8 10.9 6.4 15.1 9.5 0.8 0.7 1.7 1.3 2.5 1.9l0.2 0.2c4 2.9 8.2 6 12 9.5 3.5 3.2 7.4 7.2 10.3 12.3 2.3 3.9 4 7.8 5.2 11.7 1.5 4.4 3.1 9.7 4.2 15.2 0.3 1.9 1 4.6 2.5 6.8 3.2 4.3 6.7 8.2 10.6 11.5 7.6 6.4 13.7 11.5 19.4 16.1 5.8 4.6 11.4 9.3 16.7 13.9q2.1 1.8 4.5 3.6l0.2 0.2c1.2 1 2.4 2 3.7 3.1l0.4 0.4c0.7 0.5 1.3 1.1 2 1.7q2.9-4.2 6-8.4c2.8-3.8 5.9-7.9 9.9-11.6 0.7-0.7 1.6-1.5 2.3-2.3l0.2-0.1c0.5-0.6 1-1.2 1.6-1.7 4.6-4.5 9-8.7 14.6-12.2 4.9-3 10.4-5.3 16.7-7 2.5-0.6 5-1.1 7.4-1.5h0.1c1.7-0.3 3.5-0.6 5.2-1 4.6-1.1 9.2-1.7 13.6-2.2 5.8-0.7 11.6-0.8 17.2-1 1.1 0 2.2 0 3.4-0.1q5.7-0.1 11.4-0.2c5.8-0.2 11.7-0.2 16.9-0.2h4.6c5.6 0 11.7 0 17.9 0.1 4.1 0.1 8.5 0.1 14 0.1 6.4 0 12.7 0 19.7-0.1 6.4 0 13.2-0.1 19.8-0.1h2c5.2 0 11.1 0 16.9 0.2q5.7 0.1 11.4 0.2c1.1 0 2.2 0.1 3.4 0.1 5.6 0.2 11.4 0.3 17.2 1 4.4 0.5 9 1.1 13.6 2.2 1.7 0.4 3.6 0.7 5.2 1h0.1c2.4 0.4 4.8 0.8 7.3 1.5 6.4 1.7 11.8 4 16.7 7 5.6 3.5 10.1 7.7 14.6 12.1 0.6 0.6 1.1 1.1 1.7 1.7 0.8 0.8 1.6 1.7 2.5 2.5 3.9 3.6 7.1 7.7 9.9 11.5 2.2 3 4.2 6 6 8.5q1-1 2-1.8l0.5-0.4c1.1-1 2.3-1.9 3.4-2.8l0.4-0.4c1.4-1.1 3-2.4 4.5-3.7 5.3-4.5 10.9-9.2 16.7-13.8 5.8-4.7 12-9.8 19.4-16.1 3.9-3.3 7.4-7.2 10.6-11.6 1.5-2.1 2.2-4.7 2.5-6.7 1.1-5.5 2.7-10.8 4.2-15.2 1.2-3.9 3-7.9 5.2-11.7 2.9-5.1 6.8-9.1 10.3-12.3 3.8-3.5 8-6.6 12-9.6 0 0 2.1-1.5 2.7-1.9 4.2-3.1 9.3-6.7 15.1-9.5 4-1.9 8.5-3.5 14.1-5 4.2-1.1 8.3-1.5 12.5-1.8 0.2 0 0.3 0 0.5 0l0.7-0.3h3.2l0.8 0.3c0 0 0.2 0 0.3 0 0.4 0 1 0.1 1.8 0.2 3.2 0.7 5.7 1.4 8 2.3 0.4 0.1 0.7 0.2 1 0.3l0.7 0.2c3.3 1 6.3 2.5 9.3 4.9q1.1 0.7 1.9 1.9c2.3 2.7 2.6 6.2 0.8 9.3-1.3 2.2-2.8 4.1-4.7 5.6-3.3 2.7-6.8 5.6-10.6 8.5-1 0.8-2 1.6-3.2 2.4-0.7 0.5-1.6 1.1-2.4 1.7q-1.7 1.3-3.5 2.7c-1.1 0.9-2.2 1.8-3.4 2.7-1.9 1.4-3.5 2.6-5 3.6-3.5 2.4-6.9 5.1-10.5 8.2-1.3 1-2.5 2.4-3.5 3.7h-0.1c0 0-0.1 0.3-0.2 0.4v0.1c-0.4 0.4-0.8 0.9-1.3 1.5-1.1 1-1.7 2.5-2.2 4.7-0.2 0.6-0.3 1.5 0.3 3.1 0 0 0.2 0.2 1 0.7q1.8 1 4.2 1.8 1.8-1.4 3.7-2.8l0.4-0.3c1.9-1.6 3.7-2.9 5.6-4.3 2.8-2 5.3-4.6 7.8-7.1q1.4-1.4 2.7-2.7c3.9-3.7 8.3-7.6 13.4-11.8 2.2-1.9 4.5-3.8 6.7-5.8l0.2-0.2q1.8-1.6 3.6-3.1 1.5-1.3 2.8-2.4l0.6-0.4q1.8-1.5 3.8-2.1 1.2-0.4 2.5-0.4c1.4 0 2.8 0.5 4 1.3l0.3 0.1 2.7 1.5 0.5 3.3c0.1 0.5 0.3 1.3 0.7 2.1v0.1c0.1 0.5 0.4 1 0.5 1.5q0.3 0.9 0.7 1.9c0.7 1.9 1.4 4.1 1.9 6.5 0.6 3.3 1 6.9 0.6 10.6-0.1 1-0.2 2.1-0.2 3.3-0.1 1.6-0.2 3.3-0.4 4.9-1.3 9.4-4.7 18.2-10 26.1-3.3 4.9-6.3 8.7-9.6 12.1-5.1 5.1-10.7 9.5-16.7 13-4.7 2.7-8.7 4.8-13.2 6.4-2.7 0.9-5.3 1.4-7.8 1.8l-3.1 0.6c-2.2 0.3-4.1 0.6-6 1-1.5 0.3-3 0.9-4.5 1.5-0.6 0.2-1.1 0.4-1.6 0.6-2.1 0.7-4.2 1.7-7.4 3.2-6 2.9-11.1 7.1-15.4 10.8-1.7 1.6-3.4 2.9-5 4.2-1 0.8-2.1 1.8-3.2 2.7l-0.1 0.1c-1.1 1-2.3 2-3.5 2.9-5 4-9.7 8.5-14.2 12.8q-2.4 2.3-4.9 4.6c0 0-0.2 0.3-0.4 0.4-1.6 1.5-3.3 3.1-4.9 4.6l-0.6 0.6q-2.6 2.4-5.1 4.8c0.3 0.2 0.6 0.3 0.9 0.5q1 0.4 2 0.9 1 0.5 2 1l0.9 0.5c3.1 1.4 6.2 3 9.4 4.3 1.7 0.8 3.6 1.4 5.4 2.1 4.2 1.5 8.3 3.4 12.5 5.8 4.2 2.4 7.2 5.8 9.7 8.9 2.6 3.4 4.8 7.2 6.4 11.3l0.6 1.4c1.6 4.1 3.3 8.4 4.4 12.9l0.1 0.3c0.6 2.4 1.2 4.8 2 7.1 1 2.6 1.6 5.5 1.9 8.5 0.1 1.7 0.5 3.5 0.9 5.1 0.3 1.1 0.5 2.2 0.8 3.4 0.3 1.7 0.6 3.5 1 6 0.2 1.4 0.3 3 0.2 4.6 0 0.1 0 0.3 0.1 0.7 3.6 7.8 6.8 15.6 9.5 22.1 1.3 3.1 2 6 2.2 8.9 0.1 1 0 2 0 2.8v0.5c-0.5 4.3-1.3 8.4-2.7 12.6-0.7 1.9-1.2 3.8-1.8 5.7q-0.9 3.1-1.9 6.2c-0.9 2.6-1.9 5.2-2.9 7.9 0.6 1.3 1.2 2.6 1.7 3.5q1.8 3.4 3.5 6.8l1.9 3.6c1.6 3 2.1 6.4 1.7 10.5-0.3 3.7-1.5 7.1-2.8 10.1-1.8 4.5-4 9.2-7.1 13.5-3.1 4.6-6.7 9.3-11.2 13.5-3.4 3-7.5 4.7-12.9 5.4-4.2 0.6-8.5 0.7-12.6 0.9h-0.2q-2.1 0.1-4.2 0.3c-4.6 0.2-9.3 0.3-13.8 0.3-3.7 0-7.8 0.1-11.9 0.3-1.1 0-2.2 0.1-3.3 0.1-1.4 0-2.9 0-4.4-0.1-1.3 0-2.7 0-4.1 0h-0.7c-6.6 0-13.5 0.5-19.1 0.9l-0.6 0.2h-9.9z"/>
			</g>
			<g>
				<path class="s1" d="m716.9 55.7q-0.2 1.9-0.3 3.7c-0.1 1.5-0.1 2.9-0.4 4.3-1.1 8.4-4.2 16.3-8.9 23.4-3 4.6-5.8 8.1-8.9 11.1-4.6 4.8-9.8 8.8-15.3 12-4.4 2.5-8.1 4.5-12.2 5.9-2.1 0.7-4.4 1.1-6.7 1.5l-0.7 0.1q-1.2 0.2-2.4 0.4c-1.9 0.3-4 0.7-6 1.1-2.1 0.4-3.9 1.1-5.8 1.8q-0.8 0.3-1.5 0.6c-2.5 1-5 2-7.9 3.4-6.7 3.3-12.3 7.8-16.8 11.8-1.7 1.5-3.2 2.8-4.8 4q-1.8 1.5-3.6 3c-1 0.9-2.2 1.8-3.3 2.7-5.2 4.1-10 8.7-14.6 13.1-1.6 1.5-3.3 3.1-4.9 4.6q-0.2 0.1-0.3 0.3c-1.9 1.8-3.8 3.6-5.7 5.3-3 2.9-6.2 5.9-9.3 8.7l-0.8 0.7 0.1 1c0.1 1 0.7 1.7 1.6 2.3h0.1c1.9 1.2 3.9 2.2 5.8 3.1 0.7 0.3 1.3 0.6 1.9 0.9 1 0.5 1.8 0.9 2.7 1.3 3.2 1.6 6.5 3.2 9.8 4.6 1.9 0.9 3.8 1.6 5.9 2.3 3.8 1.3 7.6 3 11.4 5.3 3.3 1.9 5.8 4.7 7.8 7.2 2.3 2.9 4.2 6.2 5.6 9.7l0.5 1.4c1.5 3.9 3.2 8 4.2 12.1l0.1 0.3c0.6 2.5 1.3 5.2 2.2 7.8 0.8 2.1 1.3 4.4 1.5 6.8 0.2 2.1 0.7 4.1 1.1 6.1 0.2 1 0.5 2 0.7 3 0.3 1.8 0.6 3.6 1 5.9 0.1 0.9 0.2 1.9 0.1 3-0.2 1.3 0.1 2.5 0.7 3.9 3.5 7.7 6.7 15.4 9.4 21.9 1 2.5 1.6 4.7 1.7 7q0.1 0.8-0.1 1.9v0.2c-0.4 3.8-1.1 7.5-2.4 11.2q-1.1 3-1.8 6c-0.6 1.9-1.2 4-1.8 5.9-0.9 2.7-1.9 5.2-3 8.1q-0.7 1.9 0 3.8c0.7 1.7 1.4 3.3 2.1 4.6q1.8 3.4 3.6 6.8c0.6 1.1 1.2 2.3 1.8 3.5 1 1.9 1.3 4.1 1 7-0.3 2.9-1.3 5.6-2.3 8.2-1.7 4.1-3.7 8.4-6.4 12.3-3 4.2-6.2 8.7-10.4 12.4-2.3 2.1-5.2 3.3-9.3 3.8q-6.2 0.7-12.3 0.9c-1.4 0.1-2.9 0.2-4.3 0.3-4.4 0.2-9.1 0.2-13.5 0.3-3.9 0-8 0.1-12 0.3q-1.4 0-3 0c-1.4 0-2.9 0-4.3 0-1.4 0-2.8-0.1-4.3-0.1h-0.7c-6.8 0.1-13.7 0.5-19.9 0.9-0.3 0-0.6 0.1-0.8 0.2h-8.3c-0.9-0.2-1.8-0.2-2.7-0.2q-1.4 0-2.6 0.2h-15.4c-0.5-0.2-1-0.2-1.3-0.2q-0.2 0-0.3 0c-4-0.4-8.1-0.5-12-0.6h-1.2c-2.4-0.1-4.8-0.2-7.1-0.5q-0.9-0.1-1.5-0.4c-2.5-1.3-5-2.6-7.5-3.8-2.8-1.3-5.7-2.7-8.4-4.2-1-0.6-2.1-1.2-3.2-1.7-1.9-1-3.7-2-5.5-3.1-0.2-0.1-0.3-0.2-0.6-0.3-0.1-0.1-0.4-0.2-0.4-0.3-1.5-1.4-3.2-1.7-4.7-1.7-22.9-0.1-46.8-0.3-70.9-0.5-5.1 0-10.2-0.1-15.2-0.2q-3.1 0-6.2-0.1h-0.5-0.2-0.3c-2.1 0-4.2 0-6.3 0.1-5 0.1-10.1 0.1-15.2 0.2-24.1 0.2-48 0.4-70.9 0.5-1.5 0-3.2 0.3-4.7 1.7-0.1 0.1-0.3 0.2-0.4 0.3-0.2 0.1-0.4 0.2-0.6 0.4-1.7 1.1-3.5 2-5.4 3q-1.7 0.9-3.3 1.8c-2.7 1.5-5.6 2.9-8.3 4.2-2.5 1.1-5.1 2.4-7.6 3.7q-0.6 0.3-1.5 0.4c-2.3 0.2-4.7 0.4-7.1 0.4h-1.1c-4 0.2-8.1 0.3-12.1 0.7q-0.1 0-0.3 0c-0.3 0-0.8 0-1.3 0.2h-15.4c-0.8-0.2-1.6-0.2-2.6-0.2-0.9 0-1.8 0.1-2.7 0.2h-8.3c0 0-0.5-0.1-0.8-0.2-6.2-0.4-13.1-0.8-19.9-0.9h-0.7c-1.5 0-2.9 0-4.3 0.1q-2.1 0-4.2 0c-1.2 0-2.1 0-3.1 0q-6-0.3-12-0.3c-4.4 0-9-0.1-13.5-0.3-1.4-0.1-2.9-0.2-4.3-0.3-4-0.1-8.2-0.3-12.3-0.9-4.1-0.5-7-1.6-9.3-3.8-4.1-3.7-7.4-8.2-10.4-12.4-2.7-3.8-4.7-8.1-6.3-12.2-1.1-2.6-2.1-5.4-2.4-8.3-0.3-2.9 0-5 1-6.9 0.6-1.2 1.2-2.4 1.9-3.6q1.7-3.4 3.5-6.8c0.7-1.3 1.4-2.9 2.1-4.6 0.5-1.3 0.5-2.5 0-3.8-1.1-2.9-2.1-5.4-3-8.1-0.6-1.9-1.2-4-1.8-5.9q-0.9-3-1.8-6c-1.2-3.7-2-7.4-2.3-11.2v-0.2q-0.2-1-0.1-1.9c0.2-2.2 0.7-4.5 1.7-7 2.7-6.5 5.9-14.2 9.4-21.9 0.6-1.3 0.8-2.6 0.7-3.9-0.1-1-0.1-2 0.1-2.9 0.3-2.3 0.7-4.2 1-5.9 0.2-1 0.4-2 0.6-3.1 0.5-1.9 0.9-3.9 1.1-6 0.2-2.5 0.7-4.8 1.5-6.8 0.9-2.6 1.6-5.3 2.3-7.9v-0.2c1.1-4.1 2.7-8.2 4.2-12.1l0.6-1.4c1.4-3.6 3.2-6.8 5.5-9.7 2.1-2.5 4.6-5.4 7.9-7.3 3.8-2.2 7.5-3.9 11.3-5.2 2.1-0.7 4-1.4 6-2.3 3.3-1.5 6.6-3.1 9.8-4.6 0.9-0.4 1.8-0.9 2.6-1.3 0.7-0.3 1.3-0.6 2-0.9 1.9-0.9 3.9-1.9 5.8-3.1h0.1q1.5-0.8 1.5-2.3l0.1-1-0.7-0.7c-3.2-2.8-6.3-5.8-9.4-8.7q-1.7-1.7-3.6-3.4-1-0.9-2-1.9c-1.8-1.6-3.5-3.2-5.2-4.9-4.7-4.4-9.5-9-14.7-13.1-1.1-0.9-2.1-1.8-3.2-2.7-1.2-1-2.4-2.1-3.7-3.1-1.5-1.2-3-2.4-4.7-3.9-4.6-4.1-10.2-8.6-16.9-11.8-2.3-1.1-5.1-2.4-7.9-3.5q-0.7-0.3-1.5-0.5c-1.8-0.8-3.7-1.5-5.8-1.9-2-0.4-4-0.7-6-1-0.8-0.2-1.6-0.3-2.4-0.4l-0.6-0.1c-2.4-0.4-4.7-0.8-6.8-1.6-4-1.4-7.8-3.3-12.2-5.9-5.5-3.1-10.6-7.2-15.3-11.9-3-3.1-5.8-6.6-8.8-11.1-4.8-7.2-7.8-15.1-9-23.5q-0.3-2-0.3-4.2c-0.1-1.3-0.2-2.5-0.3-3.8-0.3-3 0.1-6.1 0.6-8.7 0.3-1.8 0.9-3.6 1.6-5.5 0.3-0.6 0.5-1.4 0.7-2.1q0.2-0.6 0.5-1.2c0.4-1.1 0.8-2.3 1-3.6 0.3-0.1 0.5-0.3 0.7-0.4l0.1-0.1c0 0 0.3-0.1 0.4-0.1 0.1 0 0.3 0 0.5 0.1 0.6 0.1 1.1 0.5 1.7 1l0.6 0.4q1.4 1.1 2.7 2.2c1.2 1 2.4 2.1 3.6 3.2 2.3 1.9 4.6 4 7 6 4.9 4 9.1 7.8 12.9 11.4 0.9 0.9 1.8 1.8 2.7 2.6 2.6 2.7 5.4 5.4 8.5 7.8 1.9 1.3 3.7 2.8 5.5 4.1 1.5 1.2 3 2.3 4.5 3.5q1.5 1.2 3.3 1.1 0.9 0 1.8-0.2c2.3-0.8 4.2-1.6 5.9-2.7 1.4-0.8 3-1.9 3.8-4 0.8-2.5 1-4.7 0.5-6.9-0.7-2.6-1.7-5.4-4-7.7q-0.3-0.4-0.7-0.8c-0.1-0.3-0.3-0.4-0.5-0.7-1.2-1.5-2.6-3.2-4.4-4.6-3.8-3.2-7.2-6-11-8.5-1.4-1-2.9-2.1-4.7-3.4q-1.7-1.3-3.4-2.6c-1.1-0.9-2.4-1.9-3.5-2.8-0.9-0.7-1.8-1.3-2.7-1.9-1-0.8-2-1.4-2.9-2.1-3.6-2.9-7.1-5.7-10.4-8.4-1.3-1.1-2.3-2.4-3.2-3.9-0.5-0.8-0.4-1.3 0.2-2.1 0.3-0.3 0.5-0.6 0.8-0.8 2.4-1.8 4.8-3.1 7.4-3.8l0.4-0.2c0.5-0.1 1-0.3 1.5-0.5 2.1-0.7 4.3-1.3 7.3-2 0.2 0 0.4 0 0.7 0q0.7 0 1.8-0.3h1.2c0.6 0.2 1.1 0.2 1.4 0.2q0.2 0 0.3 0c3.9 0.4 7.7 0.7 11.3 1.7 5.3 1.3 9.4 2.8 13 4.5 5.3 2.6 10.1 5.9 14 8.9q1.3 0.9 2.6 1.9c3.9 2.9 8 5.9 11.6 9.2 3.2 2.9 6.7 6.4 9.1 10.7 2 3.5 3.6 7 4.7 10.5 1.4 4.3 3 9.3 3.9 14.5 0.5 2.4 1.4 6 3.7 9.3 3.5 4.7 7.4 9 11.7 12.6 7.5 6.5 13.7 11.6 19.5 16.2 5.7 4.6 11.3 9.2 16.5 13.7q2.3 2 4.6 3.8c1.2 1 2.6 2.1 3.8 3.2l0.5 0.4c1.3 1.1 2.7 2.2 3.2 3.7 0.4 0.8 1 1.3 1.4 1.6 0.1 0 0.2 0 0.2 0.1 0.6 0.4 1.2 0.6 1.6 0.6 0.2 0 0.7-0.1 1.1-0.3 0.3-0.2 0.6-0.4 0.9-0.8l0.1-0.2c0 0 0.3-0.3 0.4-0.5 2.8-4.1 5.5-8.1 8.4-12.1 2.7-3.6 5.6-7.3 9.1-10.7 1-0.8 1.8-1.7 2.7-2.6q0.8-0.9 1.6-1.7c4.2-4.1 8.5-8.1 13.5-11.2 4.3-2.7 9.2-4.8 14.9-6.2 2.3-0.6 4.6-1 6.9-1.5 1.8-0.3 3.7-0.6 5.5-1 4.3-1 8.8-1.6 13-2.1 5.5-0.7 11.1-0.8 16.6-0.9 1.1 0 2.3-0.1 3.4-0.1q5.7-0.2 11.4-0.3c6-0.1 12.1-0.1 17.5-0.1h3.9c4.8 0 11.2 0 17.8 0.1 4.3 0 8.9 0.1 14.1 0.1 6.5 0 13.3 0 19.7-0.1 6.5-0.1 13.2-0.1 19.8-0.1h1.2c5.4 0 11.5 0 17.5 0.1q5.7 0.1 11.4 0.3c1.2 0 2.3 0 3.4 0.1 5.5 0.1 11.1 0.2 16.6 0.9 4.2 0.5 8.7 1.1 13 2.1q2.8 0.6 5.5 1c2.3 0.5 4.7 0.9 6.9 1.5 5.7 1.4 10.6 3.5 15 6.2 5 3.1 9.2 7.1 13.4 11.2q0.8 0.8 1.6 1.7 1.3 1.3 2.8 2.6c3.5 3.3 6.4 7.1 9.1 10.7q3.1 4.3 6.1 8.7 1.2 1.7 2.3 3.4 0.2 0.2 0.3 0.4l0.1 0.2c0.7 1 1.6 1.1 2 1.1 0.4 0 1-0.1 1.6-0.6 0 0 0.1 0 0.2-0.1 0.3-0.3 1-0.7 1.4-1.6 0.6-1.5 1.9-2.6 3.2-3.7l0.5-0.4c1.2-1 2.5-2.1 3.8-3.1 1.5-1.2 3.1-2.5 4.6-3.8 5.2-4.5 10.8-9.1 16.5-13.7 5.8-4.7 12-9.8 19.5-16.2 4.3-3.6 8.2-7.9 11.7-12.7 2.3-3.2 3.2-6.8 3.7-9.3 0.9-5.1 2.5-10.2 3.8-14.4q1.8-5.3 4.8-10.5c2.4-4.4 5.9-7.9 9-10.7 3.6-3.3 7.7-6.4 11.7-9.3q1.2-0.9 2.5-1.9c4-2.9 8.8-6.3 14.1-8.8 3.6-1.8 7.7-3.2 12.9-4.6 3.7-0.9 7.5-1.3 11.4-1.6q0.1 0 0.2 0c0.4 0 0.9 0 1.5-0.2h1.1c0.7 0.2 1.4 0.2 1.9 0.2q0.4 0 0.6 0.1c3 0.6 5.3 1.3 7.3 2 0.6 0.2 1.1 0.3 1.6 0.5l0.4 0.1c2.6 0.8 4.9 2.1 7.3 3.9 0.3 0.2 0.6 0.5 0.9 0.8 0.5 0.7 0.6 1.3 0.2 2.1-0.9 1.5-2 2.8-3.3 3.8-3.3 2.8-6.8 5.6-10.4 8.4-0.9 0.8-1.9 1.4-2.9 2.2-0.9 0.6-1.8 1.2-2.6 1.8-1.3 0.9-2.4 1.9-3.6 2.8-1.1 0.9-2.2 1.8-3.4 2.6-1.7 1.3-3.2 2.4-4.7 3.4-3.8 2.6-7.2 5.4-11 8.5-1.7 1.5-3.2 3.1-4.4 4.7-0.2 0.2-0.3 0.4-0.5 0.6-0.2 0.3-0.4 0.6-0.7 0.8-2.3 2.3-3.2 5.1-3.9 7.7-0.5 2.2-0.4 4.4 0.5 6.9 0.7 2.1 2.4 3.2 3.8 4.1 1.7 1 3.6 1.9 5.9 2.6q0.9 0.3 1.8 0.3 1.8 0 3.3-1.2c1.5-1.1 3-2.3 4.5-3.5 1.8-1.4 3.7-2.8 5.5-4.1 3.1-2.4 5.9-5.1 8.5-7.8q1.3-1.3 2.7-2.6c3.8-3.7 8-7.4 12.9-11.4 2.4-2 4.7-4 7-6 1.2-1.1 2.4-2.2 3.7-3.2 0.8-0.7 1.7-1.5 2.6-2.2l0.6-0.4c0.6-0.5 1.2-0.9 1.7-1 0.2-0.1 0.4-0.1 0.5-0.1 0.2 0 0.3 0 0.4 0.1l0.2 0.1c0 0 0.3 0.3 0.6 0.4 0.2 1.3 0.6 2.5 1.1 3.6 0.1 0.4 0.3 0.8 0.4 1.2 0.2 0.7 0.5 1.4 0.7 2.1 0.7 1.9 1.3 3.7 1.7 5.5 0.4 2.6 0.9 5.7 0.5 8.7z"/>
			</g>
			<g>
				<path class="s2" d="m651.7 298v0.2c-0.4 3.8-1.1 7.5-2.4 11.2q-1.1 3-1.8 6c-0.6 1.9-1.2 4-1.8 5.9-0.9 2.7-1.9 5.2-3 8.1q-0.7 1.9 0 3.8c0.7 1.7 1.4 3.3 2.1 4.6q1.8 3.4 3.5 6.8c0.7 1.1 1.3 2.3 1.9 3.5 1 1.9 1.3 4.1 1 7-0.3 2.9-1.3 5.6-2.4 8.2-1.6 4.1-3.6 8.4-6.3 12.3-3 4.2-6.2 8.7-10.4 12.4-2.3 2.1-5.2 3.3-9.3 3.8q-6.2 0.7-12.3 0.9c-1.4 0.1-2.9 0.2-4.3 0.3-4.5 0.2-9.1 0.2-13.5 0.3q-6 0-12 0.3c-0.9 0-1.9 0-3.1 0q-2.1 0-4.2 0c-1.4 0-2.8-0.1-4.3-0.1h-0.7c-6.8 0.1-13.8 0.5-19.9 0.9-0.3 0-0.6 0.1-0.8 0.2h-8.3c-0.9-0.2-1.8-0.2-2.7-0.2q-1.4 0-2.6 0.2h-15.4c-0.5-0.2-1-0.2-1.3-0.2q-0.2 0-0.3 0c-4-0.4-8.1-0.5-12-0.6h-1.2c-2.4-0.1-4.8-0.2-7.1-0.5q-0.9-0.1-1.5-0.4c-2.5-1.3-5.1-2.6-7.5-3.8-2.8-1.3-5.7-2.7-8.4-4.2-1-0.6-2.1-1.2-3.2-1.7-1.9-1-3.7-2-5.5-3.1-0.2-0.1-0.3-0.2-0.6-0.3-0.1-0.1-0.4-0.2-0.4-0.3-1.5-1.4-3.2-1.7-4.7-1.7-22.9-0.1-46.8-0.3-70.9-0.5-5.1 0-10.2-0.1-15.2-0.2q-3.1 0-6.2-0.1h-0.5-0.2-0.3c-2.2 0-4.2 0-6.3 0.1-5 0.1-10.1 0.1-15.2 0.2-24.1 0.2-48 0.4-70.9 0.5-1.5 0-3.2 0.3-4.7 1.7-0.1 0.1-0.3 0.2-0.4 0.3-0.2 0.1-0.4 0.2-0.6 0.4-1.7 1.1-3.6 2-5.5 3-1 0.6-2.1 1.2-3.2 1.8-2.7 1.5-5.6 2.9-8.3 4.2-2.5 1.1-5.1 2.4-7.6 3.7q-0.6 0.3-1.5 0.4c-2.3 0.2-4.7 0.4-7.1 0.4h-1.1c-4 0.2-8.1 0.3-12.1 0.7q-0.1 0-0.3 0c-0.3 0-0.8 0-1.3 0.2h-15.4c-0.8-0.2-1.7-0.2-2.6-0.2-0.9 0-1.8 0.1-2.7 0.2h-8.3c0 0-0.5-0.1-0.8-0.2-6.2-0.4-13.1-0.8-19.9-0.9h-0.7c-1.5 0-2.9 0-4.3 0.1q-2.1 0-4.2 0c-1.2 0-2.1 0-3.1 0q-6-0.3-12-0.3c-4.4 0-9-0.1-13.5-0.3-1.4-0.1-2.9-0.2-4.3-0.3-4-0.1-8.2-0.3-12.3-0.9-4.1-0.5-7-1.6-9.3-3.8-4.1-3.7-7.4-8.2-10.4-12.4-2.7-3.8-4.7-8.1-6.3-12.2-1.1-2.6-2.1-5.4-2.4-8.3-0.3-2.9 0-5 1-6.9 0.6-1.2 1.2-2.4 1.9-3.6q1.7-3.4 3.5-6.8c0.7-1.3 1.4-2.9 2.1-4.6 0.5-1.3 0.5-2.5 0-3.8-1.1-2.9-2.1-5.4-3-8.1-0.6-1.9-1.2-4-1.8-5.9q-0.9-3-1.8-6c-1.2-3.7-2-7.4-2.3-11.2v-0.2q-0.2-1-0.1-1.9c0.1-2.2 0.7-4.5 1.7-7 2.7-6.5 5.9-14.2 9.4-21.9 0.5-1.3 0.8-2.6 0.7-3.9-0.1-1-0.1-2 0.1-2.9 0.3-2.3 0.6-4.2 1-5.9 0.1-1 0.4-2 0.6-3.1 0.5-1.9 0.9-3.9 1.1-6 0.2-2.5 0.7-4.8 1.5-6.8 0.9-2.6 1.6-5.3 2.2-7.9l0.1-0.2c1.1-4.1 2.7-8.2 4.2-12.1l0.5-1.4c1.5-3.6 3.3-6.8 5.6-9.7 2.1-2.5 4.5-5.4 7.9-7.3 3.8-2.2 7.5-3.9 11.3-5.2 2.1-0.7 4-1.4 6-2.3 3.3-1.5 6.6-3.1 9.8-4.6 0.9-0.4 1.7-0.9 2.6-1.3 0.6-0.3 1.3-0.6 2-0.9 1.9-0.9 3.9-1.9 5.8-3.1q1.5-0.8 1.6-2.3l0.1-1-0.7-0.7c-3.2-2.8-6.3-5.8-9.4-8.7q-1.8-1.7-3.6-3.4c-0.3-3.8-0.6-7.7-1-11.6-0.2-2.9-0.2-6.4 2-8.3 1.4-1.1 3.3-1.3 5-1.5 11.6-1.4 25.7-1.6 31.9 8.2 7.3-4.7 11.8-11.9 15.5-19.8 0.3-0.2 0.6-0.4 0.9-0.8l0.1-0.2c0 0 0.3-0.3 0.4-0.4 2.8-4.2 5.5-8.2 8.4-12.1 2.6-3.6 5.6-7.4 9.1-10.7 1-0.9 1.8-1.8 2.7-2.7q0.8-0.8 1.6-1.6c4.2-4.1 8.4-8.1 13.5-11.3 4.3-2.6 9.2-4.7 14.9-6.2 2.3-0.6 4.6-1 6.9-1.4 1.8-0.3 3.7-0.6 5.5-1.1 4.3-1 8.8-1.5 13-2.1 5.5-0.7 11.1-0.8 16.6-0.9 1.1 0 2.3 0 3.4-0.1q5.7-0.1 11.4-0.2c6-0.2 12.1-0.2 17.5-0.2h3.8c4.9 0 11.3 0 17.9 0.1 4.3 0.1 8.9 0.1 14.1 0.1 6.5 0 13.2 0 19.7-0.1 6.5 0 13.2-0.1 19.8-0.1h1.2c5.4 0 11.5 0 17.5 0.2q5.7 0.1 11.4 0.2c1.2 0 2.2 0.1 3.4 0.1 5.5 0.2 11.1 0.3 16.6 0.9 4.2 0.5 8.6 1.1 13 2.1q2.7 0.6 5.5 1.1c2.2 0.4 4.6 0.8 6.9 1.4 5.7 1.5 10.6 3.6 15 6.2 5 3.2 9.2 7.2 13.4 11.3q0.8 0.8 1.6 1.6 1.3 1.4 2.8 2.7c3.5 3.3 6.4 7.1 9.1 10.7q3.1 4.3 6.1 8.7c4.2 9.9 9.7 19.3 16.3 27.8 5-4.9 10.3-10 16.8-12.9 7.1-3.2 14.2-1.3 21.3 1.3 0.7 0.3 1.5 0.7 2 1.2 0.5 0.6 0.8 1.5 0.9 2.2 0.6 3.4 0.3 7-0.9 10.2-0.4 1.1-0.9 2.4-0.3 3.4 0.3 0.6 0.8 1 1.3 1.3 0.7 0.4 1.3 0.7 1.9 1 0 0.1-0.2 0.2-0.3 0.3-1.9 1.8-3.8 3.6-5.6 5.3-3.1 2.9-6.2 5.9-9.4 8.7l-0.7 0.7 0.1 1c0 1 0.6 1.7 1.5 2.3h0.1c1.9 1.2 3.9 2.2 5.9 3.1 0.6 0.3 1.2 0.6 1.9 0.9 0.9 0.5 1.7 0.9 2.6 1.3 3.2 1.6 6.5 3.2 9.8 4.6 1.9 0.9 3.8 1.6 6 2.3 3.8 1.3 7.5 3 11.3 5.3 3.3 1.9 5.8 4.7 7.9 7.2 2.2 2.9 4.1 6.2 5.5 9.7l0.5 1.4c1.6 3.9 3.2 8 4.2 12.1l0.1 0.3c0.6 2.5 1.3 5.2 2.3 7.8 0.7 2.1 1.2 4.4 1.4 6.8 0.2 2.1 0.7 4.1 1.1 6.1 0.3 1 0.5 2 0.7 3 0.3 1.8 0.6 3.6 1 5.9 0.1 0.9 0.2 1.9 0.1 3-0.1 1.3 0.1 2.5 0.7 3.9 3.6 7.7 6.7 15.4 9.4 21.9 1 2.5 1.6 4.7 1.7 7q0.1 0.8-0.1 1.9z"/>
			</g>
			<g>
				<path fill-rule="evenodd" class="s3" d="m630.6 336.2l5 13.7 2.3 6-8.7 16.5-12.3 6.8-64.6 3.3-31.1-76 44.9-31.6-56.3 16.9-2.3 12.4 15.5 40.3 10 29.7 2.5 13.2-22.2 1-17.4-1.4-7.7-2.3-6.9-4.1-11.5-7.9-5.9-5.9-6.4-11.9-5.9-9.1-6-5-12.3 0.4-21.1-0.4-23.8 2.7-17.9-2.2h-3.7l-18 2.2-23.8-2.7-21 0.4-12.4-0.4-5.9 5-6 9.1-6.3 11.9-5.9 5.9-11.5 7.9-6.9 4.1-7.8 2.3-17.4 1.4-22.2-1 2.5-13.2 10.1-29.7 15.5-40.3-2.3-12.4-56.3-16.9 44.8 31.6-31.1 76-64.5-3.3-12.4-6.8-8.7-16.5 2.3-6 5-13.7-1.3-5.5-5.5-23.8-3.5-15.5 4.9-9.2 4.1-8.7 2.8-9.1 1.8-21.6c0 0 6.4 7.3 19.7 14.2 13.3 6.9 68.2 22.4 68.2 22.4l-8.1-13.6c0 0-18-8.8-33.6-17-15.5-8.2-15.5-40.7-15.5-40.7l7.3 15.5 5 6 7.4 6.9 6.4 4.1 16.4 8.7 18.3 5.9 15.6 8.7 4.5-9.6 34.4-7.8-30.2 34.8 50.6-37.6h89.5l2.7 2.6 2.8-2.6h89.5l50.6 37.6-30.2-34.8 34.4 7.8 4.5 9.6 15.6-8.7 18.3-5.9 16.4-8.7 6.4-4.1 7.4-6.9 5-6 7.3-15.5c0 0 0 32.4-15.5 40.7-15.6 8.2-33.5 17-33.5 17l-8.2 13.6c0 0 55-15.5 68.2-22.4 13.4-6.8 19.7-14.2 19.7-14.2l1.9 21.6 2.7 9.1 4.1 8.7 4.9 9.2-3.5 15.5-5.5 23.8-1.3 5.5zm-201.1-69.1l-61-5.5-61 5.5 56.8 11.5 5-0.8 3.4 0.8z"/>
			</g>
			<g>
				<path fill-rule="evenodd" class="s4" d="m692.4 56.2c4.9-4.4 9.4-8.8 13.8-13.8 3-3.3 5.5-6.5 7.8-1.2 5 11.8 0.3 29-5.6 39.6-7.6 13.3-20.3 23.3-34.7 28.7-12.9 4.8-27 6-39 12.7-5.4 3-10.2 7-15 11q-15.2 12.7-30.3 25.5c-0.5-2.9 1.6-5.7 1.4-8.6-0.3-3.5-4.3-6-7.5-4.8 0-3.5 3-6.1 5.7-8.3 11.5-9.2 22.3-19.3 32.3-30.2 9.5-10.4 18.6-22.2 20.7-36.2 0.2 6.1 6.9 10.3 13 10.1 6-0.3 11.5-3.9 16.4-7.5 7.2-5.3 14.1-11.1 20.9-17zm-640.7-0.1c6.8 6 13.7 11.7 20.9 17.1 4.9 3.6 10.4 7.1 16.4 7.4 6.1 0.3 12.8-4 13-10 2.1 14 11.2 25.8 20.7 36.2 10 10.9 20.8 21 32.3 30.2 2.7 2.2 5.7 4.8 5.7 8.3-3.2-1.3-7.2 1.3-7.5 4.7-0.2 3 1.9 5.8 1.4 8.7-10.1-8.5-20.2-17-30.3-25.6-4.8-3.9-9.6-8-15-11-12-6.6-26.2-7.9-39-12.7-14.4-5.3-27.1-15.3-34.7-28.6-5.9-10.6-10.6-27.8-5.6-39.7 2.2-5.2 4.8-2.1 7.8 1.3 4.4 4.9 8.8 9.4 13.8 13.8z"/>
			</g>
			<g>
				<path fill-rule="evenodd" class="s5" d="m509.4 175.9c-20.1 8.7-52.4 46.2-52.4 46.2l-27.2-20.2 19.9-31.7c17.6 1.3 59.7 5.7 59.7 5.7zm-31.5 52.9c0 0 23.7-38 45.7-49.7l19.5-0.3c0 0-35.8 25.6-47.2 64.4zm36.4 1.7c0 0 33.4-36.4 49.7-46.5 0 0 3.3 4.6 7.9 6.3 4.6 1.6 8.9 2.7 8.9 2.7 0 0-33.4 29.6-66.5 37.5zm-140.1-60.9c13.6 0.1 59.9 0.3 60.1 0.3l-15.7 28.8h-92.5l-15.8-28.8c0.3 0 46.5-0.2 60.2-0.3 1.1 0 2.1 0 2.7 0 0.4 0 0.6 0 1 0zm244.2 46.7c0 0-2.7 17-10.2 25.8-7.5 8.8-31.7 15.3-31.7 15.3 40.9-15.6 25.2-52.7 25.2-52.7 10.3 4.4 16.7 11.6 16.7 11.6zm-323.3-46.1l19.9 31.7-27.2 20.2c0 0-32.4-37.5-52.5-46.2 0 0 42.2-4.4 59.8-5.7zm-46.2 73c-11.4-38.8-47.3-64.4-47.3-64.4l19.6 0.3c22 11.7 45.7 49.7 45.7 49.7zm-85.1-50.2c0 0 4.4-1.1 9-2.7 4.6-1.7 7.9-6.3 7.9-6.3 16.3 10.1 49.7 46.5 49.7 46.5-33.2-7.9-66.6-37.5-66.6-37.5zm-20.8 11.7c0 0-15.7 37.1 25.2 52.7 0 0-24.2-6.5-31.7-15.3-7.5-8.8-10.2-25.8-10.2-25.8 0 0 6.4-7.2 16.7-11.6zm227.4-35.1c1.1 0 2 0 2.6 0-1.6 0-2.6 0-2.6 0zm2.8 0q0.4 0 1 0c0 0-0.4 0-1 0z"/>
			</g>
			<g>
				<path fill-rule="evenodd" class="s6" d="m719 55.8c-0.4 2.7-0.3 5.4-0.7 8.1q-1.8 13.2-9.3 24.3c-2.7 4-5.6 7.9-9 11.3-4.7 4.8-9.9 9-15.8 12.3-4 2.3-8 4.5-12.4 6-2.6 0.9-5.2 1.3-7.8 1.8-2.8 0.5-5.6 0.9-8.4 1.4-2.4 0.5-4.6 1.5-6.8 2.3-2.7 1-5.3 2.2-7.8 3.4-6.2 2.9-11.4 7-16.4 11.5-1.6 1.4-3.2 2.7-4.9 4-2.3 1.8-4.5 3.9-6.8 5.8-7 5.5-13.2 11.8-19.8 17.9-5 4.7-9.9 9.5-15 14 0 0.5 0.5 0.6 0.7 0.8 2.4 1.6 5.1 2.6 7.6 3.9 4.1 2 8.2 4.1 12.4 5.9 1.9 0.8 3.8 1.5 5.8 2.2 4 1.4 7.9 3.3 11.6 5.4 3.4 1.9 6.1 4.7 8.5 7.8q3.6 4.7 5.8 10.2c1.8 4.5 3.6 9 4.8 13.7 0.7 2.7 1.3 5.3 2.3 7.9 0.8 2.4 1.3 4.9 1.6 7.4 0.2 3 1.1 5.9 1.7 8.9 0.3 2 0.7 4 1 5.9 0.2 1.1 0.2 2.3 0.1 3.5-0.1 1 0.1 1.9 0.5 2.9 3.4 7.2 6.4 14.6 9.4 22 1 2.4 1.7 4.9 1.9 7.5q0.1 1.2-0.1 2.5c-0.3 4-1.1 7.8-2.4 11.6-1.3 4-2.3 8-3.7 12-0.9 2.7-1.9 5.4-2.9 8.1q-0.5 1.2 0 2.4 0.9 2.2 2 4.3c1.7 3.5 3.5 7 5.4 10.4 1.3 2.5 1.5 5.2 1.2 8-0.3 3.1-1.3 6-2.5 8.8-1.8 4.4-3.8 8.8-6.6 12.7-3.2 4.6-6.5 9-10.6 12.7-3 2.8-6.5 3.9-10.4 4.4-5.6 0.7-11.2 0.8-16.7 1.1-8.6 0.4-17.1 0.2-25.6 0.6-4.1 0.2-8.2-0.1-12.4-0.1-6.6 0.1-13.1 0.5-19.7 0.9-0.2 0-0.5 0.2-0.6 0.2h-8.8c-1.7-0.3-3.3-0.3-5 0h-15.9c-0.5-0.2-1-0.2-1.5-0.2-4.3-0.5-8.7-0.5-13-0.6-2.5-0.1-4.9-0.3-7.3-0.5-0.8-0.1-1.6-0.3-2.2-0.6-5.3-2.8-10.8-5.1-16-8-2.9-1.6-6-3-8.8-4.9-0.5-0.3-1-0.5-1.4-0.9-0.9-0.9-2-1-3.2-1q-35.5-0.3-71-0.6c-7.1-0.1-14.3-0.2-21.4-0.3q-0.2 0-0.4 0 0 0-0.1 0 0 0-0.1 0-0.2 0-0.4 0c-7.1 0.1-14.3 0.2-21.4 0.3q-35.5 0.3-70.9 0.6c-1.2 0-2.4 0.1-3.3 1-0.3 0.4-0.9 0.6-1.3 0.9-2.9 1.9-5.9 3.3-8.8 4.9-5.2 2.9-10.8 5.2-16 8-0.7 0.3-1.5 0.5-2.2 0.6-2.4 0.3-4.9 0.4-7.3 0.5-4.3 0-8.7 0.1-13 0.6-0.5 0-1 0-1.5 0.2h-16c-1.6-0.3-3.3-0.3-4.9 0h-8.8c0 0-0.4-0.2-0.6-0.2-6.6-0.4-13.2-0.8-19.8-0.9-4.1 0-8.2 0.3-12.3 0.1-8.5-0.4-17.1-0.2-25.6-0.6-5.5-0.3-11.1-0.4-16.7-1.1-3.9-0.5-7.4-1.6-10.4-4.4-4.1-3.7-7.4-8.1-10.6-12.7-2.8-3.9-4.8-8.2-6.6-12.7-1.2-2.8-2.2-5.7-2.5-8.8-0.3-2.8-0.1-5.5 1.2-8 1.8-3.4 3.6-6.9 5.4-10.4 0.7-1.4 1.5-2.8 2-4.3q0.5-1.2 0-2.4c-1-2.7-2-5.4-2.9-8.1-1.4-4-2.4-8-3.7-12-1.3-3.8-2.1-7.6-2.5-11.6 0-0.8-0.1-1.7 0-2.5 0.2-2.6 0.9-5.1 1.9-7.5 2.9-7.4 6-14.8 9.3-22 0.4-1 0.7-1.9 0.6-2.9-0.1-1.2-0.1-2.4 0.1-3.5 0.3-2 0.6-4 1-5.9 0.6-3 1.5-5.9 1.7-8.9 0.3-2.5 0.8-5 1.6-7.4 1-2.6 1.6-5.2 2.3-7.9 1.2-4.7 3-9.2 4.8-13.7 1.4-3.6 3.4-7.1 5.8-10.2 2.4-3.1 5-5.9 8.4-7.8 3.8-2.1 7.7-4 11.7-5.4 2-0.7 3.9-1.4 5.8-2.2 4.2-1.9 8.3-3.9 12.4-5.9 2.5-1.2 5.2-2.3 7.6-3.9 0.2-0.2 0.6-0.3 0.7-0.8-5.1-4.6-10-9.3-15.1-14-6.5-6-12.7-12.4-19.7-17.9-2.4-1.9-4.5-3.9-6.8-5.8-1.7-1.3-3.3-2.6-4.9-4-5-4.5-10.3-8.6-16.4-11.5-2.6-1.2-5.1-2.4-7.8-3.4-2.2-0.8-4.5-1.8-6.9-2.3-2.8-0.5-5.5-1-8.3-1.4-2.7-0.5-5.2-0.9-7.8-1.8-4.4-1.5-8.4-3.7-12.4-6-5.9-3.3-11.1-7.5-15.8-12.3-3.4-3.4-6.3-7.3-9-11.3q-7.5-11.1-9.3-24.3c-0.4-2.7-0.4-5.4-0.7-8.1-0.3-3.1 0.1-6.2 0.6-9.2 0.5-2.8 1.6-5.3 2.4-7.9 0.6-1.7 1.4-3.3 1.5-5.1 0-0.4 0.2-0.6 0.6-0.7 0.3-0.1 0.6-0.3 0.9-0.5 0.8-0.6 1.7-0.6 2.6-0.3 0.9 0.3 1.7 0.8 2.4 1.3q1.8 1.3 3.3 2.7c3.6 3 7 6.2 10.6 9.2 4.5 3.7 8.9 7.5 13.1 11.6 3.6 3.4 6.9 7.1 11 10.1 3.4 2.5 6.6 5.1 10 7.7 1 0.7 2.1 0.9 3.3 0.5 1.9-0.6 3.7-1.4 5.5-2.4 1.2-0.7 2.4-1.7 2.9-3.1 0.7-1.8 0.9-3.7 0.4-5.6-0.6-2.5-1.5-4.9-3.4-6.8-0.5-0.5-0.8-1.1-1.3-1.6-1.2-1.6-2.6-3.1-4.1-4.4-3.6-2.9-7.1-5.8-10.9-8.4-1.6-1.1-3.2-2.2-4.8-3.4q-3.5-2.7-6.9-5.4c-1.9-1.4-3.8-2.6-5.6-4-3.5-2.8-7-5.6-10.5-8.5-1.5-1.2-2.7-2.7-3.6-4.4-0.9-1.5-0.8-3 0.3-4.3 0.4-0.4 0.7-0.9 1.2-1.2 2.4-1.8 5.1-3.3 8-4.1q0.9-0.3 1.8-0.6c2.5-0.9 5-1.5 7.5-2.1 0.9-0.2 1.8 0 2.6-0.4h1.9c0.5 0.3 1 0.3 1.5 0.3 4 0.3 7.9 0.6 11.7 1.6 4.6 1.2 9.1 2.7 13.3 4.7 5.1 2.5 9.8 5.7 14.4 9.1 4.9 3.6 9.9 7.1 14.4 11.2 3.6 3.3 7 6.9 9.4 11.2 2 3.5 3.7 7.1 4.9 10.9 1.6 4.9 3 9.7 4 14.8 0.6 2.9 1.5 5.9 3.3 8.5 3.3 4.5 7.1 8.7 11.4 12.3 6.4 5.5 12.8 10.9 19.4 16.1 5.6 4.5 11.2 9.1 16.6 13.8 2.8 2.3 5.6 4.5 8.4 6.9 1.7 1.4 3.4 2.8 4.3 4.9 0.2 0.4 0.7 0.6 1 0.9 0.3 0.3 0.5 0.1 0.7-0.1q0.2-0.3 0.4-0.5c2.8-4.1 5.6-8.2 8.5-12.2 2.9-3.9 5.9-7.6 9.4-10.9 1.4-1.4 2.9-2.9 4.3-4.3 4.3-4.2 8.6-8.3 13.7-11.5 4.9-3 10.1-5 15.5-6.5 4.1-1.1 8.4-1.5 12.5-2.5 4.4-1 8.8-1.5 13.1-2.1 6.7-0.8 13.5-0.8 20.2-1q5.7-0.1 11.4-0.3c5.9-0.1 11.7-0.1 17.6-0.1 7.2 0 14.5 0 21.7 0.1 18.2 0.2 36.5-0.1 54.7-0.1 5.9 0 11.8 0 17.6 0.1q5.7 0.2 11.4 0.3c6.7 0.2 13.5 0.2 20.2 1 4.4 0.6 8.8 1.1 13.1 2.1 4.2 1 8.4 1.4 12.5 2.5 5.5 1.5 10.6 3.5 15.5 6.5 5.2 3.2 9.5 7.3 13.8 11.5 1.4 1.4 2.8 2.9 4.2 4.3 3.6 3.3 6.5 7 9.4 10.9 2.9 4 5.7 8.1 8.5 12.2q0.2 0.2 0.4 0.5c0.2 0.3 0.4 0.4 0.7 0.1 0.4-0.2 0.8-0.5 1-0.9 0.9-2.1 2.7-3.5 4.3-4.9 2.8-2.4 5.7-4.5 8.4-6.9 5.5-4.7 11-9.3 16.6-13.8 6.6-5.2 13-10.7 19.5-16.1 4.2-3.6 8-7.8 11.3-12.3 1.8-2.6 2.8-5.5 3.3-8.5 1-5.1 2.4-9.9 4-14.8 1.2-3.8 2.9-7.4 4.9-10.9 2.4-4.3 5.8-7.8 9.4-11.2 4.6-4.1 9.5-7.6 14.4-11.2 4.6-3.4 9.2-6.7 14.4-9.1 4.3-2 8.7-3.5 13.3-4.7 3.9-1 7.8-1.3 11.7-1.6 0.5 0 1 0 1.5-0.3h1.9c0.8 0.4 1.7 0.2 2.6 0.4q3.7 0.7 7.5 2.1 0.9 0.3 1.8 0.6c3 0.8 5.6 2.3 8 4.1 0.5 0.3 0.8 0.8 1.2 1.2 1.1 1.3 1.2 2.8 0.4 4.3-1 1.7-2.3 3.2-3.7 4.4q-5.2 4.3-10.5 8.5c-1.8 1.4-3.7 2.6-5.5 4-2.4 1.8-4.7 3.6-7 5.4-1.6 1.2-3.1 2.3-4.8 3.4-3.8 2.6-7.3 5.5-10.8 8.4-1.6 1.3-2.9 2.8-4.2 4.4-0.5 0.5-0.8 1.1-1.3 1.6-1.9 1.9-2.8 4.3-3.4 6.8-0.5 1.9-0.2 3.8 0.4 5.6 0.5 1.4 1.7 2.4 2.9 3.1 1.8 1 3.6 1.8 5.6 2.4 1.2 0.4 2.2 0.3 3.2-0.5 3.3-2.6 6.6-5.2 10-7.7 4.1-3 7.5-6.7 11-10.1 4.2-4 8.6-7.9 13.1-11.6 3.6-3 7-6.1 10.6-9.2 1.1-0.9 2.1-1.8 3.3-2.7 0.7-0.6 1.5-1 2.4-1.3 0.9-0.3 1.8-0.3 2.6 0.3 0.3 0.2 0.6 0.4 1 0.5q0.5 0.1 0.5 0.7c0.1 1.8 1 3.4 1.5 5.1 0.9 2.6 1.9 5.1 2.4 7.9 0.5 3 0.9 6.1 0.6 9.2zm-564.8 88.1c0.4-0.1 0.8-0.1 1.2-0.1 0.5 0 1 0 1.5-0.3 0-0.2-0.2-0.3-0.3-0.4-2-1.7-3.9-3.4-5.9-4.9-2.5-1.8-4.9-3.8-7.3-5.7-3.6-2.8-7.1-5.7-10.7-8.5-3.3-2.4-6.4-5.2-9.3-8.1-1.1-1.1-2.2-2.3-3-3.7-0.9-1.4-1.8-2.7-2.6-4.2-1.5-2.8-2.4-5.8-2.3-9 0-2.8 2.3-6.8 6.1-7.2q1.9-0.2 3.8-0.4c3.1-0.4 6 0 8.7 1.7 4.2 2.5 8 5.4 11.6 8.6 3.6 3.2 7.3 6.5 11 9.7 4.7 3.9 9.6 7.7 14.3 11.6 2.7 2.2 5.2 4.6 8 6.7 4.2 3.2 8.1 6.8 12.3 9.9 2.2 1.7 4.3 3.7 6.5 5.6 0.2-0.2 0.4-0.3 0.5-0.5 1.6-2.4 3.3-4.9 4.9-7.4 0.4-0.6 0.3-0.8-0.2-1.2-1.3-1.1-2.7-2-4-3.2-2.6-2.4-5.5-4.6-8.4-6.9-4.4-3.5-9-7-13.6-10.4-3.9-2.8-7.6-6.1-11.4-9.2-3.8-3.1-7.5-6.2-11.3-9.3-5.3-4.4-10.3-9.2-14.4-14.9-2.2-2.9-3.9-6.2-4.7-9.8-0.4-1.5-0.7-3.1-1-4.7-1.5-6.2-3.1-12.4-5.8-18.3-1.7-3.8-4.1-7.2-7-10.2-1.9-2.1-4.1-4-6.3-5.8-4.3-3.6-9.1-6.9-13.7-10.3-5.1-3.7-10.6-6.4-16.5-8.5-5.1-1.8-10.3-2.6-15.6-3-2.4-0.2-4.7 0.1-7.1 0.8-2.3 0.6-4.6 1.5-7 2-1 0.1-1.8 0.7-2.9 1.4 0.4 0.2 0.6 0.3 0.8 0.5 3.2 2.5 6.3 5.3 9.6 7.7 3.5 2.7 7.2 5.3 10.6 8.1 2.4 1.8 4.7 3.7 7.2 5.4 3.8 2.4 7.2 5.4 10.7 8.2 2.8 2.3 5.1 5 7.4 7.8 3.3 4.2 5 8.8 4.8 14.1-0.3 5.1-2.6 9-7 11.5-2.4 1.4-5 2.4-7.6 3.2-3.4 0.9-6.4 0.3-9.2-1.7-5-3.6-9.7-7.4-14.4-11.3-2.8-2.3-5.4-4.6-8.2-6.9-2.9-2.4-5.8-5-8.6-7.7-4.8-4.9-9.5-9.9-14.3-14.9-0.2-0.2-0.3-0.5-0.8-0.5 0 2.6-0.6 5-1.2 7.5-0.3 1.7-0.2 3.4-0.1 5.1 0.2 2.8 0.7 5.4 1.3 8.2 1.1 5.3 2.6 10.4 5 15.3 0.4 0.8 0.8 1.6 1.4 2.4 0.3-0.4 0.1-0.8 0-1.1-0.5-2.1-1-4.1-1.4-6.2-0.4-3.1-0.9-6.2-0.4-9.4 0.1-0.5 0.2-1 0.4-1.5 0.1-0.2 0.2-0.4 0.5-0.4 0.3 0 0.4 0.2 0.5 0.4 0.1 0.5 0.2 1 0.3 1.4 0.5 3.9 1.3 7.7 2.4 11.5 0.8 3 1.5 5.9 2.6 8.8 0.4 0.8 0.6 1.7-0.2 2.4-0.5 0.4-0.4 0.6 0 1q0.9 1.1 1.9 2.3c2.8 3.5 5.9 6.8 9.4 9.6 1.5 1.2 3.1 2.4 4.6 3.5 3.8 2.9 8.1 5.1 12.3 7.1 0.5 0.3 1 0.4 1.4 0.6 3.6 1.3 7.3 1.7 11 2.4 4.3 0.8 8.7 1.4 12.8 3.1q3.6 1.6 7.3 3.1 3.8 1.6 7.3 3.8c2.7 1.6 5.3 3.6 7.7 5.7 3.2 2.7 6.2 5.4 9.4 8 3.9 3.2 7.9 6.3 11.6 9.8 3 2.8 6.2 5.5 9.3 8.2 0.3 0.2 0.5 0.6 1.1 0.6-0.4-1.7-0.8-3.2-0.8-4.9 0-2.3 1.1-3.5 3.4-3.9zm-54.5-116.1c-1.9-0.7-3.9-1.5-5.9-2.1-4.4-1.4-8.8-2.4-13.4-3.1-0.5-0.1-1-0.3-1.6-0.4-0.2 0-0.4-0.2-0.4-0.5 0-0.3 0.3-0.4 0.5-0.4 1.3-0.3 2.5-0.6 3.8-0.6q0.7 0 1.3 0c4 0.1 7.8 0.8 11.6 2.1q2.4 0.8 4.9 1.7c0.8 0.3 1.6 0.7 2.2 1.4 0.5 0.5 0.8 1.1 0.5 1.7-0.3 0.7-1 0.7-1.7 0.7-0.6 0-1.2-0.2-1.8-0.5zm-23.8 72.1c0.4 0.4 0.8 0.9 1 1.4q0.6 1.2-0.6 1.5c-0.7 0.3-1.4 0.1-2-0.3-0.8-0.5-1.3-1.1-1.8-1.7-2.4-2.8-4-6-5.5-9.3-1.1-2.5-2-5-2.4-7.7 0-0.3-0.1-0.6-0.1-0.9 0.1-0.3 0-0.6 0.4-0.8 0.4-0.1 0.6 0.2 0.8 0.4 0.3 0.5 0.6 1 0.9 1.6 1.8 3.6 3.8 7.1 5.8 10.7 1 1.8 2.3 3.4 3.6 5zm12.3 5c0.4 0.5 1 1 0.6 1.6-0.4 0.7-1.1 1-1.7 0.9-1.1 0-1.9-0.4-2.6-1-3.8-3.6-6.7-7.6-8.5-12.5-0.1-0.2-0.2-0.4-0.2-0.5 0-0.4-0.1-0.9 0.4-1.1 0.4-0.2 0.8-0.1 1.1 0.2 0.7 0.5 1.2 1.1 1.8 1.7q3.3 4 6.6 7.9c0.6 0.7 1.2 1.3 1.8 1.9 0.2 0.3 0.6 0.6 0.7 0.9zm-24.8-11.9c0.5 0.6 0.9 1.3 1.1 2 0.2 0.8-0.2 1.1-1 1.1-0.8 0-1.4-0.4-1.9-0.9-0.8-0.7-1.5-1.6-2.2-2.5-3.6-5.3-5.5-11.1-6.4-17.4q0-0.4 0-0.8c0-0.2 0.1-0.3 0.1-0.7 0.9 0.2 1 0.9 1.3 1.4 0.9 2.1 1.8 4.2 2.7 6.4 1.6 4.1 3.6 7.9 6.3 11.4zm44.9-56.3c-4.3-1.9-8.8-3.6-13.4-4.6-0.6-0.1-1.2-0.3-1.7-0.6-0.4-0.1-0.8-0.4-0.6-0.9q0.1-0.6 0.9-0.6 1 0 2 0c4.3 0.1 8.3 1.4 12.2 3 0.9 0.3 1.7 0.6 2.5 1.1 0.4 0.2 0.8 0.5 1.1 0.8 0.4 0.5 0.5 1.1 0.3 1.7-0.3 0.6-0.9 0.6-1.4 0.6-0.7 0-1.3-0.2-1.9-0.5zm6.3 8.2q-5.9-3-12-5.4-0.6-0.3-1.2-0.7c-0.4-0.1-0.7-0.4-0.6-0.8 0.1-0.6 0.6-0.6 1-0.7q0.4 0 0.6 0c2.9 0.2 5.5 1 8 2.1 1.8 0.7 3.5 1.4 5.2 2.4 1.1 0.6 2 1.4 2.5 2.6 0.4 0.8 0.1 1.1-0.7 1.1-1 0-1.9-0.2-2.8-0.6zm6.6 10.4c-2.5-1.9-5.3-3.4-8-5-0.9-0.4-1.7-1-2.4-1.5-0.4-0.3-0.7-0.6-0.5-1.1 0.2-0.5 0.6-0.5 1.4-0.5 0.6 0.1 1.4 0.2 2.1 0.5 3.3 1 6.1 2.6 8.9 4.6 1.1 0.8 1.9 1.8 2.2 3.2 0.3 0.8-0.1 1.2-0.9 1-1-0.3-2-0.6-2.8-1.2zm-22 54.3c0.1 0.1 0.1 0.3 0.1 0.4 0 0.5-0.5 0.8-1 0.5-1-0.5-2.1-1.1-2.9-2q-1.8-1.8-3.3-3.9c-0.7-0.9-1.3-1.7-1.9-2.6-0.3-0.6-0.6-1.2-0.9-1.7-0.2-0.8-0.1-1.4 0.4-1.6 0.6-0.3 1 0.1 1.4 0.5 0.3 0.4 0.6 0.9 1 1.3 1.4 2.1 3.1 3.9 4.7 5.8 0.9 1.1 1.5 2.2 2.4 3.3zm475.3 78.1c-1.6-0.9-3-2-4.3-3.3q-2.6-2.5-5.1-5.1c-0.5-0.5-0.7-0.6-1.4-0.3q-3.4 1.3-6.3 3.8c-2.6 2.2-5.6 3.8-8.5 5.8-2.6 1.8-5.1 3.6-7.4 5.8-2.4 2.2-5 4-7.2 6.3-4.1 4.3-8.3 8.4-12.3 12.6-2.6 2.8-4.9 5.9-7.2 8.9q-1.3 1.7-2.7 3.3c-2.7 3.1-4.7 6.6-6.7 10.2-0.3 0.5-0.6 1.1-1 1.5-0.2 0.2-0.4 0.4-0.7 0.2-0.3-0.1-0.3-0.4-0.3-0.7 0.3-2 0.7-4 1.6-5.8 1.7-3.2 3.3-6.4 5.5-9.4q0.5-0.6 0.9-1.3c1.7-3.4 4.1-6.5 6.3-9.5 0.3-0.4 0.6-0.8 1-1.2 4.2-4.7 8.3-9.6 12.9-14 4.5-4.3 9-8.6 14.2-12.1 1.5-1.1 3-2.3 4.6-3.3 1.2-0.8 2.3-1.8 3.2-2.9-0.1-0.5-0.5-0.4-0.8-0.5-3.2-0.8-6.5-1.1-9.9-1.6-4.1-0.6-8.3-1.2-12.5-1.8-3.1-0.5-6.2-0.6-9.4-0.9-6.1-0.7-12.2-1.3-18.3-1.9-2.6-0.3-5.3-0.4-7.9-0.5-8.2-0.6-16.4-1.1-24.7-1.5-4.6-0.1-9.3-0.3-14-0.8-2.4-0.3-4.8-0.5-7.2-0.7-1.2-0.1-1.9 0.2-2.6 1.2-5.2 7.1-9.8 14.6-13.9 22.3-2.2 4.1-4.6 8.2-6.8 12.4-0.9 2-0.9 2 0.9 3.3q3.7 2.7 7.3 5.3c3 2.1 6.1 4 9.1 6 2.1 1.4 4.2 2.9 6.1 4.6q0.5 0.5 1 1c0.2 0.3 0.3 0.7 0.1 1-0.3 0.3-0.6 0.3-0.9 0.2-0.4-0.1-0.8-0.2-1.1-0.4-4-1.8-7.7-4-11.5-6.1q-6.3-3.5-12.1-7.6c-1-0.7-2.2-1.1-3.1-1.9-0.2-0.2-0.6-0.2-0.9-0.2-8 0.6-16 0.3-24 0.3-7.6 0-15.1 0-22.7 0q-0.8 0-1.5 0c-0.5 0-0.9 0-1.4 0q-11.3 0-22.7 0c-8 0-16 0.2-24-0.3-0.4 0-0.7 0-0.9 0.2-1 0.8-2.1 1.2-3.1 1.9-3.9 2.7-7.9 5.3-12.1 7.6-3.8 2.1-7.5 4.4-11.5 6.1-0.3 0.2-0.7 0.3-1.1 0.4-0.3 0.1-0.7 0.1-0.9-0.2-0.2-0.3-0.1-0.7 0.1-1q0.4-0.5 1-1c1.8-1.7 4-3.2 6.1-4.6 3.1-2 6.1-3.9 9-6q3.8-2.6 7.4-5.3c1.8-1.4 1.8-1.3 0.8-3.3-2.1-4.2-4.5-8.3-6.7-12.4-4.2-7.7-8.7-15.2-13.9-22.3-0.7-1-1.4-1.2-2.6-1.2q-3.7 0.3-7.2 0.7c-4.7 0.5-9.4 0.7-14 0.8-8.3 0.4-16.5 0.9-24.7 1.5-2.7 0.1-5.3 0.2-7.9 0.5-6.2 0.6-12.3 1.2-18.3 1.9-3.2 0.3-6.3 0.4-9.5 0.9q-6.2 0.9-12.5 1.8c-3.3 0.5-6.6 0.8-9.8 1.6-0.3 0.1-0.7 0-0.8 0.5 0.9 1.1 2 2.1 3.2 2.9 1.6 1 3 2.2 4.6 3.3 5.2 3.5 9.7 7.8 14.2 12.1 4.6 4.4 8.7 9.3 12.9 14q0.5 0.6 1 1.2c2.2 3 4.6 6.1 6.3 9.5 0.2 0.5 0.6 0.9 0.9 1.3 2.1 3 3.8 6.2 5.4 9.4 1 1.8 1.4 3.8 1.7 5.8 0 0.3 0 0.6-0.3 0.7-0.3 0.1-0.5 0-0.7-0.2-0.4-0.4-0.7-1-1-1.5-2-3.6-4-7.1-6.7-10.2-0.9-1.1-1.9-2.1-2.7-3.3-2.3-3-4.6-6.1-7.2-8.9q-6-6.3-12.3-12.6c-2.2-2.3-4.8-4.1-7.2-6.3-2.3-2.2-4.8-4-7.4-5.8-2.8-2-5.9-3.6-8.6-5.8q-2.8-2.5-6.2-3.8c-0.7-0.3-1-0.2-1.4 0.3q-2.6 2.6-5.1 5.1-1.9 1.9-4.3 3.3c-3 1.8-6.2 3.3-9.4 4.8-0.9 0.4-1.9 0.7-2.4 1.2q1.9 2.1 3.8 4.2c2.2 2.4 4.5 4.5 7 6.5 4.6 3.8 9.4 7.1 14.3 10.2 3.6 2.2 7.2 4.4 11.1 6.1 10.3 4.5 20.6 8.8 30.7 13.6 2 1 3.6 2.3 4.4 4.4 0.6 1.4 1.1 2.8 1.4 4.3 1.2 5.6 2 11.2 2.8 16.9 0.2 2.1-0.3 3.7-2 4.9q-3.8 2.8-6.6 6.6c-0.3 0.5-0.8 1-1.3 1.4-1.3 1.3-2.8 1.7-4.6 1.3-2.2-0.6-4.5-1.2-6.7-2.1-3.8-1.5-7.5-3-11.3-4.4-1.5-0.5-3-1.2-4.5-1.9-6.3-2.8-12.5-5.8-18.9-8.4q-1.2-0.5-2.3-1.1-2.5-1.3-5.3-2.1c-4.7-1.6-9.2-3.5-13.4-6.1-4.5-2.8-8.1-6.4-10.5-11.2-1.6-3.4-2.5-7-3.1-10.6-0.5-2.9-0.8-5.9-0.4-8.8 0.5-3.7 1.4-7.3 2.4-10.8 0.8-2.6 1.4-5.2 2.4-8.1-2.4 1.1-4.8 1.5-6.9 2.5q-3.8 1.7-7.5 3.5c-1 0.5-2 1-2.9 1.8-2.8 2.5-4.8 5.6-6.9 8.7-0.4 0.5-0.5 1-0.4 1.6 0.2 1.7 0.4 3.4 0.4 5.1 0 6.2 2.3 11.6 5.7 16.5 2.5 3.7 5.1 7.3 8.4 10.3 1.2 1.2 2.1 2.6 2.9 4.1 0.1 0.3 0.4 0.6 0.1 1-0.3 0.3-0.7 0.2-1 0-0.5-0.2-1-0.6-1.5-1-3.4-2.8-6.8-5.5-9.6-9-0.4-0.5-1-1-1.4-1.5-2-2.1-3.7-4.4-5.2-6.9q-2.1-3.5-3.1-7.5c-0.1-0.2 0-0.6-0.5-0.7-0.2 0.3-0.3 0.7-0.5 1.1-1.3 3.2-1.7 6.7-3.2 9.8-0.1 0.3-0.1 0.6-0.1 0.9-1.6 7.8-2.6 15.7-4 23.5-0.7 3.5-1.4 7.2-2.9 10.5-2.2 5.1-4.2 10.2-6.4 15.3-0.6 1.5-0.6 1.5 0.9 2.4 0.4 0.3 0.9 0.6 1.4 0.9 2.4 1.4 4.9 2.8 7.3 4.3 1.5 0.9 1.2 1 2.1-0.7 4.5-8.5 8.4-17.3 11.7-26.3 0.5-1.3 0.9-2.6 1.4-3.9 1.1-3.2 4.1-4.6 7.3-3.5q2.7 0.8 4.8 2.9c0.7 0.8 1.6 1.5 2.4 2.2 3 2.7 6.5 4.8 10.1 6.7 8.1 4.5 15.6 9.8 23.4 14.9 4.6 2.9 9.1 6 13.7 8.9 3.1 2.1 6.3 4.1 8.9 6.9 1.8 1.8 2.3 3.8 1.3 6.3-2.6 6.6-5.1 13.3-7.6 20-2.3 6-4.2 12.2-5.7 18.5-0.8 3.6-1.4 7.3-2.6 10.8-0.4 1.4-0.8 2.8-1 4.3-0.5 2.6-1.9 3.8-4.6 3.8-1.3 0-2.6 0-3.9 0.1-7.3 0.7-14.6 1.1-21.9 1.6-2.5 0.2-5 0-7.6 0.2-2.1 0.2-3.9-0.5-5.4-2-1-1-2-2-3-3.1-4.3-4.5-9-8.8-13.4-13.2-0.5-0.5-1-1.1-1.3-1.8-0.2-0.7-0.7-1.1-1.2-1.5-3.4-2.9-6.7-5.8-9.6-9.1-0.5-0.5-0.9-1-1.5-1.6-1.1 2.6-2.3 5-3.5 7.4q-0.1 0.4 0 0.7c0.8 1 1.2 2.2 2 3.2 3.2 4 6.3 8.1 10 11.5 3.1 2.9 6.1 5.9 9.8 7.9 0.5 0.3 1 0.6 1.4 0.9 4.6 3 9.6 4.9 15.2 4.9 3 0 6 0.1 9.1 0.1 5.8-0.2 11.7-0.4 17.5-0.6 2.5-0.1 4.9 0.2 7.3 0.1 4.5-0.2 9.1-0.5 13.6-0.4 0.5 0 0.8-0.2 1-0.7 1.3-3.8 3-7.4 4.5-11.1 1.4-3.6 2.9-7.3 4.4-10.9 2.2-5.3 4.5-10.5 6.4-15.8 2-6 4.2-11.9 6.7-17.6 1.1-2.5 2.1-5 2.8-7.7 0.3-1.5 0.3-1.6-1-2.2q-0.6-0.3-1.2-0.6c-2.6-1.1-5.1-2.6-7.5-4.3-4.3-2.9-8.6-5.7-13.1-8.3-4.3-2.5-8.1-5.7-12.1-8.6-0.2-0.2-0.5-0.5-0.7-0.8-0.2-0.2-0.6-0.4-0.3-0.8 0.3-0.1 0.7 0 1 0 2.3 0.8 4.5 1.6 6.5 3 1.2 0.9 2.5 1.9 3.9 2.6 4.5 2.4 8.8 5.2 13.2 7.8 3.6 2.1 7 4.6 10.9 6.2 0.6 0.3 1.3 0.6 1.9 1 0.4 0.3 0.7 0.3 1.1 0 3.8-2.7 8.2-4.5 12.3-6.7 0.3-0.1 0.7-0.1 1-0.6-2.3-0.8-4.4-1.8-6.6-2.6-4.4-1.4-8.7-3.3-13-4.9-6.1-2.2-12-4.8-18.1-7.3-3.4-1.4-6.9-3-10.6-3.8-3.3-0.7-6.6-1.7-9.7-3.3-2.5-1.3-5.1-2.4-7.6-3.7-1.2-0.7-2.3-1.4-3.2-2.4-0.4-0.5-1-1.2-0.7-1.8 0.3-0.7 1.2-0.4 1.9-0.4q0.4 0 0.9 0.1 3.8 0.9 7.6 1.8c2.7 0.6 5.2 1.7 8 2.1 6.9 1.1 13.4 3.3 19.9 5.8 7.2 2.8 14.5 5.5 21.8 8.2 0.5 0.2 0.9 0.3 1.3-0.2 3.2-3.2 6.4-6.3 9.5-9.6q10.1-10.9 20.6-21.3c6.9-6.9 13.5-14 20.8-20.4 0.5-0.4 0.6-0.7 0.1-1.2-1.9-2.7-3.8-5.6-5.7-8.2-4.4-5.9-9.5-11.3-14.3-16.8-3.4-4-7.2-7.6-10.9-11.4-2.9-2.8-6-5.7-8.9-8.6-0.5-0.4-0.9-0.9-1.3-1.4-0.8-1.1-0.3-1.5 0.5-2.1 0.4-0.3 0.8-0.2 1.2 0 4.3 0.9 7.9 3.1 11.2 5.8 1.9 1.5 3.7 3 5.6 4.5 3.2 2.8 6.6 5.2 9.3 8.5 2.8 3.4 5.9 6.4 8.8 9.7 4.6 5.1 8.9 10.6 13.2 16 0.3 0.5 0.7 0.9 0.8 1.4 0.1 0.6 0.4 0.8 0.9 0.8q0.4 0 0.7 0c12.4 0 24.7 0.1 37.1 0.1q11.6 0 23.2 0c7.9 0 15.7 0.2 23.5 0.3 0.9 0 1.7 0.1 2.6 0.2 0.8-0.1 1.6-0.2 2.5-0.2 7.8-0.2 15.7-0.3 23.5-0.3q11.6 0 23.2 0c12.4 0 24.8-0.1 37.1-0.1q0.4 0 0.7 0c0.5 0 0.9-0.1 1-0.8 0.1-0.5 0.4-1 0.8-1.4 4.2-5.4 8.5-10.8 13.1-16 2.9-3.3 6-6.4 8.8-9.7 2.7-3.3 6.2-5.7 9.4-8.5 1.8-1.5 3.6-3 5.5-4.5 3.3-2.7 7-4.9 11.2-5.8 0.4-0.1 0.9-0.3 1.2 0 0.9 0.7 1.3 1 0.5 2.1-0.4 0.5-0.8 1-1.3 1.4-2.9 2.9-5.9 5.7-8.8 8.6-3.8 3.8-7.6 7.4-11 11.4-4.8 5.6-9.8 10.9-14.2 16.8-2 2.6-3.9 5.5-5.8 8.2-0.4 0.5-0.3 0.8 0.1 1.2 7.3 6.4 14 13.5 20.8 20.4q10.6 10.4 20.7 21.3c3 3.3 6.3 6.4 9.4 9.6 0.5 0.5 0.8 0.4 1.3 0.2 7.3-2.7 14.6-5.4 21.9-8.2 6.4-2.5 13-4.7 19.8-5.8 2.8-0.4 5.3-1.5 8-2.1q3.8-0.9 7.6-1.8c0.3 0 0.7 0 1-0.1 0.7-0.1 1.5-0.4 1.8 0.4 0.3 0.6-0.3 1.2-0.7 1.8-0.9 1-2 1.7-3.2 2.4-2.5 1.3-5.1 2.4-7.6 3.7-3.1 1.6-6.4 2.6-9.7 3.3-3.7 0.8-7.1 2.4-10.6 3.8-6 2.5-12 5.1-18 7.3-4.4 1.7-8.6 3.5-13 4.9-2.2 0.8-4.3 1.8-6.6 2.6 0.2 0.5 0.6 0.5 1 0.6 4.1 2.2 8.4 4 12.3 6.7 0.4 0.3 0.7 0.3 1.1 0 0.6-0.4 1.2-0.7 1.9-1 3.9-1.6 7.3-4.1 10.8-6.2 4.4-2.6 8.7-5.4 13.3-7.8 1.4-0.7 2.6-1.7 3.9-2.6 1.9-1.4 4.2-2.2 6.4-3 0.4-0.1 0.8-0.1 1.1 0 0.2 0.5-0.1 0.6-0.3 0.8-0.2 0.3-0.5 0.6-0.8 0.8-3.9 2.9-7.7 6.1-12 8.6-4.5 2.6-8.9 5.4-13.2 8.3-2.4 1.6-4.8 3.1-7.5 4.3-0.3 0.2-0.7 0.4-1.1 0.6-1.3 0.6-1.4 0.8-1 2.2 0.7 2.7 1.6 5.2 2.8 7.7 2.5 5.8 4.6 11.7 6.7 17.6 1.9 5.3 4.2 10.5 6.4 15.8 1.4 3.6 2.9 7.3 4.4 10.9 1.4 3.7 3.2 7.3 4.5 11.1 0.2 0.5 0.5 0.7 1 0.7 4.5-0.1 9 0.2 13.6 0.4 2.4 0.1 4.8-0.2 7.2-0.1 5.9 0.2 11.8 0.4 17.6 0.6 3.1 0.1 6-0.1 9.1-0.1 5.6 0 10.5-1.9 15.2-4.9 0.4-0.3 0.9-0.7 1.4-0.9 3.7-2 6.7-5 9.8-7.9 3.7-3.4 6.8-7.5 9.9-11.5 0.9-1 1.3-2.2 2.1-3.2q0.2-0.3 0-0.7c-1.2-2.4-2.4-4.8-3.5-7.4-0.6 0.6-1 1.1-1.5 1.6-2.9 3.3-6.2 6.2-9.6 9.1-0.5 0.4-1 0.8-1.3 1.5-0.2 0.8-0.7 1.3-1.2 1.8-4.5 4.4-9.1 8.7-13.4 13.2-1 1.1-2 2.1-3 3.1-1.5 1.5-3.2 2.2-5.5 2-2.5-0.2-5 0-7.5-0.2-7.3-0.5-14.7-0.9-21.9-1.6-1.3-0.1-2.6-0.1-3.9-0.1-2.7 0-4.2-1.2-4.6-3.8-0.2-1.5-0.6-2.9-1.1-4.3-1.1-3.5-1.7-7.2-2.5-10.8-1.5-6.3-3.4-12.5-5.7-18.5-2.5-6.7-5-13.4-7.7-20-0.9-2.5-0.4-4.5 1.4-6.3 2.6-2.8 5.8-4.8 8.9-6.9 4.5-2.9 9.1-6 13.7-8.9 7.7-5 15.3-10.4 23.4-14.9 3.5-1.9 7-4 10.1-6.7q1.2-1.1 2.4-2.2c1.4-1.4 2.9-2.4 4.8-2.9 3.1-1.1 6.1 0.4 7.3 3.5 0.4 1.3 0.9 2.6 1.4 3.9 3.2 9 7.2 17.8 11.7 26.3 0.8 1.7 0.5 1.6 2.1 0.7q3.6-2.3 7.3-4.3c0.5-0.3 1-0.6 1.4-0.9 1.5-0.9 1.5-0.9 0.8-2.4-2.1-5.1-4.1-10.2-6.3-15.3-1.5-3.3-2.2-6.9-2.9-10.5-1.5-7.8-2.4-15.7-4-23.5 0-0.3 0-0.6-0.2-0.9-1.5-3.1-1.8-6.6-3.1-9.8-0.2-0.4-0.4-0.8-0.5-1.1-0.5 0.1-0.4 0.5-0.5 0.7-0.7 2.7-1.8 5.2-3.2 7.5q-2.3 3.7-5.1 6.9c-0.5 0.5-1 1-1.4 1.5-2.8 3.5-6.2 6.2-9.6 9q-0.7 0.6-1.5 1c-0.3 0.2-0.7 0.3-1 0-0.3-0.4-0.1-0.7 0.1-1 0.7-1.4 1.7-2.9 2.9-4.1 3.3-3.1 5.9-6.7 8.4-10.3 3.4-4.9 5.6-10.4 5.7-16.5 0-1.7 0.2-3.4 0.4-5.1 0.1-0.6 0-1.1-0.4-1.6-2.1-3.1-4.1-6.2-6.9-8.7-0.9-0.8-1.9-1.3-2.9-1.8q-3.8-1.8-7.5-3.5c-2.2-1-4.5-1.4-7-2.5 1.1 2.9 1.7 5.5 2.4 8.1 1.1 3.6 2 7.1 2.5 10.8 0.3 3 0.1 5.9-0.4 8.8-0.6 3.6-1.5 7.2-3.2 10.6-2.3 4.8-5.9 8.4-10.4 11.2-4.3 2.6-8.8 4.6-13.5 6.1q-2.6 0.8-5.2 2.1c-0.8 0.4-1.6 0.8-2.3 1.1-6.5 2.6-12.7 5.6-19 8.4-1.4 0.7-2.9 1.4-4.4 1.9-3.9 1.4-7.6 2.9-11.4 4.4-2.1 0.9-4.4 1.4-6.7 2.1-1.7 0.4-3.2 0-4.6-1.3-0.4-0.4-0.9-0.9-1.3-1.4-1.8-2.5-4-4.7-6.5-6.6-1.7-1.2-2.3-2.8-2-4.9 0.7-5.7 1.6-11.3 2.8-16.9 0.3-1.5 0.8-2.9 1.3-4.3 0.9-2.1 2.4-3.4 4.4-4.4 10.2-4.8 20.5-9.1 30.8-13.6 3.9-1.7 7.5-3.9 11-6.1 5-3.1 9.8-6.4 14.3-10.2q3.8-3 7.1-6.5 1.9-2.1 3.8-4.2c-0.6-0.5-1.6-0.8-2.4-1.2-3.2-1.5-6.4-3-9.4-4.8zm-375.4-31.9c-1.9 3.1-3.6 6.2-5.7 9.2-0.2 0.2-0.6 0.5-0.3 1q5.5-0.6 11-1.2c0.4 0 0.6-0.2 0.8-0.6 0.6-1.2 1.3-2.4 1.9-3.7 2.5-5.3 5.6-10.4 8.9-15.3 4.2-6.3 8.8-12.4 13.2-18.5 5.7-7.9 11.9-15.3 19.7-21.1l0.1-0.1c2.3-2.1 4.8-3.7 7.3-5.3q2.6-1.7 5.6-2.3c2-0.5 4-0.9 6-1.3 2.9-0.6 5.8-0.7 8.6-1.2 4.7-0.9 9.5-1.2 14.3-1.6 2.4-0.2 4.9-0.1 7.4-0.5 2.4-0.5 4.8-0.7 7.2-0.8 6.2-0.5 12.5-0.2 18.7-0.6 3.6-0.2 7.1-0.2 10.7-0.3 4.8-0.3 9.7-0.6 14.5-0.4 2.8 0.1 5.6 0.1 8.4 0.2q0.9 0 1.9 0c3.9 0.1 7.9 0.4 11.8 0.2 0.1 0 0.5 0 1 0 0.5 0 0.8 0 1 0 3.9 0.2 7.9 0 11.8-0.2q1 0 1.9 0c2.8 0 5.6-0.1 8.4-0.2 4.8-0.2 9.7 0.1 14.5 0.4 3.6 0.2 7.2 0.1 10.7 0.3 6.2 0.4 12.5 0.1 18.7 0.6 2.4 0.1 4.8 0.3 7.2 0.8 2.5 0.4 5 0.3 7.4 0.5 4.8 0.4 9.6 0.7 14.3 1.6 2.8 0.5 5.8 0.6 8.6 1.2 2 0.4 4 0.8 6 1.3q3 0.6 5.6 2.3c2.5 1.6 5 3.2 7.3 5.3 0 0 0.1 0 0.1 0.1 7.8 5.8 14 13.2 19.7 21.1 4.5 6.1 9 12.2 13.2 18.5 3.3 4.9 6.4 10 9 15.3 0.5 1.3 1.2 2.5 1.8 3.7 0.2 0.4 0.4 0.6 0.8 0.6q5.5 0.7 11 1.2c0.3-0.5-0.1-0.8-0.3-1-2.1-3-3.9-6.1-5.7-9.2-3.5-5.5-7.2-10.8-10.9-16.2q-4.4-6.3-8.7-12.6c-3.7-5.3-7.6-10.4-12.3-14.9-3.2-3.1-6.3-6.4-9.7-9.3-6.1-5.3-13-9.3-21-11.1-6.1-1.3-12.2-2.4-18.3-3.6-6-1.1-11.9-1.3-17.9-1.8-6.8-0.4-13.6-0.4-20.4-0.9-4.6-0.3-9.1-0.3-13.6-0.3-18.9-0.2-38-1.8-56.8-0.7-7.9 0.5-15.8 0.6-23.8 0.7-4.5 0-9 0-13.5 0.3-6.8 0.5-13.7 0.5-20.5 0.9-5.9 0.5-11.9 0.7-17.9 1.8-6.1 1.2-12.2 2.3-18.2 3.6-8.1 1.8-14.9 5.8-21.1 11.1-3.4 2.9-6.5 6.2-9.7 9.3-4.7 4.5-8.6 9.7-12.3 14.9-3 4.2-5.8 8.4-8.7 12.6-3.6 5.4-7.4 10.7-10.8 16.2zm241.6 10.9c-3.3-0.1-6.5-0.1-9.8-0.2-6.1-0.3-12.3-0.9-18.5-0.7-3.2 0.1-6.5 0.2-9.7 0.3-4.6 0-9.2-0.1-13.7-0.5q-7.5-0.5-15-0.5c-0.6 0-1.2-0.1-1.8-0.2-0.6 0-1.2 0.2-1.8 0.2-5 0-10 0.2-15 0.5-4.5 0.4-9.1 0.5-13.7 0.5-3.2 0-6.5-0.2-9.7-0.3-6.2-0.2-12.4 0.4-18.5 0.7-3.3 0.1-6.6 0.1-9.8 0.2-0.6 0-1.2 0-1.7 0.3 0.1 0.5 0.5 0.8 0.8 1.1 2.7 3.4 5.3 6.9 7.5 10.6 4.6 7.5 9 15 12.9 22.8 0.5 1 1 1.2 2 1.2q5.1-0.1 10-0.1 17.8-0.1 35.5-0.1c0.6 0 1 0 1.6 0.1 0.5-0.1 1-0.1 1.6-0.1q17.7 0 35.4 0.1 5.1 0 10 0.1c1.1 0 1.7-0.2 2.1-1.2 3.9-7.8 8.3-15.3 12.8-22.8 2.3-3.7 4.9-7.2 7.6-10.6 0.3-0.3 0.6-0.6 0.8-1.1-0.6-0.4-1.2-0.3-1.7-0.3zm-387.1-77.8c0.2 0.6 0.1 1.2-0.4 1.5-0.6 0.4-1.2 0.3-1.7-0.1-0.6-0.3-1-0.9-1.4-1.5-0.9-1.2-1.4-2.6-2-4-2-5.7-3.4-11.5-3.9-17.5-0.1-0.5 0-1.1 0-1.6 0-1-0.2-1.9 0.1-2.9 0.1-0.2 0.2-0.5 0.5-0.5 0.4 0 0.4 0.3 0.5 0.5q1 3.6 2.1 7.2c1.6 5.9 3.1 11.8 5.7 17.4 0.2 0.4 0.4 1 0.5 1.5zm79 15.8c-0.3 0.6-0.1 1.2 0.1 1.8 0.8 1.8 1.8 3.4 3.2 4.8 2.5 2.4 5.3 4.6 8 6.8 5.1 3.8 10.3 7.7 15.2 11.9 3.7 3 7.4 5.9 11.1 8.8 1.1 0.8 2.1 1 3.3 1 3-0.1 5.9 0.2 8.7 1.3 0.4 0.2 0.8 0.5 1.2 0.2-0.1-0.2-0.3-0.4-0.5-0.6-1.7-1.5-3.4-2.9-5.2-4.3-6.7-5.2-13.1-10.8-19.6-16.1-3.6-2.9-7-5.9-10.5-8.9-1.9-1.7-4-3.3-5.9-5-1.5-1.4-3.2-2.5-5.3-2.9-0.2 0-0.4-0.1-0.5-0.2-0.7-0.6-1.5-0.5-2.3-0.3-1 0.2-1 0.2-1 1.3 0 0 0 0.3 0 0.4zm36.3 58.2c-0.8-0.4-1.6-0.8-2.5-1.2-3.2-1.3-5-3.8-6.3-6.8q-0.3-0.8-0.3-1.7c0-0.9 0.1-1 1-1.2 0.6-0.2 1.2 0 1.7 0.1 1.9 0.6 3.8 1.4 5.8 1.6 2 0.3 3.9 0.7 5.8 1.1 2.8 0.5 5.4 1.6 8.2 2.3 2.1 0.4 3.9 1.5 5.2 3.1 0.2 0.2 0.3 0.4 0.6 0.4 0.8-1 1.4-2.2 2.1-3.2 0.4-0.6 0.3-1-0.3-1.3-1.8-1.3-3.7-2.6-5.3-4.2-2.3-2.2-5.1-3.4-7.9-4.7q-0.6-0.3-1.2-0.3-1.2 0-2.5 0.2c-1.9 0.2-3.8 0.6-5.8 0.7-3.6 0.1-7.2 0.3-10.8 0.5-1.3 0.1-1.4 0.2-1.2 1.4 0.6 2.6 1.3 5.2 2.4 7.6 0.4 0.9 1 1.5 1.7 2.1 2.8 2.1 6.1 2.9 9.6 3.6zm-18.9 58.5q0.1 2 0.5 3.9c0.9 5.2 2.8 9.9 6.8 13.5 2.8 2.5 6 4.5 9.5 5.9 3 1.2 6.1 2.2 9 3.4 4.2 1.8 8.3 3.6 12.5 5.4 3.3 1.6 6.7 2.8 10 4.4 2.3 1.1 4.7 2.1 7.1 3 1.7 0.6 3.5 1.2 5.2 2 2.3 0.9 4.5 2 6.9 2.7 2.4 0.7 1.7 0.8 3.4-1.1 0.4-0.5 0.2-0.7-0.3-1-1.7-1.1-3.4-2-5.3-2.9-3.2-1.3-6.4-2.7-9.6-3.9-3.4-1.3-6.6-2.8-9.9-4.3-3.9-1.7-7.9-3.1-11.8-4.6-5.5-2.1-10.8-4.7-16.2-6.9q-4.6-1.9-8.2-5.4c-2.3-2.1-3.9-4.6-4.4-7.7q-0.1-1.2-0.2-2.3-0.6-4.4 0.2-8.6c0.5-2.1 0.8-4.2 1-6.3 0.1-0.6 0.2-1.3 0.5-1.9 0.2-0.4 0.5-0.7 0.9-0.8 1-0.2 2 0.3 2.2 1.5 0.4 1.6 0.9 3.2 1.1 4.8 0.1 0.8 0.3 1.6 0.4 2.3 0.2 0.8 0.2 1.5 0.7 2.3 0.8-3.1 2.4-5.6 3.9-8.2 0.6-0.9 0.5-0.8-0.2-1.5-2.9-2.6-5.4-5.6-7.6-8.9-0.5-0.8-1.1-1.5-1.7-2.3-0.5 0.1-0.5 0.4-0.7 0.7-0.8 1.8-1.6 3.6-2.2 5.6-1 3.5-2.1 6.9-3 10.4-0.5 2.3-0.8 4.5-0.6 6.8zm28.5 14.9c0.3 1 0.9 1.6 1.9 1.9 2.3 0.9 4.6 2.1 6.8 3.3 5.8 3 11.8 5.6 17.8 8.1 0.6 0.2 1 0.3 1.4-0.4 0.3-0.5 0.7-1.1 1.2-1.5 1.9-1.8 2.5-4.2 3.3-6.6 0.2-0.9 0.2-1-0.7-1.3q-0.5-0.3-0.9-0.3c-3.4-1.3-6.7-2.6-9.9-4.2q-5.4-2.7-10.8-5.7c-3.8-2.1-7.7-3.8-11.4-6.3-0.1 0.3-0.2 0.5-0.2 0.7-0.4 4.2 0.4 8.3 1.5 12.3zm44.1 19.7q0-0.5 0-0.6c-0.9-3.2-1.8-6.4-2.3-9.7q0-0.2-0.1-0.3c0-0.3-0.2-0.6-0.5-0.6-0.3-0.1-0.4 0.2-0.5 0.5-0.5 1.1-1.3 2.2-1.9 3.3-1 1.5-2.3 2.9-3.7 4.3 3 1.4 6 2.1 9 3.1zm-120.3 56.7c1.2 3.8 2.6 7.5 3.9 11.2 0.8 2.3 2 4.5 2.5 6.9 0.1 0.5 0.5 0.7 0.8 0.9 3 2.1 5.9 4.3 8.9 6.4 1.1 0.8 2.3 1.5 3.3 2.3 0.5-0.3 0.5-0.6 0.5-0.9 0.9-2.4 1.7-4.9 2.5-7.3 0.5-1.1 0.4-2.2-0.2-3.3-2.2-4.5-4.8-8.9-7.2-13.4-1.4-2.7-2.9-5.4-4.5-8.2-0.5-0.8-0.9-1.8-1.1-2.8-0.2-0.9-0.7-1.5-1.5-1.9-4-2.4-7.9-4.9-11.6-8.1-0.3 1-0.4 1.7-0.7 2.4-0.4 1.3-0.3 2.5 0.1 3.7 1.1 4.2 2.8 8.1 4.1 12.1zm20.2-17.5c0.6-1.1 1-2.2 1.5-3.3 2.1-4.3 4.1-8.4 6.2-12.6 0.6-1.1 1-2.2 1.3-3.6-0.8 0.6-1.3 1.3-1.7 1.9-3.6 5.5-6.5 11.4-9.3 17.3-0.5 1.1-0.5 2.2-0.1 3.3 1.3 3.4 2.8 6.7 4.4 9.9 2 3.7 4.1 7.3 6 11.1 0.6 1.1 0.7 2.2 0.5 3.4-0.7 4-1.7 7.8-2.9 11.6-0.9 3.2-1.6 6.3-0.6 9.5 1.4 4.6 3.3 9 5.5 13.3 0.5 0.9 1.1 1.6 2.1 2.5-0.3-2.1-0.6-3.9-1.3-5.6q-1.7-4.5-3.4-9.2c-0.6-1.7-1-3.4-0.9-5.3 0.1-1.6 0.6-3 1-4.4 1.2-4.1 2.3-8.1 2.9-12.3 0.2-1.5 0-2.9-0.7-4.3-1.3-2.5-2.6-5.1-4.1-7.6-2.5-4.1-4.4-8.5-6.5-12.8-0.4-1-0.4-1.8 0-2.8zm78.8 83.1c-5.1 0.5-10.3 0.2-15.4 0.2q-1.2 0-2.5 0c-5.4 0.1-10.8 0.2-16.2 0.4q-0.2 0-0.4 0c-4.3-0.4-8.6-0.3-12.9-0.2-5.1 0.1-10.2 0-15.3 0-0.6 0-1.2-0.2-1.9-0.3-7.4-1.3-13.8-5-19.8-9.3-3.6-2.7-6.9-5.9-10-9.1-2.1-2.2-4.4-4.2-6.4-6.6-0.1-0.1-0.2-0.3-0.6-0.2-0.2 1.2 0.1 2.3 0.5 3.4 2 6.8 5 13.2 9.3 18.9 1.9 2.4 3.7 5 6 7.2 0.4 0.4 0.7 0.8 1.5 0.8 1.2 0 2.4 0.3 3.6 0.5 2.5 0.4 5 1 7.5 1.2 3.8 0.3 7.7 0.3 11.5 0.6 4 0.3 8 0.1 12 0.3 6.1 0.3 12.2 0.4 18.3 0.4 7.7 0 15.3 0.5 23 0.7 0.9 0 1.9 0.5 2.6 0 0.8-0.5 1.2-1.4 1.7-2.1 1.2-1.8 2.5-3.4 3.5-5.3 0.2-0.4 0.6-0.8 0.4-1.5zm11.6-26.1c1.3-2.9 2.6-5.8 3.8-8.7 2-4.6 3.5-9.4 5.6-14 0.5-1.1 0.9-2.3 1.3-3.5 1.3-4.5 3.2-8.8 5-13.2 1.7-4.3 3.6-8.4 5.4-12.7 0.2-0.3 0.5-0.5 0.2-0.9-0.2 0-0.3 0.1-0.5 0.2q-4.4 2.7-9.1 5c-1.2 0.6-2.2 1.4-3.3 2-1.2 0.7-1.8 1.6-2.1 2.9-0.6 2.8-1.5 5.6-2.7 8.2-0.8 2-1.7 4-2.5 6-1.9 4.8-3.6 9.7-5.4 14.5-2.1 5.8-4.7 11.5-7.1 17.3-1.9 4.6-3.6 9.2-5.6 13.8-0.5 1.2-1 2.4-1.5 3.7 0.4 0 0.5 0.1 0.7 0.1 2.8 0.1 5.5-0.3 8.3 0 0.6 0 0.8-0.3 1-0.8 0.9-2 2-4 2.7-6.1 1.7-4.7 3.8-9.2 5.8-13.8zm69.1-66.9c-2.9-2-5.7-4.1-8.9-5.5-0.4-0.2-0.8-0.4-1.2-0.5-0.4-0.2-0.8-0.2-1 0.2-0.3 0.3 0 0.6 0.2 0.8 0.5 0.7 1.2 1.2 1.8 1.7 3.9 2.9 7.9 5.8 11.8 8.8 1.5 1.1 3.1 2 5.1 1.7q0.5 0 1 0c4.4 0.3 8.8 0.4 13.2 0.4 22.3 0 44.7 0.1 67 0.1 0.4 0 0.7 0 1.1 0 0.3 0 0.7 0 1 0 22.4 0 44.7 0 67.1-0.1q6.6 0 13.2-0.4c0.3 0 0.6-0.1 0.9 0 2.1 0.3 3.7-0.6 5.2-1.7 3.9-3 7.8-5.9 11.8-8.8 0.6-0.5 1.3-1 1.8-1.7 0.2-0.2 0.4-0.5 0.2-0.8-0.2-0.4-0.6-0.3-1-0.2-0.4 0.1-0.9 0.3-1.3 0.5-3.2 1.4-5.9 3.5-8.8 5.5q-2.5 1.6-4.8 3.6c-0.6 0.5-0.9 1.3-1.6 1.5-0.7 0.2-1.4-0.3-2.2-0.3q-3.6-0.2-7.2-0.3c-10-0.3-19.9-0.2-29.8-0.2-14.7 0-29.3 0-44 0q-0.2 0-0.6 0-0.3 0-0.5 0c-14.7 0-29.3 0-44 0-9.9 0-19.9-0.1-29.8 0.2-2.4 0.1-4.8 0.2-7.3 0.3-0.7 0-1.5 0.5-2.1 0.3-0.6-0.2-1-1-1.6-1.5-1.5-1.3-3.2-2.5-4.8-3.6zm218.4 2c1.2 1.1 2.6 1.8 3.8 2.8 0.4 0.3 0.7 0.3 1.1 0.2 2.8-0.9 5.6-1.8 8.3-2.8 0.2 0 0.2-0.2 0.4-0.4-0.9-0.9-1.9-1.8-2.8-2.7-4.4-4.6-8.9-9.1-13.2-13.6-6.6-6.7-13-13.4-19.7-19.9-4.4-4.3-8.7-8.7-13.3-12.9q-1.5-1.2-3.3-1.8c-2-0.6-4.1-1-6.2-1-22.9 0-45.7-0.1-68.6-0.1-4.2 0-8.5-0.1-12.7-0.2-0.7 0-1.4-0.1-2-0.2-0.7 0.1-1.3 0.1-2 0.2-4.3 0.1-8.5 0.2-12.8 0.2q-34.3 0.1-68.5 0.1c-2.2 0-4.2 0.4-6.3 1q-1.8 0.6-3.3 1.8c-4.5 4.1-8.8 8.6-13.2 12.9-6.7 6.5-13.2 13.2-19.7 19.9-4.4 4.5-8.8 9-13.2 13.6-0.9 0.9-1.9 1.8-2.9 2.7 0.3 0.3 0.4 0.4 0.4 0.4 2.8 1 5.6 1.9 8.4 2.8 0.3 0.1 0.7 0.1 1-0.2 1.3-1 2.7-1.7 3.9-2.8q5.1-4.2 10.2-8.4c1.4-1.1 2.8-2.2 3.9-3.6 0.9-0.9 1.8-1.8 2.9-2.6q6.4-5.1 13-10.2 0.6-0.5 0.9-1.1c0.8-1.6 1.7-3.1 2.5-4.6 2.1-3.7 4.1-7.3 6.2-11 0.3-0.5 0.5-1 1-1.3 0.4-0.3 0.9-0.2 1 0.4q0 0.3 0 0.7c-0.5 2-0.9 4.2-1.8 6.1q-1.4 2.9-2.8 5.9c-0.1 0.3-0.4 0.6-0.2 1 1-0.1 2-0.3 3.1-0.4 4.2-0.6 8.4-0.9 12.7-1.4 5.7-0.7 11.5-0.9 17.4-1 4.7-0.1 9.5 0.1 14.3-0.2q8.9-0.5 17.7 0c2 0.1 4.1 0.2 6.2 0 2.7-0.3 5.4-0.5 8.2-0.5 1.1 0 2.1 0 3.2-0.1 2.9-0.2 5.7-0.4 8.6-0.2q0 0 0.1 0c2.9-0.2 5.8 0 8.7 0.2 1 0.1 2.1 0.1 3.1 0.1 2.8 0 5.5 0.2 8.3 0.5 2 0.2 4.1 0.1 6.1 0 5.9-0.3 11.9-0.3 17.8 0 4.7 0.3 9.5 0 14.3 0.2 5.8 0.1 11.6 0.3 17.4 1 4.2 0.5 8.5 0.8 12.7 1.4 1 0.1 2.1 0.3 3.1 0.4 0.2-0.4-0.1-0.7-0.3-1q-1.3-3-2.7-5.9c-1-1.9-1.4-4.1-1.8-6.1 0-0.3-0.1-0.5 0-0.7 0-0.6 0.5-0.7 1-0.4 0.4 0.3 0.7 0.8 1 1.3 2 3.7 4.1 7.3 6.2 11 0.8 1.5 1.6 3 2.4 4.6q0.4 0.6 1 1.1 6.5 5.1 12.9 10.2c1 0.8 2 1.7 2.9 2.6 1.1 1.4 2.5 2.5 3.9 3.6q5.1 4.2 10.2 8.4zm-232.7 0.6c-1.8-1.1-3.7-2.2-5.5-3.3-1.1-0.7-0.8-0.7-1.7 0-2.5 2-5 4-7.4 6.1-0.1 0.1-0.1 0.2-0.2 0.3 0.2 0.1 0.3 0.3 0.5 0.3 3 0.7 5.7 2.4 8.7 3.4 3.6 1.3 6.7 3.4 9.9 5.4 1.8 1.1 3.3 2.3 5.2 3 1.9 0.8 3.8 1.5 5.2 3.1 0.4 0.4 0.8 0.3 1.3 0.3 7.6 0.1 15.3 0.3 22.9 0.3 18.4 0 36.7 0.1 55 0.1 3.5 0 7 0.1 10.5 0.2 3.5 0 7-0.1 10.5-0.2 18.4 0 36.7 0 55-0.1 7.7 0 15.3-0.2 23-0.3 0.4 0 0.9 0.1 1.2-0.3 1.4-1.6 3.4-2.3 5.2-3.1 1.9-0.7 3.5-1.9 5.2-3 3.2-2 6.4-4.1 10-5.4 2.9-1.1 5.6-2.7 8.7-3.4 0.2 0 0.3-0.2 0.5-0.3-0.1-0.1-0.1-0.2-0.2-0.3-2.5-2.1-4.9-4.1-7.4-6.1-0.9-0.7-0.7-0.8-1.8 0-1.8 1.1-3.6 2.2-5.5 3.3-4.1 2.4-7.9 5.1-12.1 7.3-2.5 1.4-5 2.7-7.4 4.3q-0.7 0.4-1.8 0.3-1-0.1-2 0c-6.2 0.4-12.3 0.5-18.4 0.5-11.5 0.1-23 0.2-34.5 0.2q-14.1 0-28.2 0c-9.3 0-18.7 0-28.1 0-11.5 0-23-0.2-34.5-0.2-6.1 0-12.3-0.1-18.4-0.5-0.7 0-1.4 0-2 0-0.7 0.1-1.3 0-1.9-0.3-2.4-1.6-4.9-2.9-7.4-4.3-4.1-2.2-8-4.9-12.1-7.3zm185.3-42c0.1 0.3-0.7 0.8-1.7 0.8-4.8 0.4-9.6 0.5-14.4 0.6-8.8 0-17.6-0.1-26.4 0.4-6.2 0-12.4-0.1-18.6 0-6.5 0-12.9-0.1-19.4 0.4q-0.2 0-0.5 0-0.2 0-0.5 0c-6.4-0.5-12.9-0.4-19.3-0.4-6.2-0.1-12.4 0-18.6 0-8.8-0.5-17.6-0.4-26.4-0.4q-7.2 0-14.4-0.6c-1.1 0-1.9-0.4-1.7-0.8 0.3-0.7 1-0.7 1.5-0.7q1.5-0.3 3-0.4c4.7-0.3 9.3-0.3 13.9-0.3 5 0 10.1 0 15.1-0.1 14.1-0.2 28.1-0.3 42.2-0.5 1.4 0 2.9-0.1 4.4-0.1q0.4 0 0.8 0 0.4 0 0.8 0c1.5 0 3 0.1 4.4 0.1 14 0.2 28.1 0.3 42.2 0.5 5 0.1 10.1 0 15.1 0.1 4.6 0 9.2 0 13.9 0.3 0.9 0.1 1.9 0.2 2.9 0.4 0.6 0 1.3 0 1.6 0.7zm-225.2 109.2c3.4-6.7 6.8-13.5 10-20.5 2.1-4.5 4.6-8.7 7.5-12.7 0.6-0.7 1.1-1.5 1.8-2.1 1.2-1.2 2.6-1.6 4.3-1.3 1.4 0.3 2.7 0.7 4 1.1 2.6 0.7 5.1 1.6 7.7 2.1 0.6 0.2 1.3 0.3 2.2 0.1-0.9-0.8-1.7-1.3-2.5-1.8-2.2-1.3-4.2-2.7-6.4-4.1-2.8-1.8-5.6-3.5-8.4-5.3-2.2-1.4-4.4-2.6-6.3-4.5-0.2-0.2-0.4-0.6-0.9-0.6q-0.3 0.6-0.6 1.2c-1.9 4.3-4 8.4-5.8 12.7-0.9 2.1-1.8 4.3-2.3 6.5-1.6 5.7-3.8 11.2-6.2 16.7-1.4 3.1-3 6.3-4.2 9.5-1.8 4.7-3.7 9.5-6 14-0.4 0.8-0.8 1.7-1 2.5q-2.2 7.3-4.5 14.7c-0.4 1.3-0.9 2.6-1.3 4 1.4 0.1 2.7 0.1 4 0.2q0.8 0 0.6-0.6c0-0.8 0-1.5 0.4-2.2 1.9-4.7 3.7-9.5 5.8-14 2.5-5.3 5.4-10.5 8.1-15.7zm0.5 23.7c1.1 0.6 2.1 0.5 3.1 0.2 1.5-0.5 2.8-1.3 4.3-1.8 1-0.4 1.6-1.1 1.9-2 1-2.4 2.1-4.7 3-7.1 2.6-6.8 5.5-13.5 8.3-20.3 2.2-5.6 3.9-11.3 6.3-16.9 0.2-0.5 0.5-1.2 0.3-2.1-0.6 0.3-0.9 0.8-1.2 1.3-2.5 4.1-4.4 8.4-5.8 13-0.5 1.7-1.1 3.2-1.9 4.9-1.4 3.3-2.9 6.6-4.2 9.9-2.1 5.4-4.3 10.6-6.4 15.9-0.3 0.8-0.8 1.4-1.7 1.7-1.4 0.5-2.8 1.1-4.2 1.7-0.8 0.3-1.5 0.8-1.9 1.7zm23.2-15.2c2.9-8.5 6.2-16.9 9.2-25.4 1-2.8 2.3-5.6 2.9-8.5 0.1-0.4 0.6-1.1 0-1.3-0.5-0.2-0.8 0.5-1.1 0.9-1 1.7-1.9 3.6-2.7 5.5-2.4 5.8-4.9 11.7-7.4 17.6-1.6 4-3.3 8-4.7 12.1q-0.6 1.7-1.4 3.4-2.6 5.9-5 11.7c-0.9 2.1-0.9 2.1-3.1 2.7-0.3 0.1-0.7 0.2-1.1 0.2-2.1 0.2-4.2 0.8-6.3 1.2-0.6 0-1.3 0.2-1.9 0.9 0.7 0.3 1.3 0.3 1.9 0.4 1.4 0 2.9 0.1 4.3 0.4 2 0.3 4 0 6-0.8 1.2-0.4 1.9-1.1 2.4-2.2 0.8-1.7 1.7-3.5 2.4-5.2 1.9-4.6 4.1-8.9 5.6-13.6zm240.2 18.8q-2.8-6-5.4-12.3c-3.2-7.9-6.5-15.8-9.3-23.9-1.4-3.9-2.7-7.7-4.2-11.5-1.4-3.4-2.1-7-2.7-10.6-0.3-1.6 0.1-2.9 1.4-3.9 2.1-1.9 4.3-3.4 6.6-4.9 4.5-3 9.2-5.7 13.8-8.5 2.3-1.4 4.8-2.5 7.1-3.9 0.7-0.4 1.3-0.9 2-1.2 0.5-0.3 0.6-0.6 0.3-1.1-0.3-0.6-0.7-1.1-0.9-1.8-0.8-2.1-2.4-3.1-4.2-4.2q-0.4-0.3-0.8 0c-4.5 2.8-9 5.4-13.5 8.2-3 1.7-5.8 3.7-8.7 5.5-0.8 0.5-1.6 1-2.6 1.3-1 0.4-2 0.9-3 1.4-2.2 1.1-4.5 1.9-7.1 1.9-25.9-0.6-51.7-0.3-77.6-0.5-3.6 0-7.1-0.1-10.7-0.1q-5.4 0-10.7 0.1c-25.9 0.2-51.7-0.1-77.5 0.5-2.7 0-5-0.7-7.2-1.9-0.9-0.5-1.9-1.1-3-1.4-0.9-0.3-1.7-0.8-2.6-1.3-2.9-1.8-5.7-3.8-8.7-5.5-4.5-2.7-9-5.4-13.4-8.2-0.4-0.2-0.6-0.3-0.9 0-1.7 1.1-3.4 2.1-4.1 4.2-0.3 0.7-0.6 1.3-1 1.8-0.3 0.5-0.2 0.8 0.3 1.1 0.7 0.3 1.4 0.8 2 1.2 2.3 1.5 4.8 2.5 7.1 3.9 4.7 2.8 9.4 5.5 13.9 8.5 2.2 1.5 4.5 3.1 6.6 4.9q1.8 1.5 1.4 3.9c-0.7 3.6-1.4 7.2-2.7 10.6-1.5 3.8-2.9 7.7-4.3 11.5-2.8 8.1-6 16-9.2 23.9-1.7 4.2-3.6 8.3-5.4 12.3-0.2 0.4-0.6 0.8-0.3 1.3q3.9-1.7 7.8-3.5c0.4-0.2 0.7-0.5 0.8-1 1.5-4.3 3.8-8.4 5.5-12.6 1.2-2.8 2.7-5.6 3.9-8.5q2.6-6.3 5.4-12.4c1.5-3.4 3-6.7 4.4-10 1.2-2.9 2.2-5.9 3.6-8.8 0.8-1.6 1.9-2.7 3.5-3.4 1.9-0.9 4-1.2 6.1-1.5 4.6-0.7 9.2-1.4 13.9-1.3 2.9 0 5.7 0 8.5-0.2 5.2-0.3 10.4 0 15.6-0.2 7.6-0.3 15.2-0.4 22.8-0.6 4.1-0.1 8.2 0 12.3-0.4 1.7-0.1 3.4-0.2 5.1-0.2q0.1 0 0.3 0h0.6q2.6 0 5.1 0.2c4.1 0.4 8.3 0.3 12.4 0.4 7.6 0.2 15.2 0.3 22.8 0.6 5.1 0.2 10.3-0.1 15.5 0.2 2.9 0.2 5.7 0.2 8.5 0.2 4.7-0.1 9.3 0.6 14 1.3 2 0.3 4.1 0.6 6.1 1.5 1.6 0.7 2.7 1.9 3.5 3.4 1.4 2.9 2.4 5.8 3.6 8.8q2.1 5 4.3 10 2.8 6.1 5.5 12.4c1.2 2.9 2.6 5.7 3.8 8.5 1.8 4.2 4 8.2 5.5 12.6 0.1 0.5 0.4 0.8 0.9 1q3.8 1.8 7.7 3.5c0.3-0.5 0-0.9-0.2-1.3zm-13.8-5.9c-2.4-4.7-4.9-9.3-7.4-14-3.1-5.8-6-11.9-8.9-17.9-1-2.1-1.9-4.3-3.1-6.3-0.2-0.5-0.5-1-0.7-1.5-0.8-2.2-1.7-4.4-2.9-6.5-0.4-0.8-0.9-1.2-1.7-1.4-1.7-0.5-3.6-0.7-5.4-1-4.8-0.7-9.6-1.2-14.5-0.9-1.3 0.1-2.7 0-4.1-0.1-4.2-0.5-8.5-0.2-12.7-0.4-5.3-0.1-10.7-0.3-16-0.5q-6.7-0.2-13.4-0.4c-3.5-0.1-6.9-0.1-10.3-0.4-1.5-0.1-3-0.1-4.5-0.1-1.5 0-3 0-4.5 0.1-3.4 0.3-6.8 0.3-10.3 0.4q-6.7 0.2-13.4 0.4c-5.3 0.2-10.6 0.4-16 0.5-4.2 0.1-8.5-0.1-12.7 0.4-1.4 0.1-2.8 0.2-4.2 0.1-4.8-0.2-9.6 0.2-14.4 0.9-1.9 0.3-3.7 0.5-5.4 1-0.9 0.2-1.4 0.6-1.8 1.4-1.1 2-2 4.3-2.9 6.5q-0.2 0.7-0.6 1.5c-1.2 2-2.1 4.1-3.1 6.3-2.9 6-5.8 12.1-8.9 17.9-2.5 4.7-5 9.3-7.4 14-0.2 0.2-0.4 0.5-0.2 0.9 1.8-0.8 3.6-1.6 5.4-2.1 1.4-0.5 2.6-1.1 2.9-2.7 0 0 0 0 0-0.1 1.9-3.4 3.9-6.7 5.2-10.5q0.3-0.9 0.9-1.8c1-2 1.9-4 2.8-6 2.1-4.8 4.3-9.6 6.8-14.2 0.5-1 1.2-2 1.8-3 0.1-0.2 0.2-0.6 0.7-0.4 0.7 0.2 1.4 0.1 2.2 0.2 5 0.8 10.1 0.9 15.2 0.9 17.2 0.1 34.5 0.3 51.8 0.3q5.1-0.1 10.2 0c3.4 0 6.8-0.1 10.2 0 17.2 0 34.5-0.2 51.8-0.3 5.1 0 10.2-0.1 15.2-0.9 0.7-0.2 1.5 0 2.2-0.2 0.4-0.2 0.5 0.2 0.7 0.4q0.9 1.5 1.8 3c2.5 4.6 4.6 9.4 6.8 14.2 0.9 2 1.8 4 2.8 6q0.5 0.9 0.9 1.8c1.3 3.7 3.3 7.1 5.1 10.5l0.1 0.1c0.3 1.6 1.4 2.2 2.9 2.7q2.7 0.9 5.4 2.1c0.2-0.4-0.1-0.7-0.2-0.9zm-16.7-6.1c-0.1-0.3-0.2-0.6-0.4-0.9-2.1-3-3.8-6.2-5.7-9.4-1.7-2.7-3.5-5.3-5.2-8-1.2-1.8-2.6-3.5-3.6-5.4-0.2-0.5-0.5-0.6-0.9-0.7-1-0.3-2.1-0.3-3.2-0.4-3.8-0.3-7.6-0.4-11.4-0.4-4.1 0-8.2-0.5-12.3-0.5-7.5-0.2-15-0.2-22.4 0-2.9 0.1-5.7 0.1-8.6 0.2-4.8 0.2-9.7 0.3-14.5 0.2q-0.6 0-0.9 0-0.3 0-0.9 0c-4.8 0-9.7 0-14.5-0.2-2.9-0.1-5.7-0.1-8.6-0.2-7.4-0.2-14.9-0.2-22.4 0-4.1 0-8.2 0.5-12.3 0.5q-5.8 0-11.5 0.4c-1 0.1-2 0.1-3.1 0.4-0.4 0.2-0.7 0.3-0.9 0.7-1 1.9-2.4 3.6-3.6 5.4-1.7 2.7-3.5 5.3-5.2 8-1.9 3.2-3.6 6.4-5.7 9.4-0.2 0.3-0.3 0.6-0.4 0.9-0.2 0.4-0.1 0.8 0.3 1.1 0.3 0.2 0.8 0.2 1.2 0 0.3-0.3 0.5-0.6 0.8-1 2.3-3.2 4.5-6.6 6.5-10.1 2.6-4.3 5.3-8.4 7.7-12.7 0.2-0.3 0.4-0.5 0.8-0.5 2.1 0.3 4.2 0.2 6.3 0.3 4.5 0.1 9 0.4 13.5 0.4 1.1 0 2.3-0.1 3.4-0.1 8.6 0.2 17.3 0.2 25.9 0.6 4.9 0.2 9.8 0.2 14.8 0.3 2.6 0 5.2 0.1 7.8 0.1 2.6 0 5.2 0 7.8-0.1 4.9-0.1 9.8-0.1 14.8-0.3 8.6-0.4 17.3-0.4 25.9-0.6 1.1 0 2.3 0.1 3.4 0.1 4.5 0 9-0.3 13.5-0.4 2.1-0.1 4.2 0 6.3-0.3 0.4 0 0.6 0.2 0.8 0.5 2.4 4.3 5.1 8.4 7.7 12.7 2 3.4 4.2 6.9 6.5 10.1 0.3 0.3 0.5 0.7 0.8 1q0.6 0.3 1.2 0c0.4-0.3 0.5-0.7 0.3-1.1zm-15.2-12.1c-0.6-0.7-1.2-0.7-1.8-0.7-3.4-0.1-6.7-0.5-10-0.3-2.2 0.1-4.3-0.2-6.3-0.2-3.8 0-7.5 0.1-11.2 0.2q-3 0-6 0c-4.6 0.2-9.1 0-13.6 0-3.9 0-7.8 0.2-11.7 0.2-4.4-0.1-8.8-0.1-13.2-0.2-4.4 0-8.8 0-13.2 0.2-3.9 0.1-7.8-0.1-11.7-0.2-4.5 0-9 0.2-13.5 0-2-0.1-4.1 0-6.1 0-3.7-0.1-7.4-0.2-11.2-0.2-2 0-4.2 0.3-6.3 0.2-3.3-0.2-6.7 0.2-10 0.3-0.5 0-1.2 0-1.8 0.7 1.7 0.4 3.3 0.7 4.9 0.7 6.2 0.2 12.5 0.4 18.7 0.6 3.2 0.1 6.4 0 9.6 0.4 6.9 0.6 13.8 0.5 20.7 0.9 6.5 0.3 13.2 0 19.8 0.2q0 0 0.1 0c6.7-0.2 13.2 0 19.8-0.2 6.9-0.3 13.9-0.3 20.7-0.9 3.2-0.3 6.4-0.3 9.6-0.4 6.3-0.2 12.5-0.4 18.7-0.6 1.6 0 3.2-0.3 4.9-0.7zm89.6 29c-0.5-1.4-1-2.7-1.4-4-1.5-4.9-2.9-9.8-4.4-14.7-0.3-0.8-0.6-1.8-1-2.5-2.4-4.5-4.2-9.3-6-14-1.3-3.3-2.9-6.4-4.3-9.5-2.4-5.5-4.5-11-6.1-16.7-0.6-2.3-1.4-4.4-2.3-6.5-1.9-4.2-4-8.4-5.9-12.7q-0.3-0.6-0.6-1.2c-0.4 0-0.6 0.3-0.9 0.6-1.8 1.8-4 3.1-6.2 4.5-2.9 1.8-5.7 3.5-8.5 5.3-2.1 1.4-4.2 2.8-6.3 4.1-0.8 0.5-1.6 1.1-2.6 1.8 0.9 0.2 1.6 0 2.3-0.1 2.6-0.5 5.1-1.4 7.6-2.1 1.4-0.4 2.7-0.8 4.1-1.1 1.7-0.3 3.1 0.1 4.2 1.3 0.7 0.6 1.3 1.4 1.8 2.1 2.9 4 5.4 8.2 7.5 12.7 3.2 6.9 6.6 13.7 10.1 20.5 2.7 5.2 5.5 10.3 8 15.6 2.2 4.6 3.9 9.4 5.9 14.1 0.3 0.7 0.4 1.4 0.3 2.2 0 0.4 0.1 0.6 0.6 0.6 1.4-0.1 2.7-0.1 4.1-0.2zm-19.5-8.6c-0.4-0.9-1.1-1.3-1.9-1.6-1.4-0.6-2.7-1.2-4.2-1.7-0.8-0.4-1.3-0.9-1.6-1.7-2.2-5.3-4.4-10.6-6.5-15.9-1.3-3.4-2.8-6.7-4.2-10q-1-2.4-1.8-4.9c-1.5-4.5-3.4-8.9-5.9-13-0.3-0.4-0.5-0.9-1.2-1.2-0.1 0.8 0.1 1.5 0.4 2.1 2.4 5.5 4.1 11.3 6.3 16.8 2.7 6.8 5.6 13.5 8.3 20.4 0.9 2.4 2 4.7 2.9 7.1 0.4 0.9 1 1.6 2 1.9 1.4 0.6 2.8 1.3 4.3 1.8 1 0.3 2 0.5 3.1-0.1zm-0.7 5.8c-0.6-0.6-1.2-0.8-1.8-0.9-2.2-0.3-4.3-0.9-6.4-1.1-0.3 0-0.7-0.1-1.1-0.2-2.1-0.6-2.1-0.6-3-2.7-1.6-3.9-3.4-7.8-5.1-11.7q-0.7-1.7-1.3-3.4c-1.4-4.1-3.1-8.1-4.8-12.2-2.4-5.8-4.9-11.7-7.4-17.5-0.8-1.9-1.6-3.8-2.7-5.5-0.3-0.5-0.5-1.2-1-1-0.7 0.3-0.2 1 0 1.4 0.6 2.9 1.8 5.7 2.9 8.5 3 8.5 6.3 16.9 9.2 25.4 1.5 4.7 3.7 9.1 5.6 13.6 0.7 1.7 1.6 3.5 2.3 5.2 0.5 1.1 1.3 1.8 2.5 2.2 2 0.8 3.9 1.2 6 0.8q2.1-0.4 4.2-0.4c0.6 0 1.2-0.1 1.9-0.5zm25.5-11.8c2.8-0.2 5.5 0.1 8.3 0 0.2 0 0.3 0 0.7-0.1-0.5-1.3-1-2.5-1.5-3.7-2-4.6-3.7-9.2-5.6-13.8-2.4-5.8-5-11.4-7.1-17.3-1.8-4.8-3.5-9.7-5.4-14.5-0.8-2-1.7-4-2.5-6-1.2-2.6-2.1-5.4-2.7-8.2-0.3-1.3-0.9-2.2-2.1-2.9-1.1-0.6-2.1-1.4-3.3-1.9-3.1-1.6-6.1-3.3-9.1-5.1-0.2-0.1-0.3-0.1-0.5-0.2-0.3 0.4 0 0.6 0.2 0.9 1.8 4.3 3.7 8.4 5.4 12.7 1.8 4.4 3.7 8.7 5 13.3 0.4 1.1 0.8 2.3 1.3 3.4 2.1 4.6 3.6 9.4 5.6 14 1.2 2.9 2.5 5.8 3.8 8.7 2 4.6 4.2 9 5.8 13.8 0.7 2.1 1.8 4.1 2.7 6.1 0.2 0.5 0.4 0.8 1 0.7zm103.5-19.6c-0.4-0.1-0.5 0.1-0.6 0.2-2 2.4-4.3 4.4-6.5 6.6-3.1 3.2-6.3 6.4-9.9 9-6.1 4.4-12.4 8-19.9 9.4q-0.9 0.2-1.9 0.2c-5 0-10.1 0.2-15.2 0.1-4.3-0.1-8.6-0.2-12.9 0.1q-0.2 0-0.4 0c-5.4-0.1-10.9-0.2-16.3-0.3q-1.2 0-2.5 0c-5.1 0-10.2 0.2-15.3-0.2-0.3 0.7 0.1 1.1 0.3 1.5 1 1.8 2.3 3.5 3.5 5.2 0.5 0.8 1 1.7 1.7 2.1 0.7 0.5 1.7 0 2.6 0 7.7-0.1 15.3-0.6 23-0.6 6.1 0 12.2-0.1 18.4-0.4 3.9-0.2 7.9-0.1 11.9-0.4 3.9-0.2 7.7-0.3 11.5-0.5 2.5-0.2 5-0.8 7.5-1.2 1.2-0.2 2.4-0.6 3.7-0.5 0.7 0 1-0.5 1.4-0.9 2.3-2.2 4.1-4.7 6-7.2 4.3-5.6 7.3-12 9.4-18.8 0.3-1.1 0.6-2.2 0.5-3.4zm0.9-58.7q0.1 0.1 0.1 0.1 0.1 0 0.2-0.1zm-11.4 8c-0.8 0.5-1.3 1-1.5 2-0.2 1-0.7 1.9-1.2 2.8-1.5 2.7-3 5.5-4.4 8.2-2.4 4.5-5 8.9-7.2 13.4-0.6 1.1-0.7 2.1-0.3 3.3 0.9 2.4 1.7 4.9 2.5 7.3 0.1 0.2 0.2 0.6 0.6 0.9 1-0.8 2.1-1.5 3.2-2.3q4.5-3.2 8.9-6.4c0.4-0.3 0.8-0.4 0.9-0.9 0.5-2.4 1.6-4.6 2.4-7 1.4-3.7 2.8-7.3 3.9-11.1 1.3-4.1 3-8 4.2-12.1 0.3-1.3 0.5-2.4 0-3.7-0.2-0.7-0.4-1.4-0.6-2.3-3.6 3.2-7.5 5.6-11.4 7.9zm-20.6 16.7c1.9-3.7 4.1-7.4 6-11.1q2.6-4.8 4.5-9.9c0.4-1.1 0.4-2.2-0.1-3.3-2.8-5.9-5.7-11.8-9.3-17.3-0.5-0.6-0.9-1.3-1.8-1.9 0.3 1.4 0.8 2.5 1.3 3.6 2.1 4.2 4.2 8.3 6.2 12.6 0.6 1 1 2.2 1.5 3.4q0.8 1.3 0 2.7c-2 4.4-3.9 8.8-6.4 12.9-1.5 2.4-2.8 5.1-4.1 7.6q-1 2-0.7 4.2c0.6 4.2 1.7 8.3 2.9 12.3 0.4 1.5 0.9 2.9 1 4.4 0.1 1.9-0.3 3.6-0.9 5.4-1.1 3-2.2 6.1-3.4 9.2-0.6 1.7-1 3.4-1.3 5.5 0.9-0.9 1.6-1.6 2.1-2.5 2.2-4.2 4-8.7 5.4-13.3 1-3.2 0.5-6.3-0.5-9.4-1.2-3.8-2.3-7.7-2.9-11.6-0.2-1.2-0.1-2.3 0.5-3.4zm-27.3-119c-2.1 3.2-4.6 6.2-7.5 8.9-0.8 0.7-0.8 0.6-0.3 1.5 1.6 2.5 3.2 5.1 3.9 8.2 0.6-0.9 0.6-1.6 0.7-2.3q0.3-1.2 0.4-2.3c0.3-1.6 0.7-3.2 1.1-4.9 0.3-1.1 1.2-1.6 2.3-1.4 0.4 0.1 0.7 0.4 0.8 0.8 0.3 0.6 0.5 1.2 0.5 1.9 0.2 2 0.6 4.1 1 6.2q0.8 4.3 0.3 8.6c-0.1 0.8-0.2 1.6-0.3 2.3-0.5 3.1-2.1 5.6-4.3 7.8-2.5 2.2-5.2 4-8.3 5.3-5.4 2.2-10.6 4.9-16.1 6.9-4 1.5-8 3-11.9 4.7-3.2 1.5-6.5 2.9-9.8 4.2-3.3 1.2-6.4 2.6-9.7 4-1.8 0.8-3.6 1.8-5.3 2.9-0.5 0.3-0.6 0.5-0.2 1 1.6 1.9 0.9 1.8 3.3 1.1 2.4-0.7 4.6-1.8 6.9-2.8 1.7-0.7 3.5-1.4 5.3-2 2.4-0.8 4.7-1.8 7-3 3.3-1.5 6.8-2.8 10.1-4.3 4.1-1.9 8.3-3.7 12.4-5.4 3-1.2 6-2.3 9-3.4 3.5-1.4 6.7-3.5 9.5-6 4-3.5 5.9-8.3 6.8-13.4q0.4-2 0.5-4c0.2-2.3 0-4.5-0.6-6.8-0.8-3.5-2-6.9-3-10.4-0.5-1.9-1.3-3.8-2.2-5.6-0.1-0.2-0.2-0.5-0.6-0.7q-0.9 1.2-1.8 2.4zm-55.4 52.6c-1.4-1.4-2.7-2.7-3.7-4.2-0.6-1.1-1.3-2.2-1.9-3.4-0.1-0.2-0.2-0.5-0.5-0.4-0.3 0-0.5 0.3-0.5 0.5q0 0.2-0.1 0.3c-0.5 3.3-1.3 6.5-2.3 9.7 0 0.2 0 0.3 0 0.6 3.1-1 6.1-1.7 9-3.1zm2.7-11.8c0.8 2.4 1.4 4.9 3.3 6.7q0.7 0.7 1.2 1.5c0.4 0.6 0.8 0.6 1.4 0.4 6-2.6 12-5.1 17.8-8.2 2.2-1.1 4.5-2.3 6.8-3.2 1-0.4 1.6-0.9 1.9-2 1.1-4 1.8-8.1 1.4-12.3 0-0.2-0.1-0.3-0.1-0.7-3.7 2.5-7.6 4.3-11.4 6.3-3.6 2-7.2 3.9-10.9 5.7-3.1 1.6-6.5 2.9-9.8 4.2q-0.4 0.1-0.9 0.3c-0.9 0.3-1 0.4-0.7 1.3zm-251 35c0.3 0.6 0.7 1.1 1.1 1.6 1.4 1.6 3.2 2.7 4.6 4.3 0.9 1.1 1.9 2 3.1 2.7 1.9 0.9 3.8 1.6 5.9 0.9 0.5-0.1 0.9-0.1 1.4-0.1 3.4 0.1 6.9 0.2 10.3 0.2 20.7 0 41.5 0 62.3 0q0.7 0 1.1 0 0.4 0 1 0c20.8 0 41.5 0 62.3 0 3.5 0 6.9-0.1 10.3-0.2 0.5 0 0.9 0 1.4 0.1 2.1 0.7 4 0 5.9-0.9 1.3-0.7 2.3-1.6 3.2-2.7 1.3-1.6 3.1-2.7 4.5-4.3 0.5-0.5 0.8-1 1.1-1.6 0.2-0.4 0.3-0.8 0-1.1-0.3-0.3-0.7-0.3-1.2-0.1-0.7 0.4-1.5 0.8-2.2 1.3-2 1.3-4 2.7-5.6 4.4-0.8 0.7-1.7 1.3-2.3 2.2-0.3 0.5-1.4 0.5-2 0.2-1.2-0.6-2.4-0.6-3.6-0.6-20-0.3-40.1-0.1-60.1-0.1q-6.3 0-12.6 0c-4.2 0-8.6 0-12.8 0-20 0-40-0.2-60 0.1-1.3 0-2.5 0-3.7 0.6-0.6 0.3-1.7 0.3-2-0.2-0.6-0.9-1.5-1.4-2.3-2.2-1.6-1.7-3.6-3.1-5.6-4.4-0.7-0.5-1.5-0.9-2.2-1.3-0.4-0.2-0.9-0.2-1.2 0.1-0.4 0.4-0.2 0.8 0 1.1zm301.3 53.9c1.5-2.5 3.5-4.7 6.1-6.4 2.9-1.9 5.5-4.2 8.1-6.5 1.6-1.6 2.7-3.4 3.1-5.5 0.8-3.2 1-6.5 0.7-9.8q0-0.2-0.1-0.4c-0.5-0.2-0.7 0.2-1.1 0.5-4.9 3.5-9.8 7.4-14.8 10.8-0.5 0.4-0.9 0.6-1.4 0.9-0.5 0.3-1.1 0.4-1.6-0.1-0.5-0.4-0.3-1 0-1.5 0.9-1.8 2-3.5 3.5-4.8 2.7-2.3 5.3-4.6 8-6.8 1.8-1.5 3.6-3.1 5.5-4.6 0.7-0.5 0.7-1 0.4-1.7-0.7-2.2-1.9-4.1-2.9-6.4q-1.5 0.9-3 1.8c-5 3.2-10.1 6.2-15.3 9.1-1.8 1-3.4 2.1-5 3.3-3.4 2.3-6.9 4.5-10 7.3-1.3 1.1-1.9 2.3-1.4 4.1 0.6 2.5 1.3 5 2.1 7.4 1.7 4.7 3 9.5 4.5 14.2q2.5 8.3 4.9 16.6c0.3 1 0.5 2.1 0.6 3.2 0.2 0.7 0.5 1.1 1.2 1.2 1.2 0.2 2.5 0.5 3.8 0.5 2.1 0 4 0.3 6.1 0.5 3.7 0.4 7.4 0.9 11.1 0.9 0.7 0 1-0.2 1.2-0.8 0.4-1.6 0.9-3.2 1.3-4.8 0.5-1.6 0.4-3.4 0.6-5.1-0.7 0-0.9 0.3-1.3 0.6-2.2 1.5-4.6 2.7-7 3.9-1 0.5-2 0.8-3.1 0.9-0.9 0.1-1.5-0.6-0.9-1.4 0.5-0.8 0.9-1.5 1.6-2.1q2.1-2.1 4.4-4c1.5-1.2 3-2.6 4.4-3.9 0.4-0.3 0.7-0.7 0.8-1.3 0.8-4.8 0.6-9.5 0.3-14.2 0-0.4 0.1-0.8-0.3-1.2q-0.9 0.6-1.8 1.2c-3 1.5-5.9 3.3-9 4.6-1 0.5-1.9 1.1-2.9 1.6-0.6 0.3-1.3 0.7-1.9 0.1-0.7-0.7 0-1.3 0.4-1.8zm-422.2-16.6c-0.5 0.4-1.1 0.3-1.6 0.1-0.5-0.3-0.9-0.6-1.4-0.9-5-3.5-9.8-7.3-14.8-10.9-0.3-0.2-0.6-0.6-1.1-0.5 0 0.2-0.1 0.3-0.1 0.4-0.2 3.3 0 6.6 0.7 9.9 0.5 2.1 1.5 3.9 3.2 5.4 2.6 2.4 5.2 4.7 8.1 6.6 2.5 1.6 4.5 3.8 6.1 6.4 0.3 0.5 1 1.1 0.3 1.8-0.6 0.6-1.3 0.1-1.9-0.1-1-0.5-1.9-1.2-2.9-1.6-3.1-1.3-6-3.1-9-4.6q-0.9-0.6-1.8-1.2c-0.4 0.4-0.3 0.8-0.3 1.2-0.3 4.7-0.6 9.5 0.3 14.2 0.1 0.6 0.4 1 0.8 1.3 1.5 1.4 2.9 2.7 4.5 3.9 1.5 1.3 3 2.6 4.4 4 0.6 0.6 1 1.3 1.5 2.1 0.6 0.8 0 1.5-0.9 1.4-1.1-0.1-2.1-0.4-3-0.8-2.4-1.3-4.8-2.5-7.1-4-0.3-0.3-0.6-0.6-1.2-0.6 0.1 1.7 0.1 3.5 0.5 5.1 0.5 1.6 1 3.2 1.4 4.8 0.1 0.6 0.5 0.8 1.1 0.8 3.7 0 7.4-0.5 11.1-0.9 2-0.2 4.1-0.5 6.2-0.5 1.2 0 2.5-0.3 3.8-0.5 0.6-0.1 1-0.5 1.1-1.2q0.3-1.6 0.7-3.2 2.4-8.3 4.9-16.6c1.4-4.7 2.7-9.6 4.4-14.2 0.9-2.4 1.5-4.9 2.1-7.4 0.5-1.8-0.1-3-1.4-4.1-3.1-2.7-6.5-4.9-9.9-7.3-1.7-1.2-3.3-2.4-5.1-3.3-5.2-2.9-10.3-5.9-15.3-9.1-1-0.6-1.9-1.2-3-1.8-1 2.2-2.1 4.2-2.9 6.4-0.3 0.7-0.2 1.3 0.4 1.8 1.9 1.4 3.7 3 5.5 4.5 2.7 2.3 5.3 4.5 8 6.8 1.5 1.3 2.7 3 3.5 4.8 0.3 0.5 0.5 1.1 0 1.5zm426.3-165.2c-3.6-0.1-7.2-0.3-10.8-0.5-1.9-0.1-3.9-0.4-5.8-0.7-0.8-0.1-1.7-0.1-2.5-0.1-0.4 0-0.8 0-1.2 0.2-2.8 1.3-5.6 2.6-7.8 4.7-1.7 1.6-3.6 2.9-5.4 4.2-0.6 0.4-0.7 0.8-0.3 1.4 0.7 1 1.3 2.2 2.1 3.1 0.3 0 0.4-0.2 0.6-0.3 1.3-1.7 3.1-2.7 5.2-3.2 2.7-0.6 5.4-1.7 8.2-2.3 1.9-0.3 3.8-0.7 5.8-1 2-0.3 3.9-1 5.8-1.6 0.6-0.2 1.1-0.3 1.7-0.1 0.9 0.2 1.1 0.2 1 1.2q0 0.8-0.3 1.6c-1.2 3.1-3.1 5.6-6.3 6.9-0.8 0.4-1.6 0.8-2.5 1.1 3.5-0.6 6.8-1.5 9.6-3.5q1.2-0.9 1.8-2.1c1-2.5 1.7-5 2.3-7.6 0.2-1.3 0.1-1.4-1.2-1.4zm124.4-101.4c-0.5-2.5-1.2-5-1.1-7.5-0.6-0.1-0.7 0.3-0.9 0.5-4.8 4.9-9.5 9.9-14.3 14.8-2.7 2.8-5.6 5.3-8.6 7.8-2.7 2.2-5.4 4.6-8.2 6.9-4.7 3.9-9.4 7.7-14.3 11.2-2.8 2-5.9 2.8-9.3 1.8-2.6-0.8-5.2-1.8-7.6-3.2-4.4-2.6-6.8-6.4-7-11.5-0.2-5.3 1.5-10 4.8-14.1 2.2-2.8 4.5-5.6 7.3-7.8 3.6-2.8 7-5.8 10.8-8.3 2.5-1.6 4.8-3.5 7.1-5.4 3.5-2.8 7.1-5.3 10.7-8 3.2-2.5 6.4-5.2 9.6-7.8 0.2-0.1 0.4-0.2 0.8-0.5-1.1-0.6-1.9-1.2-2.9-1.4-2.4-0.4-4.7-1.3-7-2-2.3-0.6-4.7-0.9-7.1-0.7-5.3 0.4-10.5 1.2-15.6 3-5.9 2-11.4 4.8-16.5 8.5-4.6 3.4-9.4 6.6-13.8 10.3-2.1 1.8-4.3 3.7-6.2 5.7-2.9 3.1-5.3 6.4-7 10.3-2.8 5.9-4.3 12-5.8 18.3-0.3 1.5-0.6 3.1-1 4.7-0.8 3.6-2.5 6.8-4.7 9.8-4.2 5.6-9.1 10.5-14.4 14.9-3.8 3.1-7.5 6.2-11.3 9.3-3.8 3.1-7.4 6.3-11.4 9.2-4.6 3.3-9.2 6.9-13.7 10.4-2.8 2.2-5.7 4.5-8.3 6.9-1.3 1.1-2.8 2-4 3.2-0.5 0.4-0.7 0.6-0.3 1.2 1.7 2.4 3.4 4.9 5 7.4 0.1 0.2 0.3 0.3 0.4 0.5 2.3-1.9 4.3-3.9 6.6-5.6 4.2-3.2 8.1-6.7 12.3-9.9 2.7-2.1 5.2-4.5 7.9-6.8 4.8-3.9 9.7-7.6 14.4-11.6 3.7-3.1 7.3-6.4 11-9.7 3.6-3.2 7.4-6.1 11.6-8.6 2.7-1.6 5.6-2 8.7-1.6 1.3 0.2 2.5 0.3 3.8 0.4 3.8 0.4 6.1 4.4 6.1 7.1 0.1 3.3-0.8 6.3-2.3 9.1-0.8 1.4-1.8 2.8-2.6 4.2-0.8 1.4-1.9 2.6-3.1 3.7q-4.3 4.3-9.3 8.1c-3.6 2.8-7.1 5.7-10.6 8.5-2.4 1.9-4.8 3.8-7.3 5.6-2.1 1.6-4 3.4-5.9 4.9-0.2 0.2-0.3 0.3-0.3 0.5 0.4 0.3 0.9 0.2 1.4 0.3 0.4 0 0.8 0 1.3 0.1 2.3 0.3 3.3 1.5 3.3 3.9 0 1.6-0.3 3.2-0.7 4.8 0.6 0 0.8-0.3 1.1-0.5 3.1-2.8 6.3-5.5 9.3-8.3 3.7-3.4 7.7-6.5 11.6-9.7 3.2-2.7 6.3-5.4 9.4-8.1 2.4-2.1 4.9-4.1 7.7-5.7 2.3-1.4 4.7-2.7 7.3-3.8 2.4-0.9 4.9-2 7.3-3 4.1-1.8 8.5-2.3 12.8-3.2 3.7-0.6 7.4-1 11-2.4 0.4-0.1 0.9-0.3 1.4-0.5 4.2-2.1 8.5-4.3 12.3-7.2 1.5-1.1 3.1-2.2 4.6-3.4 3.5-2.8 6.6-6.1 9.4-9.6q1-1.1 1.9-2.4c0.3-0.3 0.4-0.5 0-1-0.8-0.6-0.6-1.5-0.2-2.4 1-2.8 1.8-5.8 2.6-8.7 1.1-3.8 1.9-7.6 2.4-11.6 0-0.4 0.2-0.9 0.3-1.3 0-0.2 0.2-0.4 0.5-0.4 0.2 0 0.4 0.2 0.5 0.4 0.2 0.5 0.2 1 0.3 1.4 0.6 3.2 0 6.3-0.4 9.5-0.3 2.1-0.9 4.1-1.4 6.1-0.1 0.3-0.3 0.7 0 1.2 0.6-0.8 1-1.6 1.4-2.4 2.5-4.9 4-10 5.1-15.4 0.5-2.7 1-5.4 1.3-8.1 0.1-1.7 0.2-3.4-0.2-5.1zm-100.6 57.3c0-1.1 0-1.1-1-1.3-0.8-0.3-1.6-0.4-2.3 0.3-0.2 0.2-0.3 0.2-0.5 0.2-2.1 0.4-3.8 1.5-5.3 2.9-1.9 1.7-4 3.3-6 5-3.4 3-6.8 6-10.4 8.9-6.5 5.4-12.9 11-19.6 16.1-1.8 1.3-3.5 2.8-5.2 4.3-0.2 0.2-0.4 0.3-0.5 0.6 0.4 0.2 0.8 0 1.1-0.2 2.9-1.1 5.8-1.4 8.8-1.3 1.2 0 2.2-0.2 3.2-1 3.8-2.9 7.5-5.8 11.1-8.8 5-4.2 10.1-8 15.3-12 2.7-2.1 5.4-4.3 8-6.7 1.4-1.4 2.4-3.1 3.2-4.9 0.3-0.5 0.4-1.1 0.1-1.7q-0.1-0.2-0.1-0.5zm88.5-38.5c0 0.5 0.1 1.1 0 1.6-0.6 6-1.8 11.8-4 17.5-0.5 1.4-1 2.8-1.9 4-0.4 0.6-0.8 1.2-1.4 1.5-0.5 0.4-1.1 0.5-1.7 0.1-0.5-0.3-0.6-0.9-0.4-1.5 0.1-0.5 0.2-1.1 0.5-1.6 2.6-5.6 4.1-11.5 5.7-17.4 0.7-2.4 1.4-4.8 2.1-7.1 0-0.2 0.1-0.6 0.5-0.6 0.3 0 0.4 0.3 0.5 0.6 0.3 0.9 0.1 1.9 0.1 2.9zm-57.1-37.4c-0.7 0.1-1.4 0-1.7-0.7-0.3-0.6 0-1.2 0.5-1.7 0.6-0.7 1.4-1.1 2.2-1.4q2.5-0.9 4.9-1.7c3.8-1.3 7.6-2.1 11.6-2.1q0.6 0 1.3 0c1.3 0.1 2.6 0.3 3.8 0.6 0.2 0 0.5 0.1 0.5 0.4 0 0.3-0.2 0.5-0.4 0.5-0.5 0.1-1.1 0.3-1.6 0.4-4.5 0.7-9 1.7-13.4 3.1-2 0.6-3.9 1.4-5.9 2.1-0.6 0.2-1.2 0.5-1.9 0.5zm36.5 53.6c0.4 0.1 0.4 0.5 0.4 0.8 0 0.3-0.1 0.6-0.1 0.8-0.4 2.7-1.3 5.3-2.4 7.7-1.4 3.3-3.1 6.6-5.4 9.4-0.6 0.6-1.1 1.2-1.8 1.6-0.7 0.4-1.4 0.7-2.1 0.4-0.8-0.3-1-0.7-0.6-1.5 0.2-0.5 0.6-1 1-1.4q2-2.4 3.6-5.1c2-3.5 4-7 5.8-10.7 0.3-0.5 0.5-1 0.9-1.5 0.1-0.3 0.4-0.5 0.8-0.4zm-11.2 11.9c-1.8 4.8-4.8 8.9-8.5 12.4-0.7 0.6-1.4 1-2.6 1.1-0.6 0-1.3-0.2-1.7-0.9-0.4-0.7 0.2-1.2 0.6-1.7 0.1-0.3 0.4-0.5 0.7-0.8 0.6-0.6 1.3-1.2 1.8-1.9q3.3-3.9 6.7-7.9c0.5-0.6 1-1.2 1.7-1.7 0.3-0.3 0.7-0.5 1.1-0.2 0.5 0.2 0.4 0.7 0.4 1.1 0 0.1-0.1 0.3-0.2 0.5zm23-18.7c-0.9 6.3-2.9 12.1-6.5 17.4-0.6 0.9-1.3 1.8-2.1 2.5-0.5 0.5-1.2 0.9-2 0.9q-1.2 0.1-0.9-1.1c0.2-0.7 0.6-1.4 1.1-2 2.7-3.4 4.7-7.3 6.3-11.4 0.9-2.1 1.8-4.3 2.7-6.4 0.3-0.5 0.5-1.1 1.3-1.3 0.1 0.3 0.1 0.7 0.1 0.7 0 0.3 0 0.4 0 0.7zm-58.5-38.6c-0.2-0.5-0.1-1.1 0.4-1.6 0.2-0.4 0.6-0.7 1-0.9 0.8-0.4 1.6-0.8 2.5-1.1 3.9-1.6 7.9-2.9 12.2-3q1 0 2 0c0.5 0 0.9 0.2 1 0.7 0.1 0.5-0.3 0.7-0.7 0.9q-0.8 0.3-1.7 0.5c-4.6 1.1-9.1 2.7-13.4 4.6-0.6 0.3-1.2 0.5-1.9 0.5-0.5 0-1.1 0-1.4-0.6zm9 2.9c-4.1 1.6-8.1 3.4-12 5.3-0.9 0.5-1.8 0.7-2.8 0.7-0.9 0-1.1-0.3-0.7-1.1 0.5-1.2 1.4-2 2.5-2.6 1.7-0.9 3.4-1.7 5.2-2.4 2.5-1.1 5.1-1.9 8-2.1q0.2 0 0.6 0c0.4 0.1 0.9 0.2 1 0.7 0 0.4-0.3 0.6-0.6 0.8q-0.6 0.4-1.2 0.7zm-7.7 8.2c0.2 0.4-0.1 0.8-0.5 1-0.7 0.5-1.5 1.1-2.4 1.6-2.7 1.6-5.5 3.1-8 5-0.8 0.6-1.8 0.9-2.8 1.1-0.8 0.2-1.2-0.1-0.9-1 0.3-1.3 1.1-2.4 2.2-3.2 2.8-1.9 5.7-3.6 8.9-4.6 0.7-0.2 1.6-0.4 2.1-0.5 0.7 0 1.2 0.1 1.4 0.6zm21 52.4q-0.4 0.9-0.9 1.8-0.9 1.3-1.8 2.5c-1.1 1.4-2.2 2.8-3.4 4-0.8 0.9-1.8 1.5-2.9 2-0.6 0.3-1 0.1-1-0.5 0-0.1 0.1-0.3 0.1-0.4 0.9-1.1 1.5-2.2 2.4-3.2 1.6-1.9 3.3-3.8 4.8-5.8 0.3-0.5 0.6-0.9 0.9-1.4 0.4-0.4 0.8-0.8 1.4-0.5 0.5 0.2 0.7 0.8 0.4 1.5z"/>
			</g>
			<g>
				<path fill-rule="evenodd" class="s7" d="m408 97.5l-51.5 60.2c-23.8 1-96.9 4.6-96.9 4.6l123.9-64.5zm-33.8 60.2l42.9-44.7-15.2 44.4zm-115.1-44c-14.3 6.9-46.4 49-46.4 49 0 0 28.6-50.6 48.4-58 19.8-7.5 83.1-7.2 83.1-7.2 0 0-70.7 9.3-85 16.2zm273 49c0 0-32.1-42.1-46.4-48.9-14.3-6.9-66.6-15.7-66.6-15.7 0 0 44.8-0.9 64.6 6.6 19.9 7.4 48.4 58 48.4 58z"/>
			</g>
		</g>
	</g>
	<path id="Prime" class="s8" aria-label="Prime"  d="m678.9 164.6l-0.3 74.1h-18.6l0.4-92.8 65 0.3q11.5 0.1 19.6 8.2 8.1 8.2 8.1 19.8-0.1 11.6-8.3 19.6-8.1 8.1-19.7 8.1l-37.1-0.2 18.6-18.5 18.6 0.1q3.9 0 6.5-2.6 2.8-2.7 2.8-6.6 0-3.9-2.7-6.6-2.6-2.7-6.5-2.7zm166.6 74.9l-22.6-0.1-32.8-55.8 37.1 0.2q3.9 0 6.5-2.6 2.8-2.7 2.8-6.6 0-4-2.7-6.6-2.6-2.7-6.5-2.8l-46.4-0.2-0.4 92.8-18.7 18.4 0.6-129.8 64.9 0.3q11.6 0 19.7 8.2 8.1 8.2 8 19.7 0 11.6-8.2 19.7-8.1 8.1-19.7 8h-4.5zm37.5-92.6l-0.5 111.3-18.6 18.5 0.6-129.8zm77.9 93.1l-27.5-55.8-0.4 74.2-18.6 18.5 0.6-129.9 18.5 0.1 36.8 69.7 37.4-69.4 18.6 0.1-0.4 92.8-18.6-0.1 0.3-55.7-28.1 55.6zm186.1-91.9l-0.1 18.5-92.8-0.4 0.1-18.6zm27.7 37.3l-18.7 18.4-102-0.4 0.1-18.6zm-28 37l-0.1 18.5-92.7-0.4 0.1-18.6z"/>
</svg>