<?xml version="1.0" encoding="UTF-8" standalone="no"?>
<!-- Created with Inkscape (http://www.inkscape.org/) -->

<svg
   version="1.1"
   id="svg1"
   width="1356"
   height="304"
   viewBox="0 0 1356 304"
   xmlns:xlink="http://www.w3.org/1999/xlink"
   xmlns="http://www.w3.org/2000/svg"
   xmlns:svg="http://www.w3.org/2000/svg">
  <defs
     id="defs1">
    <linearGradient
       id="linearGradient226">
      <stop
         style="stop-color:#d8e0e6;stop-opacity:1;"
         offset="0"
         id="stop226" />
      <stop
         style="stop-color:#b4c0ca;stop-opacity:1;"
         offset="0.5"
         id="stop228" />
      <stop
         style="stop-color:#8f9fa9;stop-opacity:1;"
         offset="1"
         id="stop227" />
    </linearGradient>
    <linearGradient
       id="linearGradient223">
      <stop
         style="stop-color:#1e6fc4;stop-opacity:1;"
         offset="0"
         id="stop224" />
      <stop
         style="stop-color:#0a2f77;stop-opacity:1;"
         offset="1"
         id="stop225" />
    </linearGradient>
    <linearGradient
       id="linearGradient221">
      <stop
         style="stop-color:#39a0e6;stop-opacity:1;"
         offset="0"
         id="stop221" />
      <stop
         style="stop-color:#1e6fc4;stop-opacity:1;"
         offset="0.5"
         id="stop223" />
      <stop
         style="stop-color:#0f3c84;stop-opacity:1;"
         offset="1"
         id="stop222" />
    </linearGradient>
    <linearGradient
       xlink:href="#linearGradient221"
       id="linearGradient222"
       x1="87.600288"
       y1="59.877274"
       x2="395.56033"
       y2="59.877274"
       gradientUnits="userSpaceOnUse" />
    <linearGradient
       xlink:href="#linearGradient223"
       id="linearGradient225"
       x1="54.885849"
       y1="142.57207"
       x2="364.017"
       y2="142.57207"
       gradientUnits="userSpaceOnUse" />
    <linearGradient
       xlink:href="#linearGradient226"
       id="linearGradient227"
       x1="21.814913"
       y1="227.75656"
       x2="330.44772"
       y2="227.75656"
       gradientUnits="userSpaceOnUse" />
  </defs>
  <g
     id="g1">
    <g
       id="g2"
       transform="translate(19.677275,2.5115261)">
      <path
         d="m 188.52976,197.04902 c -127.868769,0.15828 -80.18548,0.0801 -142.900394,0.26367 -7.66604,19.4286 -23.81445,61.1543 -23.814454,61.1543 l 228.978518,0.01 c 17.14228,-1.32439 39.43543,-3.20957 54.25637,-15.05654 13.43328,-10.73776 18.7825,-28.73035 25.39792,-46.01964 0,0 -95.08238,-0.44593 -141.91796,-0.35156 z"
         style="fill:url(#linearGradient227)"
         id="path220" />
      <path
         style="fill:url(#linearGradient225)"
         d="M 54.885848,173.69675 79.061389,111.48409 364.017,111.43799 339.74837,173.70615 Z"
         id="path3" />
      <path
         d="m 297.82468,29.599802 -124.97656,0.191406 c 0,0 -17.97192,-0.0025 -30.0879,0.472657 -3.89283,0.152673 -7.95844,0.409866 -10.93359,1.126953 -15.20308,3.76644 -24.47592,14.723699 -31.828124,27.509765 -4.694609,8.181381 -12.398218,31.254162 -12.398218,31.254162 l 284.590342,-0.0013 23.36971,-60.229869 z"
         style="fill:url(#linearGradient222)"
         id="path114" />
    </g>
    <path
       d="m 454.31862,133.20632 c 38.01227,0 76.02455,0 114.03682,0 10.64344,0 21.06966,-4.34426 29.32376,-11.07786 8.4713,-7.16803 15.20491,-16.7254 17.37704,-27.151623 0.86885,-3.909834 1.52049,-7.819668 2.38934,-11.729502 2.17213,-10.643437 -0.21721,-19.983595 -5.64754,-27.151624 -5.43032,-6.733603 -14.11884,-11.077863 -24.76228,-11.077863 -38.01227,0 -76.02455,0 -114.03682,0 -8.90574,0 -18.02868,0 -27.15163,0 -1.7377,7.602455 -3.25819,15.422123 -4.9959,23.024577 -1.52049,7.168029 -2.82377,14.118845 -4.34426,21.069661 -1.52049,6.950816 -3.04098,13.901634 -4.56147,20.852444 -1.52049,7.81967 -3.2582,15.63934 -4.9959,23.24179 -1.30328,7.16803 -2.82377,14.11885 -4.34426,21.06967 -1.52049,6.95081 -3.04098,13.90163 -4.34426,20.85244 8.90573,0 18.02868,0 27.15163,0 1.52049,-6.95081 2.82376,-13.90163 4.34426,-20.85244 1.52049,-6.95082 3.04098,-13.90164 4.56147,-21.06967 z m 115.12289,-23.24179 c -36.709,0 -73.418,0 -110.12699,0 1.30328,-6.95081 2.82377,-13.901628 4.34426,-20.852444 1.52049,-6.950816 3.04098,-13.901632 4.56147,-21.069661 36.709,0 73.41799,0 110.12699,0 8.25409,0 13.46721,6.950816 11.7295,15.20491 -0.65164,3.909834 -1.52049,7.819668 -2.38934,11.729502 -1.7377,8.254093 -9.9918,14.987693 -18.24589,14.987693 z M 786.65434,44.800635 c -38.22949,0 -76.24176,0 -114.25404,0 -9.12294,0 -18.02868,0 -27.15162,0 -1.52049,7.819668 -3.2582,15.639336 -4.77869,23.24179 -1.52049,7.168029 -3.04098,14.118845 -4.56147,21.069661 -1.52049,6.950816 -3.04098,13.901634 -4.34426,20.852444 -1.7377,7.81967 -3.47541,15.63934 -5.21311,23.24179 -1.30328,7.16803 -2.82377,14.11885 -4.34426,21.06967 -1.52049,6.95081 -2.82377,13.90163 -4.34426,21.06966 8.90573,0 18.02868,0 27.15162,0 1.52049,-7.16803 3.04098,-14.11885 4.34426,-21.06966 1.52049,-6.95082 3.04098,-13.90164 4.56148,-21.06967 32.36473,0 64.51226,0 96.87699,0 2.60656,7.16803 5.21311,14.11885 7.60246,21.06967 2.60655,6.95081 5.21311,13.90163 7.60245,21.06966 10.42623,0 21.06966,0 31.49589,0 -2.60656,-7.38525 -5.43033,-14.77049 -8.03688,-22.15573 -2.82377,-7.38524 -5.43033,-14.77048 -8.03688,-22.15573 16.07376,-5.21311 29.75818,-19.54917 33.23358,-36.057353 0.65164,-3.909834 1.73771,-7.819668 2.38935,-11.729502 2.38934,-10.426224 -0.21722,-20.200808 -5.64754,-27.151624 -5.43033,-6.733603 -14.11885,-11.295076 -24.54507,-11.295076 z m -17.81147,65.163895 c -36.70899,0 -73.6352,0 -110.3442,0 1.52049,-6.95081 3.04098,-13.901628 4.56147,-20.852444 1.5205,-6.950816 3.04099,-13.901632 4.34426,-21.069661 36.709,0 73.63521,0 110.34421,0 8.4713,0 13.68442,6.950816 11.94671,15.20491 -0.86885,3.909834 -1.7377,7.819668 -2.60655,11.729502 -1.73771,8.254093 -9.77459,14.987693 -18.2459,14.987693 z m 81.23748,65.1639 c 4.77868,-21.50408 9.34016,-43.22538 13.90163,-64.94668 4.56147,-21.721303 9.34016,-43.442602 13.90163,-65.163902 -9.12295,0 -18.24589,0 -27.15162,0 -4.56148,21.7213 -9.34016,43.442599 -13.90164,65.163902 -4.56147,21.7213 -9.12294,43.4426 -13.68441,64.94668 8.90573,0 18.02867,0 26.93441,0 z m 52.78288,0 c 3.69262,-17.81146 7.38525,-35.62293 11.29508,-53.43439 3.69262,-17.81147 7.60245,-35.622936 11.51229,-53.651615 3.04098,0 6.08196,0 9.12294,0 5.21312,0 8.90574,2.389343 10.42623,6.950816 0,0.217213 0.21721,0.217213 0.21721,0.434426 4.12705,11.077863 8.03688,22.155726 12.16393,33.233593 3.90983,11.07786 8.03688,22.15572 12.16393,33.23358 2.38934,6.51639 8.03688,10.20902 15.42212,10.20902 5.86475,0 11.7295,0 17.59424,0 7.3853,0 14.5533,-3.69263 19.5492,-10.20902 8.6885,-11.07786 17.5942,-22.15572 26.2828,-33.23358 8.9057,-11.077867 17.5942,-22.15573 26.4999,-33.233593 0,-0.217213 0,-0.217213 0.2173,-0.434426 3.4754,-4.34426 8.254,-6.950816 13.2499,-6.950816 3.2582,0 6.2992,0 9.3402,0 -3.6926,18.028679 -7.6024,35.840145 -11.2951,53.651615 -3.9098,17.81146 -7.6024,35.62293 -11.295,53.43439 8.9057,0 18.0286,0 27.1516,0 4.5615,-21.50408 9.1229,-43.22538 13.9016,-64.94668 4.5615,-21.721303 9.123,-43.442602 13.6844,-65.163902 -9.1229,0 -18.0286,0 -27.1516,0 -4.7787,0 -9.3402,0 -14.1188,0 -13.0328,0 -26.2828,6.733603 -35.623,18.245892 -8.2541,10.426223 -16.7254,21.06966 -25.1967,31.713097 -8.2541,10.643433 -16.5082,21.069663 -24.9795,31.713093 -1.086,1.5205 -2.6065,2.17213 -4.12702,2.17213 -1.73771,0 -2.82377,-0.65163 -3.2582,-2.17213 -3.90983,-10.42622 -7.81966,-21.06966 -11.7295,-31.713093 -3.69262,-10.426224 -7.60245,-21.069661 -11.51229,-31.495884 0,0 0,-0.217213 0,-0.217213 -4.12704,-11.512289 -14.55327,-18.245892 -28.02047,-18.245892 -4.77869,0 -9.34016,0 -13.90164,0 -9.12294,0 -18.24589,0 -27.15162,0 -4.56147,21.7213 -9.34016,43.442599 -13.90163,65.163902 -4.56148,21.50408 -9.34016,43.4426 -13.68442,64.94668 8.90573,0 18.02868,0 27.15162,0 z m 227.20467,-38.22948 c -2.1722,10.64343 0,20.2008 5.4303,27.15162 5.2131,6.95082 14.1188,11.07786 24.7623,11.07786 47.1352,0 94.0532,0 141.1884,0 1.7377,-7.60245 3.2582,-15.42212 4.9959,-23.02457 -45.1803,0 -90.1434,0 -135.3237,0 -9.3402,0 -15.6393,-7.81967 -13.4672,-17.37704 0.8689,-4.34426 1.7377,-8.68852 2.6066,-13.03278 50.8278,0 101.6556,0 152.4835,0 1.7377,-7.81967 3.4754,-15.42213 4.9959,-23.241795 -50.8279,0 -101.6557,0 -152.4835,0 0.8688,-4.34426 1.9549,-8.68852 2.8237,-13.03278 2.1722,-9.557372 11.5123,-17.37704 21.0697,-17.37704 44.9631,0 89.9262,0 135.1065,0 1.7377,-7.602454 3.2582,-15.422122 4.9959,-23.024577 -47.3525,0 -94.2705,0 -141.4057,0 -10.6434,0 -21.0697,4.34426 -29.541,11.077863 -8.2541,7.168029 -14.7704,16.7254 -16.9426,27.151624 -1.9549,8.905733 -3.6926,17.811465 -5.6475,26.934415 -1.9549,8.90573 -3.9098,17.81146 -5.6475,26.7172 z"
       id="text9"
       style="font-weight:500;font-size:217.213px;font-family:Crenoer;-inkscape-font-specification:'Crenoer Medium';fill:#ffffff;stroke-width:1.13132"
       aria-label="PRIME" />
    <rect
       style="fill:#808080;stroke-width:3.10211"
       id="rect9"
       width="959.95752"
       height="11.834415"
       x="370.79391"
       y="184.26662" />
    <path
       style="font-weight:500;font-size:60px;font-family:'Mugen Grotesk FW';-inkscape-font-specification:'Mugen Grotesk FW Medium';fill:#ffffff"
       d="m 426.1396,241.34078 h -21 l 10.5,-17.58 z m -40.14,18.3 h 8.7 l 7.26,-12 h 27.36 l 7.26,12 h 8.7 l -25.32,-42 h -8.58 z m 116.34003,-42 h -6.84 v 27.36 c 0,2.22 -0.54,4.02 -1.68,5.46 -1.14,1.44 -3.36,2.16 -6.66,2.16 h -20.82 c -3.3,0 -5.46,-0.72 -6.6,-2.16 -1.14,-1.44 -1.74,-3.24 -1.74,-5.46 v -27.36 h -6.84 v 29.88 c 0,7.74 4.38,12.12 12.12,12.12 h 27 c 7.74,0 12.06,-4.38 12.06,-12.12 z m 35.51999,6.84 h 21.24 v -6.84 h -49.38 v 6.84 h 21.3 v 35.16 h 6.84 z m 41.69996,28.14 c -6,0 -7.74,-3 -7.74,-7.02 v -13.68 c 0,-2.1 0.54,-3.84 1.62,-5.22 1.08,-1.38 3.18,-2.04 6.36,-2.04 h 23.28 c 3,0 5.04,0.66 6.06,1.98 1.02,1.32 1.56,3 1.56,4.98 v 13.92 c 0,4.08 -1.74,7.08 -7.8,7.08 z m 25.86,7.02 c 7.74,0 12.12,-4.38 12.12,-12.12 v -17.76 c 0,-7.74 -4.38,-12.12 -12.12,-12.12 h -28.38 c -7.74,0 -12.06,4.38 -12.06,12.12 v 17.76 c 0,7.74 4.32,12.12 12.06,12.12 z m 53.82005,-15.54 h 22.74 l 11.16,15.54 h 8.28 l -11.16,-15.6 c 4.26,-0.18 7.26,-1.08 9.06,-2.76 2.04,-1.86 3.06,-4.68 3.06,-8.52 v -3.78 c 0,-7.44 -3.84,-11.34 -12.96,-11.34 h -37.02 v 42 h 6.84 z m 36.3,-12.18 c 0,3.36 -1.86,5.34 -6.96,5.34 h -29.34 v -12.78 h 29.34 c 5.1,0 6.96,2.4 6.96,5.76 z m 21.05998,10.2 h 39.72 v -7.02 h -39.72 l 0.06,-10.44 h 41.46 v -7.02 h -48.36 v 42 h 48.36 v -7.02 h -41.46 z m 91.79999,-9.18 c 0,3.6 -1.5,5.7 -6.96,5.7 h -29.04 v -13.98 h 29.04 c 5.28,0 6.96,2.22 6.96,5.64 z m -42.84,26.7 h 6.84 v -13.98 h 30 c 8.46,0 12.9,-3.24 12.9,-11.58 v -4.86 c 0,-8.34 -4.44,-11.58 -12.9,-11.58 h -36.84 z m 86.76006,-18.3 h -21 l 10.5,-17.58 z m -40.14,18.3 h 8.7 l 7.26,-12 h 27.36 l 7.26,12 h 8.7 l -25.32,-42 h -8.58 z m 73.55997,-42 h -6.84 v 42 h 6.84 z m 14.21997,26.46 h 22.74 l 11.16,15.54 h 8.28 l -11.16,-15.6 c 4.26,-0.18 7.26,-1.08 9.06,-2.76 2.04,-1.86 3.06,-4.68 3.06,-8.52 v -3.78 c 0,-7.44 -3.84,-11.34 -12.96,-11.34 h -37.02 v 42 h 6.84 z m 36.3,-12.18 c 0,3.36 -1.86,5.34 -6.96,5.34 h -29.34 v -12.78 h 29.34 c 5.1,0 6.96,2.4 6.96,5.76 z m 94.62,3.36 v -1.14 c 0,-10.56 -5.88,-16.5 -16.44,-16.5 h -20.10004 c -10.5,0 -16.38,5.94 -16.38,16.5 v 9.72 c 0,10.08 5.64,15.78 15.72,15.78 h 20.76004 c 10.56,0 16.44,-5.94 16.44,-16.5 v -1.14 h -6.9 v 0.78 c 0,6.96 -2.88,9.96 -10.14,9.96 h -10.62 l -8.52004,0.06 c -6.78,-0.06 -9.84,-2.88 -9.84,-9.54 v -8.28 c 0,-7.86 2.82,-10.5 10.08,-10.5 h 18.90004 c 7.26,0 10.14,2.82 10.14,10.02 v 0.78 z m 14.2199,6.84 h 39.72 v -7.02 h -39.72 l 0.06,-10.44 h 41.46 v -7.02 h -48.36 v 42 h 48.36 v -7.02 h -41.46 z m 48.96,17.52 h 6.9 v -34.44 l 37.02,34.44 h 8.22 v -42 h -6.78 v 34.02 l -36.72,-34.02 h -8.64 z m 86.64,-35.16 h 21.24 v -6.84 h -49.38 v 6.84 h 21.3 v 35.16 h 6.84 z m 33.96,17.64 h 39.72 v -7.02 h -39.72 l 0.06,-10.44 h 41.46 v -7.02 h -48.36 v 42 h 48.36 v -7.02 h -41.46 z m 55.8,1.98 h 22.74 l 11.16,15.54 h 8.28 l -11.16,-15.6 c 4.26,-0.18 7.26,-1.08 9.06,-2.76 2.04,-1.86 3.06,-4.68 3.06,-8.52 v -3.78 c 0,-7.44 -3.84,-11.34 -12.96,-11.34 h -37.02 v 42 h 6.84 z m 36.3,-12.18 c 0,3.36 -1.86,5.34 -6.96,5.34 h -29.34 v -12.78 h 29.34 c 5.1,0 6.96,2.4 6.96,5.76 z"
       id="text10"
       aria-label="AUTO REPAIR CENTER" />
  </g>
</svg>
