<?xml version="1.0" encoding="UTF-8" standalone="no"?>
<!-- Created with Inkscape (http://www.inkscape.org/) -->

<svg
   version="1.1"
   id="svg1"
   width="1356"
   height="304"
   viewBox="0 0 1356 304"
   xmlns="http://www.w3.org/2000/svg"
   xmlns:svg="http://www.w3.org/2000/svg">
  <defs
     id="defs1" />
  <g
     id="g1">
    <g
       id="g2"
       transform="translate(3.7291304e-7,4.4654205)">
      <path
         style="fill:#a6b8c5"
         d="m 397.93717,269.33333 c -3.29591,0 -4.60384,-0.59509 -4.60384,-2.09469 0,-1.15208 7.33678,-11.0799 16.30395,-22.06181 l 16.30394,-19.96712 5.32831,0.39514 5.32831,0.39515 7.80506,19.76743 c 4.29279,10.87209 7.4624,20.66041 7.04358,21.75183 -0.51008,1.32926 -2.19513,1.84623 -5.10398,1.5659 -3.51316,-0.33857 -4.8091,-1.37341 -6.78564,-5.41849 l -2.44315,-5 H 424.11334 411.11297 L 406.82699,264 c -3.50778,4.36497 -5.1219,5.33333 -8.88982,5.33333 z M 426.57587,248 c 3.71661,0 6.75746,-0.31927 6.75746,-0.70949 0,-0.39022 -0.90006,-2.86364 -2.00013,-5.49648 -1.71228,-4.09806 -2.29691,-4.54069 -4.06224,-3.0756 -1.13416,0.94127 -3.27496,3.41469 -4.75733,5.49648 L 419.81842,248 Z m 55.92789,21.33333 c -17.99688,0 -18.73534,-0.11036 -21.8977,-3.27272 -1.8,-1.8 -3.27273,-4.40912 -3.27273,-5.79804 0,-1.38891 1.48843,-9.25476 3.30762,-17.47965 1.8192,-8.2249 3.65461,-15.51578 4.07869,-16.20197 0.42409,-0.68619 2.25449,-1.24762 4.06756,-1.24762 1.81307,0 3.65361,0.93063 4.09008,2.06807 0.43648,1.13743 -0.48781,8.0859 -2.05397,15.44103 -1.56616,7.35513 -2.5067,13.9245 -2.09008,14.5986 0.41661,0.6741 7.30824,1.22564 15.31472,1.22564 13.65927,0 14.67138,-0.18506 16.40756,-3 1.01768,-1.65 2.90366,-8.1 4.19108,-14.33334 1.28742,-6.23333 2.88971,-12.38333 3.56066,-13.66666 0.67095,-1.28334 2.71763,-2.33334 4.54817,-2.33334 1.83055,0 3.63406,0.79686 4.00779,1.7708 0.37374,0.97394 -0.57449,7.72394 -2.10716,15 -1.53267,7.27606 -3.43511,14.89135 -4.22764,16.92287 -0.79253,2.03151 -3.20917,5.18151 -5.37032,7 -3.77236,3.17423 -4.67352,3.30633 -22.55433,3.30633 z m 57.15533,-0.24404 c -2.48189,0.28548 -3.95245,-0.30233 -4.53151,-1.81134 -0.47149,-1.22868 0.43193,-8.37793 2.00759,-15.88723 1.57565,-7.5093 2.86483,-14.3442 2.86483,-15.18866 0,-1.0098 -3.14612,-1.53539 -9.19068,-1.53539 -7.12769,0 -9.37127,-0.47062 -9.99522,-2.09659 -0.4425,-1.15313 -0.18558,-3.25313 0.57093,-4.66667 1.28155,-2.3946 3.0467,-2.57008 25.85256,-2.57008 21.02862,0 24.59045,0.29538 25.28164,2.09659 0.4425,1.15313 0.18558,3.25313 -0.57092,4.66667 -1.16708,2.18071 -2.86308,2.57008 -11.19471,2.57008 h -9.81925 L 548.6995,245 c -1.22917,5.68333 -2.9394,13.33333 -3.80051,17 -1.36761,5.82335 -2.03044,6.72013 -5.2399,7.08929 z m 55.43383,0.24404 c -18.62241,0 -19.31492,-0.10078 -22.48686,-3.27272 -1.8,-1.8 -3.27273,-4.47677 -3.27273,-5.94837 0,-1.4716 1.2067,-7.85083 2.68155,-14.17607 1.47486,-6.32524 3.29264,-12.64227 4.03953,-14.03784 0.74689,-1.39557 3.11039,-3.44361 5.25224,-4.5512 2.93305,-1.51674 8.53299,-2.0138 22.68774,-2.0138 18.1758,0 18.90105,0.10757 22.06622,3.27273 1.8,1.8 3.27272,4.13582 3.27272,5.19071 0,1.0549 -0.96915,6.63217 -2.15368,12.39394 -1.18452,5.76178 -2.97253,12.07298 -3.97336,14.0249 -1.00082,1.95191 -3.41258,4.80191 -5.35946,6.33333 -3.21773,2.53107 -5.28791,2.78439 -22.75391,2.78439 z m 1.48918,-10.66666 c 11.52505,0 15.46883,-0.45481 16.68863,-1.92457 0.87848,-1.0585 2.45659,-5.60828 3.50692,-10.11061 1.05032,-4.50232 1.56961,-8.73627 1.15399,-9.40877 C 617.51601,236.55022 610.08416,236 601.4164,236 h -15.75955 l -1.46392,3.66667 c -0.80516,2.01666 -2.08924,6.55569 -2.85351,10.08673 -0.76427,3.53104 -1.04289,6.98104 -0.61915,7.66667 0.42374,0.68563 7.56156,1.2466 15.86183,1.2466 z m 61.32914,10.66666 c -1.83055,0 -3.66041,-0.86555 -4.06637,-1.92345 -0.40595,-1.0579 0.89285,-9.6079 2.88622,-19 1.99337,-9.3921 4.1295,-18.42655 4.74695,-20.07655 1.1013,-2.94301 1.53672,-3 22.92321,-3 21.43613,0 21.8521,0.0548 24.88233,3.28037 2.48919,2.64963 2.94688,4.2859 2.38032,8.50987 -0.38578,2.87622 -1.51798,6.92826 -2.51599,9.00453 -0.99802,2.07626 -3.61458,4.69682 -5.81458,5.82346 -2.2,1.12664 -4.25753,2.20597 -4.5723,2.39852 -0.31476,0.19254 0.43524,2.46289 1.66667,5.04523 1.23143,2.58234 2.23897,5.87481 2.23897,7.31659 0,2.09781 -0.91525,2.62143 -4.58204,2.62143 -4.1623,0 -4.92569,-0.64124 -8.33334,-7 l -3.75129,-7 -10.26263,-0.38814 -10.26264,-0.38815 -0.91286,5.05481 c -0.50208,2.78015 -1.45501,6.10482 -2.11762,7.38815 -0.6626,1.28333 -2.70246,2.33333 -4.53301,2.33333 z M 683.17007,244 c 11.63484,0 15.5445,-0.45115 16.77677,-1.93595 0.88368,-1.06477 1.39997,-3.01477 1.1473,-4.33333 -0.40447,-2.11076 -2.25282,-2.44248 -15.45978,-2.77454 l -15.00037,-0.37716 -1.317,3.46396 C 668.59265,239.94815 668,242.06787 668,242.75347 668,243.45358 674.6498,244 683.17007,244 Z m 53.133,25.0302 c -20.40421,0.30445 -24.48542,0.046 -25.11327,-1.59013 -0.41233,-1.0745 0.88125,-9.63809 2.87462,-19.03019 1.99338,-9.3921 4.13466,-18.44012 4.75842,-20.10671 1.12966,-3.01832 1.22929,-3.02874 25.48896,-2.66666 23.21349,0.34645 24.37085,0.48846 24.69584,3.03016 0.18753,1.46666 -0.23943,3.56666 -0.94881,4.66666 -1.02997,1.59712 -5.30261,2.08609 -21.21006,2.42738 -18.14381,0.38926 -19.97846,0.64991 -20.57284,2.92279 -0.35891,1.37248 -0.31782,2.83016 0.0913,3.23929 0.40913,0.40913 8.7627,0.74388 18.5635,0.74388 14.17443,0 17.96844,0.38781 18.54711,1.89581 0.40012,1.0427 0.069,3.1263 -0.73592,4.63022 -1.35475,2.53138 -2.8722,2.76187 -20.43601,3.10419 -18.53186,0.36119 -18.98248,0.43947 -19.39865,3.36978 -0.42343,2.98142 -0.31612,3.00012 17.33333,3.02041 9.76767,0.0112 18.55745,0.52634 19.53283,1.14468 1.00729,0.63856 1.58331,2.78981 1.33334,4.97958 l -0.4401,3.85533 z m 33.68367,0.30313 c -1.87207,0 -3.73591,-0.86555 -4.14187,-1.92345 -0.40595,-1.0579 0.84672,-9.6079 2.78373,-19 1.937,-9.3921 4.07511,-18.42655 4.75136,-20.07655 1.20093,-2.93021 1.713,-3 22.01244,-3 11.61591,0 21.90699,0.60159 23.33136,1.36389 1.40165,0.75014 3.19876,2.57899 3.99357,4.06411 1.03972,1.94274 1.03333,4.68379 -0.0228,9.77111 -1.01825,4.90487 -2.7032,8.25485 -5.50048,10.93589 -3.97882,3.81349 -4.27143,3.87119 -21.95412,4.32934 l -17.92155,0.46433 -0.75147,3.53567 c -0.4133,1.94461 -1.29708,4.88566 -1.96394,6.53566 -0.81277,2.01103 -2.33454,3 -4.61623,3 z m 24.34659,-24.02041 c 7.88334,-0.0112 15.06848,-0.48746 15.96699,-1.05829 0.89851,-0.57083 1.79851,-2.51164 2,-4.31292 l 0.36635,-3.27504 -15.50047,-0.37421 c -15.15432,-0.36586 -15.51866,-0.3063 -16.31513,2.66666 -0.44806,1.67249 -0.82285,3.79088 -0.83286,4.70755 -0.0135,1.23235 3.71688,1.66134 14.31512,1.64625 z m 22.27051,24.02041 c -3.29591,0 -4.60384,-0.59509 -4.60384,-2.09469 0,-1.15208 7.33677,-11.0799 16.30394,-22.06181 l 16.30395,-19.96712 5.3283,0.39514 5.32831,0.39515 7.80507,19.76743 c 4.29279,10.87209 7.4624,20.66041 7.04358,21.75183 -0.51008,1.32926 -2.19514,1.84623 -5.10398,1.5659 -3.51316,-0.33857 -4.8091,-1.37341 -6.78565,-5.41849 l -2.44314,-5 H 842.78001 829.77964 L 825.49366,264 c -3.50779,4.36497 -5.1219,5.33333 -8.88982,5.33333 z M 845.24254,248 c 3.7166,0 6.75746,-0.31927 6.75746,-0.70949 0,-0.39022 -0.90006,-2.86364 -2.00013,-5.49648 -1.71228,-4.09806 -2.29691,-4.54069 -4.06224,-3.0756 -1.13416,0.94127 -3.27496,3.41469 -4.75733,5.49648 L 838.48508,248 Z m 36.6687,21.33333 c -1.83055,0 -3.66041,-0.86555 -4.06637,-1.92345 -0.40595,-1.0579 0.89285,-9.6079 2.88622,-19 1.99337,-9.3921 4.1295,-18.42655 4.74695,-20.07655 0.76184,-2.03588 2.21792,-3 4.53081,-3 1.87449,0 3.76644,0.93362 4.20431,2.0747 0.43788,1.14108 -0.87168,9.99108 -2.91011,19.66666 -2.03844,9.67559 -4.23664,18.64198 -4.88489,19.92531 -0.64873,1.28427 -2.67504,2.33333 -4.50692,2.33333 z m 13.33334,0 c -1.83055,0 -3.66042,-0.86555 -4.06637,-1.92345 -0.40596,-1.0579 0.89284,-9.6079 2.88621,-19 1.99338,-9.3921 4.1295,-18.42655 4.74695,-20.07655 1.1013,-2.94301 1.53672,-3 22.92321,-3 21.43614,0 21.8521,0.0548 24.88233,3.28037 2.48919,2.64963 2.94688,4.2859 2.38033,8.50987 -0.38579,2.87622 -1.51798,6.92826 -2.516,9.00453 -0.99802,2.07626 -3.61457,4.69682 -5.81457,5.82346 -2.2,1.12664 -4.25754,2.20597 -4.5723,2.39852 -0.31477,0.19254 0.43523,2.46289 1.66666,5.04523 1.23144,2.58234 2.23897,5.87481 2.23897,7.31659 0,2.09781 -0.91525,2.62143 -4.58204,2.62143 -4.1623,0 -4.92568,-0.64124 -8.33333,-7 l -3.7513,-7 -10.26263,-0.38814 -10.26263,-0.38815 -0.91287,5.05481 c -0.50208,2.78015 -1.455,6.10482 -2.11761,7.38815 -0.66261,1.28333 -2.70247,2.33333 -4.53301,2.33333 z M 920.50341,244 c 11.63483,0 15.5445,-0.45115 16.77676,-1.93595 0.88369,-1.06477 1.39997,-3.01477 1.1473,-4.33333 -0.40447,-2.11076 -2.25282,-2.44248 -15.45977,-2.77454 l -15.00038,-0.37716 -1.31699,3.46396 c -0.72435,1.90517 -1.317,4.02489 -1.317,4.71049 0,0.70011 6.64981,1.24653 15.17008,1.24653 z m 80.57209,25.33333 c -16.72795,0 -17.29091,-0.0942 -20.65255,-3.45584 -3.25153,-3.25153 -3.40939,-4.00986 -2.67019,-12.82712 0.48011,-5.72675 1.97731,-11.7712 3.84978,-15.54224 1.68527,-3.39402 5.10286,-7.52181 7.59464,-9.17287 4.0624,-2.69176 6.17015,-3.00193 20.39952,-3.00193 11.5825,0 16.9264,0.54679 19.7835,2.02425 2.153,1.11334 4.2674,3.43032 4.6987,5.14884 0.4313,1.71852 0.59,5.15761 0.3527,7.64242 -0.3829,4.00799 -0.8722,4.51783 -4.3357,4.51783 -3.1858,0 -4.0952,-0.71494 -4.9434,-3.88636 -0.5717,-2.1375 -1.8148,-4.37831 -2.7626,-4.97958 -0.9478,-0.60128 -7.1397,-1.10242 -13.7599,-1.11365 -8.67118,-0.0147 -12.85072,0.54978 -14.94817,2.0189 -1.60134,1.12162 -3.5315,4.27162 -4.28924,7 -0.75775,2.72838 -1.38106,7.14071 -1.38515,9.80518 -0.006,3.90007 0.5774,5.00122 2.99256,5.64846 1.65,0.44218 7.31094,0.81216 12.5799,0.82217 5.2689,0.01 11.0902,-0.55601 12.9361,-1.25784 1.846,-0.70183 4.3004,-3.10183 5.4544,-5.33334 1.4909,-2.88312 3.0649,-4.05728 5.439,-4.05728 1.8862,0 3.7117,0.96616 4.1924,2.21884 0.4683,1.22036 -0.3005,4.35178 -1.7085,6.95872 -1.408,2.60693 -4.5987,6.10846 -7.0905,7.78116 -4.1335,2.77477 -6.0374,3.04128 -21.7273,3.04128 z m 57.8942,-0.30313 c -20.4042,0.30445 -24.4854,0.046 -25.1132,-1.59013 -0.4124,-1.0745 0.8812,-9.63809 2.8746,-19.03019 1.9934,-9.3921 4.1346,-18.44012 4.7584,-20.10671 1.1297,-3.01832 1.2293,-3.02874 25.489,-2.66666 23.2135,0.34645 24.3708,0.48846 24.6958,3.03016 0.1875,1.46666 -0.2394,3.56666 -0.9488,4.66666 -1.03,1.59712 -5.3026,2.08609 -21.2101,2.42738 -18.1438,0.38926 -19.9784,0.64991 -20.5728,2.92279 -0.3589,1.37248 -0.3178,2.83016 0.091,3.23929 0.4091,0.40913 8.7627,0.74388 18.5635,0.74388 14.1744,0 17.9684,0.38781 18.5471,1.89581 0.4001,1.0427 0.069,3.1263 -0.7359,4.63022 -1.3548,2.53138 -2.8722,2.76187 -20.436,3.10419 -18.5319,0.36119 -18.9825,0.43947 -19.3987,3.36978 -0.4234,2.98142 -0.3161,3.00012 17.3334,3.02041 9.7676,0.0112 18.5574,0.52634 19.5328,1.14468 1.0073,0.63856 1.5833,2.78981 1.3333,4.97958 l -0.4401,3.85533 z m 34.9415,0.30313 c -1.8305,0 -3.6604,-0.86555 -4.0663,-1.92345 -0.406,-1.0579 0.8928,-9.6079 2.8862,-19 1.9934,-9.3921 4.1295,-18.42655 4.7469,-20.07655 0.8529,-2.279 2.172,-2.99509 5.489,-2.97958 2.4015,0.0112 5.0298,0.46123 5.8407,1 0.811,0.53877 6.7078,6.97958 13.1042,14.31292 6.3964,7.33333 12.132,13.51636 12.7458,13.74006 0.6138,0.2237 1.4155,-0.6763 1.7816,-2 0.366,-1.3237 1.6823,-7.20673 2.9251,-13.0734 1.2427,-5.86666 2.8676,-11.41666 3.6108,-12.33333 0.7432,-0.91667 2.7424,-1.66667 4.4427,-1.66667 1.7003,0 3.4209,0.53313 3.8236,1.18472 0.4027,0.6516 -1.088,9.77158 -3.3127,20.26664 -2.2247,10.49505 -4.6922,19.86193 -5.4834,20.81528 -0.7912,0.95335 -3.3616,1.73336 -5.712,1.73336 -3.8069,0 -5.7062,-1.68462 -17.3963,-15.43008 -8.9908,-10.57164 -13.4273,-14.87484 -14.0899,-13.66667 -0.5319,0.96988 -1.9953,6.86342 -3.252,13.09675 -1.2568,6.23334 -2.8409,12.38334 -3.5204,13.66667 -0.6794,1.28333 -2.733,2.33333 -4.5636,2.33333 z m 79.0812,-0.24404 c -2.4819,0.28548 -3.9524,-0.30233 -4.5315,-1.81134 -0.4715,-1.22868 0.4319,-8.37793 2.0076,-15.88723 1.5757,-7.5093 2.8648,-14.3442 2.8648,-15.18866 0,-1.0098 -3.1461,-1.53539 -9.1906,-1.53539 -7.1277,0 -9.3713,-0.47062 -9.9953,-2.09659 -0.4425,-1.15313 -0.1855,-3.25313 0.571,-4.66667 1.2815,-2.3946 3.0467,-2.57008 25.8525,-2.57008 21.0286,0 24.5905,0.29538 25.2817,2.09659 0.4425,1.15313 0.1855,3.25313 -0.571,4.66667 -1.167,2.18071 -2.863,2.57008 -11.1947,2.57008 h -9.8192 L 1182.0328,245 c -1.2291,5.68333 -2.9394,13.33333 -3.8005,17 -1.3676,5.82335 -2.0304,6.72013 -5.2399,7.08929 z m 53.9773,-0.0591 c -20.4042,0.30445 -24.4854,0.046 -25.1132,-1.59013 -0.4124,-1.0745 0.8812,-9.63809 2.8746,-19.03019 1.9934,-9.3921 4.1346,-18.44012 4.7584,-20.10671 1.1297,-3.01832 1.2293,-3.02874 25.489,-2.66666 23.2135,0.34645 24.3708,0.48846 24.6958,3.03016 0.1875,1.46666 -0.2394,3.56666 -0.9488,4.66666 -1.03,1.59712 -5.3026,2.08609 -21.2101,2.42738 -18.1438,0.38926 -19.9784,0.64991 -20.5728,2.92279 -0.3589,1.37248 -0.3178,2.83016 0.091,3.23929 0.4091,0.40913 8.7627,0.74388 18.5635,0.74388 14.1744,0 17.9684,0.38781 18.5471,1.89581 0.4001,1.0427 0.069,3.1263 -0.7359,4.63022 -1.3548,2.53138 -2.8722,2.76187 -20.436,3.10419 -18.5319,0.36119 -18.9825,0.43947 -19.3987,3.36978 -0.4234,2.98142 -0.3161,3.00012 17.3334,3.02041 9.7676,0.0112 18.5574,0.52634 19.5328,1.14468 1.0073,0.63856 1.5833,2.78981 1.3333,4.97958 l -0.4401,3.85533 z m 33.6082,0.30313 c -1.8305,0 -3.6604,-0.86555 -4.0664,-1.92345 -0.4059,-1.0579 0.8929,-9.6079 2.8863,-19 1.9933,-9.3921 4.1295,-18.42655 4.7469,-20.07655 1.1013,-2.94301 1.5367,-3 22.9232,-3 21.4362,0 21.8521,0.0548 24.8823,3.28037 2.4892,2.64963 2.9469,4.2859 2.3804,8.50987 -0.3858,2.87622 -1.518,6.92826 -2.516,9.00453 -0.998,2.07626 -3.6146,4.69682 -5.8146,5.82346 -2.2,1.12664 -4.2575,2.20597 -4.5723,2.39852 -0.3148,0.19254 0.4352,2.46289 1.6667,5.04523 1.2314,2.58234 2.2389,5.87481 2.2389,7.31659 0,2.09781 -0.9152,2.62143 -4.582,2.62143 -4.1623,0 -4.9257,-0.64124 -8.3333,-7 l -3.7513,-7 -10.2627,-0.38814 -10.2626,-0.38815 -0.9129,5.05481 c -0.502,2.78015 -1.455,6.10482 -2.1176,7.38815 -0.6626,1.28333 -2.7024,2.33333 -4.533,2.33333 z M 1285.8367,244 c 11.6349,0 15.5445,-0.45115 16.7768,-1.93595 0.8837,-1.06477 1.4,-3.01477 1.1473,-4.33333 -0.4045,-2.11076 -2.2528,-2.44248 -15.4598,-2.77454 l -15.0003,-0.37716 -1.317,3.46396 c -0.7244,1.90517 -1.317,4.02489 -1.317,4.71049 0,0.70011 6.6498,1.24653 15.17,1.24653 z M 144.35113,258.27764 c -112.499737,0.65443 -120.372169,0.5523 -121.187381,-1.57211 -0.521127,-1.35803 1.322967,-7.18648 4.584182,-14.48877 3.000817,-6.71922 8.226164,-18.81676 11.611882,-26.88343 3.385718,-8.06666 6.867514,-15.39792 7.737324,-16.29168 1.222095,-1.25575 32.485018,-1.64414 137.575503,-1.70914 74.79671,-0.0463 138.24403,-0.065 140.99403,-0.0416 4.17493,0.0355 5,0.50391 5,2.83887 0,1.53802 -2.47856,7.5605 -5.50791,13.38329 -3.02934,5.82279 -8.20843,13.59052 -11.50907,17.26163 -3.30064,3.67111 -9.67209,9.25125 -14.15876,12.40032 -4.48668,3.14906 -11.4576,7.00781 -15.49093,8.575 -4.03333,1.56718 -10.03333,3.51955 -13.33333,4.33859 -4.08301,1.01338 -44.4406,1.71278 -126.31554,2.18907 z m 705.27444,-50.60903 c -391.06837,0.28984 -452.4735,0.0771 -453.10545,-1.5697 -0.40205,-1.04773 -0.53355,-3.29861 -0.29223,-5.00194 L 396.66667,198 H 849.33333 1302 v 4.66667 4.66666 z M 201.0509,173.00597 c -95.57523,0.2259 -143.830975,-0.11078 -144.385099,-1.00737 -0.457758,-0.74067 3.700453,-12.89335 9.240468,-27.00597 C 71.446284,130.88002 76.756726,117.83333 77.707251,116 l 1.728227,-3.33333 142.321792,-0.33937 c 128.92943,-0.30744 142.39818,-0.14031 143.13358,1.77611 0.44648,1.16351 -3.93547,14.81623 -9.73767,30.33937 l -10.54946,28.22389 z M 404.11635,168 c -9.46018,0 -13.54468,-0.50789 -14.6333,-1.8196 -1.14886,-1.38429 0.10234,-9.27892 5.23009,-33 3.70712,-17.14922 10.01208,-46.685856 14.01102,-65.63697 3.99893,-18.951113 7.60734,-35.001113 8.01867,-35.666666 0.43368,-0.701704 32.71946,-1.210097 76.84783,-1.210097 53.89628,0 77.60689,0.451487 81.26475,1.54741 2.84064,0.851076 7.58094,3.615544 10.53401,6.143262 2.95307,2.527718 6.58166,6.972419 8.06352,9.877113 1.48187,2.904693 3.0303,8.118215 3.44096,11.585604 0.43328,3.658431 -0.16747,10.755002 -1.4314,16.90881 -1.19793,5.832457 -3.69421,13.719784 -5.5473,17.527393 -1.85308,3.80761 -6.08119,9.939261 -9.3958,13.625901 -3.83986,4.27086 -9.24956,8.29008 -14.90925,11.07707 l -8.88271,4.3741 -63.56457,0.37042 c -48.14418,0.28055 -63.86769,0.76574 -64.81406,2 -0.68723,0.89627 -2.91784,9.72958 -4.95691,19.62958 -2.03908,9.9 -4.25754,19.05 -4.9299,20.33334 C 417.42391,167.64804 415.26,168 404.11635,168 Z m 88.21698,-70.671651 c 54.84285,-0.0047 57.8757,-0.132434 61.93527,-2.607703 2.34773,-1.431496 5.12925,-4.279253 6.18116,-6.328349 1.05191,-2.049097 2.62607,-7.187648 3.49814,-11.419003 0.87207,-4.231356 1.19059,-9.491785 0.70781,-11.689843 -0.55741,-2.537885 -2.28308,-4.723183 -4.72827,-5.987638 -3.2714,-1.691708 -12.42524,-1.93888 -60.86538,-1.643491 L 442.04718,58 l -3.6412,16.666667 c -2.00265,9.166666 -3.66327,18.016666 -3.69025,19.666666 l -0.0491,3 z M 609.3923,168 c -7.12132,0 -13.34786,-0.4 -13.83674,-0.88889 -0.48889,-0.48889 -0.88889,-2.26177 -0.88889,-3.93974 0,-1.67798 6.05133,-31.42798 13.4474,-66.111116 7.39608,-34.68314 14.08466,-63.82847 14.86352,-64.7674 1.12788,-1.359665 17.32041,-1.631058 79.5526,-1.333333 70.27786,0.336216 78.5483,0.599518 82.23111,2.617952 2.25206,1.234276 6.28472,4.498937 8.96149,7.254801 2.67676,2.755864 5.78418,7.702885 6.90536,10.993379 1.12118,3.290495 2.03852,8.607391 2.03852,11.815325 0,3.207934 -0.96466,10.151051 -2.14369,15.429148 -1.17903,5.278097 -3.6186,12.596541 -5.42125,16.263207 -1.80266,3.666667 -5.788,9.274987 -8.85631,12.462947 -3.06832,3.18795 -8.72875,7.59522 -12.57875,9.79394 -3.85,2.19872 -7,4.738 -7,5.64286 0,0.90485 3.31735,10.56965 7.37189,21.47732 4.05454,10.90767 7.07337,20.61005 6.70851,21.56086 -0.49202,1.28219 -4.76501,1.72874 -16.54196,1.72874 -11.10307,0 -16.27949,-0.50125 -17.21156,-1.66667 -0.73314,-0.91666 -4.48789,-10.36666 -8.3439,-21 -3.85601,-10.63333 -7.67964,-19.77414 -8.49695,-20.31291 -0.81732,-0.53877 -22.6489,-0.98877 -48.51462,-1 L 634.6095,124 l -1.22954,3 c -0.67625,1.65 -2.8296,10.8 -4.78522,20.33333 -1.95562,9.53334 -4.16293,18.08334 -4.90513,19 C 622.77769,167.45961 618.14198,168 609.3923,168 Z m 88.00725,-70.666667 c 46.54527,0 58.08099,-0.352387 61.00314,-1.863494 1.98198,-1.024922 4.69058,-3.064589 6.01911,-4.532593 1.32852,-1.468005 3.26998,-5.879432 4.31436,-9.803173 1.04437,-3.92374 1.90598,-9.317603 1.91468,-11.986361 0.009,-2.810223 -1.05648,-6.176989 -2.53216,-8 L 765.57069,58 706.88792,57.626564 c -55.29107,-0.351853 -58.72449,-0.236259 -59.40479,2 -0.39711,1.30539 -2.24327,9.471437 -4.10257,18.146772 C 641.52125,86.448672 640,94.398672 640,95.440003 c 0,1.606231 8.7039,1.89333 57.39955,1.89333 z M 821.33333,168 c -8.7854,0 -13.45175,-0.54092 -14.37774,-1.66667 -0.9682,-1.17706 2.70836,-20.85898 12.51553,-66.999997 7.63755,-35.933333 14.16217,-66.083333 14.49915,-67 0.43728,-1.189471 4.64511,-1.666666 14.6964,-1.666666 11.65914,0 14.22412,0.365955 14.89942,2.125753 0.44865,1.169165 -5.35459,31.319165 -12.89609,67 -7.5415,35.68084 -14.30087,65.62425 -15.02083,66.54091 C 834.76167,167.46331 830.15175,168 821.33333,168 Z m 53.98674,0 c -10.70681,0 -14.23857,-0.43816 -14.77377,-1.83286 -0.38683,-1.00808 5.35657,-30.55808 12.76312,-65.66667 7.40655,-35.108592 14.02902,-65.183803 14.7166,-66.833803 1.23141,-2.955046 1.61288,-3 25.45737,-3 15.31209,0 26.22046,0.603181 29.68606,1.641497 3.2221,0.965365 7.99757,4.123264 11.59377,7.666667 5.78034,5.695474 6.79979,7.91221 18.63027,40.510765 6.88343,18.967078 13.29348,34.784204 14.24456,35.149164 0.95109,0.36497 2.55274,-0.0199 3.55923,-0.85518 1.0065,-0.83532 13.39142,-16.216239 27.52202,-34.179825 14.1306,-17.963586 27.9779,-34.726246 30.7718,-37.250357 2.7939,-2.52411 8.2514,-6.257253 12.1277,-8.295872 7.0404,-3.702672 7.0767,-3.706587 34.3812,-3.713386 26.571,-0.0066 27.3443,0.06967 27.7256,2.735464 0.2158,1.50825 -5.6939,31.50825 -13.1326,66.666666 -7.4388,35.15842 -14.1388,64.6744 -14.8889,65.59106 -0.9217,1.12623 -5.5816,1.66667 -14.3708,1.66667 -8.8063,0 -13.4368,-0.53824 -14.3384,-1.66667 -0.9198,-1.15124 2.1066,-17.74801 9.7862,-53.66666 6.1148,-28.600003 11.1406,-52.826341 11.1684,-53.836309 0.039,-1.406276 -1.5253,-1.68489 -6.6785,-1.189734 -5.0627,0.486462 -7.7261,1.601532 -10.7557,4.502973 -2.2147,2.12102 -16.6814,19.899958 -32.1483,39.50875 -24.7981,31.43889 -28.9155,36.04798 -34.8394,39 -5.8043,2.89241 -8.50126,3.34765 -19.83222,3.34765 -8.29721,0 -14.77469,-0.69373 -17.6345,-1.88863 -2.48607,-1.03875 -5.54104,-3.44674 -6.78881,-5.35109 -1.24778,-1.90434 -8.16629,-19.50446 -15.37446,-39.111363 -8.74049,-23.774953 -14.06403,-36.426105 -15.98273,-37.98225 -1.6218,-1.315342 -5.10503,-2.333334 -7.9839,-2.333334 -2.80882,0 -5.41107,0.492104 -5.78279,1.093564 -0.37173,0.601459 -5.54091,24.151459 -11.48708,52.333333 C 896.71495,138.9421 891.29654,163.35 890.6202,165 c -1.16571,2.8439 -1.96181,3 -15.30013,3 z m 349.51663,-0.0435 c -67.4477,-0.0392 -75.4949,-0.27152 -81.5034,-2.35263 -3.6666,-1.27001 -7.9946,-3.24146 -9.6176,-4.381 -1.623,-1.13954 -4.189,-3.64579 -5.7021,-5.56944 -1.5132,-1.92365 -3.6353,-5.61334 -4.7157,-8.19931 -1.0805,-2.58598 -1.9646,-7.72296 -1.9646,-11.41552 0,-3.69256 2.9823,-20.84455 6.6273,-38.115526 5.1768,-24.529494 7.5616,-33.154935 10.8969,-39.412532 2.3483,-4.405913 7.316,-10.764905 11.0394,-14.131092 3.7234,-3.366188 10.0698,-7.678634 14.1031,-9.583214 l 7.3333,-3.462873 78.3633,-0.36434 c 69.4226,-0.322771 78.4529,-0.130959 79.1482,1.681207 0.4318,1.12505 0.039,6.089003 -0.8737,11.031006 -0.9123,4.942004 -2.1896,10.01593 -2.8386,11.275393 -1.0898,2.115076 -6.7602,2.318699 -74.2612,2.666667 L 1177.79,58 l -5.0365,3.842429 c -2.77,2.113336 -5.8563,5.804626 -6.8584,8.202866 -1.002,2.398241 -2.215,6.819148 -2.6956,9.824238 l -0.8737,5.4638 h 76.6739 c 60.3995,0 76.9724,0.359801 78.0806,1.69515 0.9974,1.201734 0.7883,4.597612 -0.7182,11.666667 -1.1688,5.48433 -2.7019,10.72152 -3.4069,11.63818 -0.9992,1.29935 -18.2788,1.66667 -78.4049,1.66667 -75.1521,0 -77.1588,0.0666 -78.5174,2.60521 -0.7669,1.43286 -1.7611,6.11442 -2.2094,10.40347 -0.7364,7.04592 -0.489,8.17741 2.5646,11.72813 l 3.3797,3.92986 72.4168,0.36732 c 39.8292,0.20203 72.891,0.8416 73.4707,1.42126 0.5796,0.57966 0.079,5.81437 -1.1136,11.63267 -1.1921,5.81831 -2.7751,11.32875 -3.5178,12.24541 -1.0521,1.29845 -17.8841,1.65705 -76.1872,1.62314 z M 232.79919,90.666667 c -117.05481,0 -140.724445,-0.30337 -141.982948,-1.819773 -1.164782,-1.403477 0.08617,-5.59746 5.468322,-18.333333 6.078826,-14.384416 8.014586,-17.557373 15.013686,-24.609322 4.71752,-4.753148 11.33816,-9.707759 16.03508,-12 L 135.33333,30 264,29.672227 c 78.79352,-0.200723 129.42716,0.158931 130.62864,0.927865 1.69998,1.087969 1.58452,2.378041 -0.86465,9.661106 -1.55465,4.623008 -5.92257,16.505469 -9.70649,26.405469 -3.78392,9.9 -7.75866,19.35 -8.83275,21 l -1.95289,3 z"
         id="path5" />
      <path
         style="fill:#648db7"
         d="m 398.46775,268 c -1.27071,0 -2.6266,-0.51166 -3.0131,-1.13703 -0.3865,-0.62537 6.34477,-9.77537 14.95836,-20.33334 14.69615,-18.01354 15.94633,-19.1963 20.2907,-19.1963 h 4.62962 l 7.6369,19.17549 c 4.2003,10.54652 7.31489,19.69652 6.92131,20.33333 -0.39357,0.63682 -1.88899,1.15785 -3.32316,1.15785 -1.52622,0 -3.67252,-1.79702 -5.17558,-4.33333 -1.41241,-2.38334 -3.22724,-5.08334 -4.03297,-6 C 436.39752,256.57187 431.89069,256 424.22504,256 h -11.66982 l -5.88855,6 c -3.23871,3.3 -6.92822,6 -8.19892,6 z m 28.19892,-18.66667 c 5.90708,0 8,-0.48063 8,-1.83716 0,-1.01045 -0.89091,-3.96942 -1.9798,-6.5755 -1.08889,-2.60607 -2.52165,-5.0732 -3.18391,-5.4825 -0.66226,-0.4093 -3.37135,1.90065 -6.0202,5.13322 -2.64885,3.23257 -4.81609,6.52642 -4.81609,7.31967 0,0.87389 3.15272,1.44227 8,1.44227 z M 481.49632,268 c -17.10436,0 -17.33446,-0.0403 -20.06621,-3.51314 -1.5199,-1.93223 -2.76344,-3.94135 -2.76344,-4.4647 0,-0.52336 1.48843,-7.68102 3.30762,-15.90591 1.81919,-8.22489 3.6546,-15.51578 4.07869,-16.20197 0.42408,-0.68619 1.60024,-1.24761 2.61369,-1.24761 1.01344,0 2.21142,0.59673 2.66218,1.32607 0.45076,0.72934 -0.43158,7.10081 -1.96076,14.15881 -1.52917,7.058 -2.42258,13.95987 -1.98534,15.33749 0.43724,1.37762 2.23645,2.86655 3.99824,3.30873 1.7618,0.44218 8.60104,0.59358 15.19833,0.33643 8.90366,-0.34704 12.56156,-1.03441 14.19314,-2.66708 1.20894,-1.20976 3.51533,-8.36684 5.12532,-15.90464 1.8994,-8.89277 3.70587,-14.19622 5.1447,-15.10381 1.44421,-0.91098 2.67078,-0.94424 3.51745,-0.0954 0.84468,0.84687 0.19537,6.51616 -1.85387,16.18656 -1.73463,8.18576 -3.82091,16.12955 -4.63616,17.65287 -0.81526,1.52332 -3.2347,3.67588 -5.37655,4.78347 -2.88649,1.49267 -8.3719,2.0138 -21.19703,2.0138 z m 57.71648,0 c -1.07974,0 -2.2709,-0.80196 -2.64703,-1.78213 -0.37612,-0.98017 0.54271,-7.40208 2.04185,-14.27091 1.49914,-6.86883 2.72571,-13.86687 2.72571,-15.5512 0,-2.90556 -0.48284,-3.06243 -9.42606,-3.06243 -9.01254,0 -9.40738,-0.13161 -9,-3 0.42139,-2.96707 0.68689,-3.004 24.18955,-3.36449 l 23.76348,-0.36449 -0.43015,3.03116 c -0.39637,2.79312 -1.19365,3.06201 -10.15253,3.42403 -8.57082,0.34633 -9.86793,0.74115 -10.95127,3.33333 -0.67589,1.61726 -2.47343,8.88434 -3.99452,16.14907 -1.5211,7.26473 -3.07844,13.71473 -3.46075,14.33333 C 541.48876,267.49387 540.29253,268 539.2128,268 Z m 54.95019,0 c -17.82458,0 -17.99172,-0.0283 -20.73288,-3.51314 -1.5199,-1.93223 -2.76344,-3.91263 -2.76344,-4.40088 0,-0.48825 1.14545,-6.1294 2.54545,-12.53589 1.39999,-6.40649 3.49999,-13.10498 4.66666,-14.88555 1.16667,-1.78056 3.31265,-3.87502 4.76885,-4.65435 1.61439,-0.864 10.01464,-1.27256 21.5252,-1.04691 18.50155,0.36268 18.9282,0.43795 21.42015,3.77882 2.50361,3.35651 2.50171,3.59608 -0.12432,15.62813 -1.46681,6.72064 -3.3151,13.43049 -4.10731,14.91076 -0.79222,1.48028 -3.19282,3.59762 -5.33466,4.70521 -2.90828,1.50393 -8.44395,2.0138 -21.8637,2.0138 z m 3.62406,-6.9113 c 12.78025,-0.37317 14.7155,-0.74569 16.71472,-3.21744 1.24356,-1.53748 3.07367,-6.8839 4.06692,-11.88093 1.681,-8.45706 1.63699,-9.20904 -0.63623,-10.87126 -1.66828,-1.21988 -6.81685,-1.78574 -16.24791,-1.78574 -12.63589,0 -14.06612,0.26036 -16.87831,3.07255 -2.05769,2.05769 -3.64211,6.09116 -4.79696,12.21163 -1.61073,8.53653 -1.558,9.26284 0.79981,11.01616 1.89881,1.41199 6.10547,1.7725 16.97796,1.45503 z m 60.64305,6.63884 c -1.19981,0.23106 -2.54367,-0.16595 -2.98637,-0.88225 -0.44269,-0.71629 0.98121,-9.4742 3.16423,-19.46201 2.18303,-9.98781 4.3247,-18.73498 4.75928,-19.43814 0.44896,-0.72643 9.67998,-1.27847 21.37812,-1.27847 19.16855,0 20.78195,0.19398 23.40156,2.81358 2.32578,2.32578 2.66084,3.77057 1.93261,8.33333 -0.48454,3.03587 -1.79732,6.91987 -2.91729,8.63112 -1.11998,1.71125 -4.08965,3.96931 -6.59928,5.01789 -2.50963,1.04859 -4.56296,2.22238 -4.56296,2.60842 0,0.38604 1.24861,3.14938 2.7747,6.14074 1.80198,3.53218 2.31905,5.8945 1.47496,6.73859 -0.71486,0.71486 -2.41347,1.08769 -3.7747,0.82852 -1.36123,-0.25917 -4.16304,-3.61544 -6.22625,-7.45837 l -3.75129,-6.98716 h -10.61063 c -9.77675,0 -10.70027,0.23577 -11.75128,3 -0.62736,1.65 -1.67689,4.79417 -2.3323,6.98705 -0.65541,2.19287 -2.17331,4.1761 -3.37311,4.40716 z m 24.93182,-22.39421 c 16.6485,0 16.69963,-0.01 18.2612,-3.43688 1.11222,-2.44105 1.15926,-4.08295 0.16235,-5.66666 -1.15671,-1.83757 -4.13727,-2.29589 -16.94472,-2.60558 l -15.54113,-0.3758 -1.31648,3.4626 c -0.72406,1.90442 -1.31647,4.62353 -1.31647,6.04246 0,2.41357 1.07612,2.57986 16.69525,2.57986 z m 53.0693,22.3644 c -13.36205,0.21261 -23.22639,-0.16029 -23.68058,-0.8952 -0.42816,-0.69277 1.00763,-9.43144 3.19066,-19.41925 2.18302,-9.98781 4.32469,-18.73498 4.75927,-19.43814 0.45367,-0.73405 10.37538,-1.27847 23.29943,-1.27847 12.38011,0 22.84664,0.54585 23.25897,1.21301 0.41232,0.66715 0.38354,2.16715 -0.064,3.33333 -0.69016,1.79852 -3.67565,2.12342 -19.671,2.14074 -10.37154,0.0112 -19.56231,0.46881 -20.42393,1.01684 -0.86162,0.54803 -1.76162,2.78884 -2,4.97958 l -0.43341,3.98316 17.97417,0.37418 c 9.8858,0.20579 18.53037,0.93037 19.21016,1.61016 0.75909,0.75908 0.58891,2.01566 -0.44106,3.25669 -1.32452,1.59596 -5.64285,2.09831 -20.54349,2.38985 L 722,251.33333 V 256 v 4.66667 l 19.08787,0.37047 c 18.86841,0.36622 19.08302,0.40455 18.66666,3.33334 -0.41422,2.91375 -0.80075,2.96889 -23.32331,3.32725 z m 33.99888,0.0298 c -1.19981,0.23106 -2.53152,-0.14628 -2.95936,-0.83854 -0.42784,-0.69226 0.93907,-9.35795 3.03757,-19.25708 2.0985,-9.89913 4.22802,-18.66595 4.73227,-19.48183 0.60819,-0.98408 7.76129,-1.48342 21.24994,-1.48342 15.28935,0 20.96413,0.46139 22.87688,1.86003 1.84928,1.35223 2.48568,3.31618 2.33105,7.19376 -0.11698,2.93355 -1.09619,7.44824 -2.17603,10.03264 -1.07983,2.58441 -3.36413,5.49455 -5.07621,6.46698 -1.92687,1.09443 -9.66363,2.02433 -20.3064,2.44066 -13.47616,0.52717 -17.40625,1.10501 -18.17746,2.67259 -0.54117,1.1 -1.51648,3.79417 -2.16736,5.98705 -0.65089,2.19287 -2.16509,4.1761 -3.36489,4.40716 z m 23.9854,-21.06087 c 15.12575,0 16.22555,-0.17932 18.17556,-2.96334 1.14158,-1.62984 2.07561,-4.00873 2.07561,-5.28643 0,-1.27769 -1.16056,-2.94419 -2.57901,-3.70332 -1.41846,-0.75914 -8.46846,-1.37106 -15.66667,-1.35983 -7.19821,0.0112 -13.88315,0.52476 -14.85542,1.14117 -0.97228,0.61642 -2.10128,3.60723 -2.5089,6.64625 l -0.74112,5.5255 z M 817.13441,268 c -1.2707,0 -2.62659,-0.51166 -3.01309,-1.13703 -0.3865,-0.62537 6.34476,-9.77537 14.95836,-20.33334 14.69614,-18.01354 15.94633,-19.1963 20.2907,-19.1963 H 854 l 7.6369,19.17549 c 4.20029,10.54652 7.31488,19.69652 6.92131,20.33333 -0.39357,0.63682 -1.889,1.15785 -3.32316,1.15785 -1.52622,0 -3.67252,-1.79702 -5.17559,-4.33333 -1.4124,-2.38334 -3.22724,-5.08334 -4.03297,-6 C 855.06419,256.57187 850.55736,256 842.89171,256 h -11.66982 l -5.88856,6 c -3.2387,3.3 -6.92822,6 -8.19892,6 z m 28.19892,-18.66667 c 5.90709,0 8,-0.48063 8,-1.83716 0,-1.01045 -0.89091,-3.96942 -1.97979,-6.5755 -1.08889,-2.60607 -2.52165,-5.0732 -3.18391,-5.4825 -0.66227,-0.4093 -3.37136,1.90065 -6.02021,5.13322 -2.64885,3.23257 -4.81609,6.52642 -4.81609,7.31967 0,0.87389 3.15272,1.44227 8,1.44227 z M 882.10727,268 c -1.07244,0 -2.29156,-0.55284 -2.70917,-1.22853 -0.4176,-0.67569 1.02684,-9.40038 3.20986,-19.38819 2.18303,-9.98781 4.3247,-18.73498 4.75928,-19.43814 0.43457,-0.70316 1.61932,-1.27847 2.63276,-1.27847 1.01344,0 2.21494,0.60243 2.67,1.33873 0.45506,0.7363 -0.73415,8.6863 -2.64269,17.66666 -1.90854,8.98037 -4.03259,17.67794 -4.72011,19.32794 -0.68752,1.65 -2.12748,3 -3.19993,3 z m 13.65616,-0.27246 c -1.19981,0.23106 -2.54367,-0.16595 -2.98637,-0.88225 -0.44269,-0.71629 0.98121,-9.4742 3.16424,-19.46201 2.18302,-9.98781 4.32469,-18.73498 4.75927,-19.43814 0.44896,-0.72643 9.67998,-1.27847 21.37812,-1.27847 19.16855,0 20.78196,0.19398 23.40156,2.81358 2.32578,2.32578 2.66085,3.77057 1.93261,8.33333 -0.48453,3.03587 -1.79732,6.91987 -2.91729,8.63112 -1.11998,1.71125 -4.08965,3.96931 -6.59928,5.01789 -2.50963,1.04859 -4.56296,2.22238 -4.56296,2.60842 0,0.38604 1.24862,3.14938 2.7747,6.14074 1.80198,3.53218 2.31905,5.8945 1.47496,6.73859 -0.71486,0.71486 -2.41347,1.08769 -3.7747,0.82852 -1.36122,-0.25917 -4.16304,-3.61544 -6.22625,-7.45837 l -3.75129,-6.98716 h -10.61063 c -9.77675,0 -10.70027,0.23577 -11.75127,3 -0.62736,1.65 -1.6769,4.79417 -2.33231,6.98705 -0.6554,2.19287 -2.17331,4.1761 -3.37311,4.40716 z m 24.93182,-22.39421 c 16.64851,0 16.69964,-0.01 18.2612,-3.43688 1.11222,-2.44105 1.15926,-4.08295 0.16235,-5.66666 -1.1567,-1.83757 -4.13727,-2.29589 -16.94472,-2.60558 l -15.54113,-0.3758 -1.31647,3.4626 C 904.59241,238.61543 904,241.33454 904,242.75347 c 0,2.41357 1.07613,2.57986 16.69525,2.57986 z M 1000.7379,268 c -14.70638,0 -15.6985,-0.17272 -18.79851,-3.27273 -2.01837,-2.01837 -3.27272,-4.8039 -3.27272,-7.2677 0,-2.19724 0.66546,-7.17451 1.47881,-11.06061 0.81335,-3.88609 2.6228,-8.95175 4.02102,-11.25701 1.39821,-2.30526 4.67717,-5.2045 7.28659,-6.44274 3.83175,-1.81829 7.82637,-2.1662 20.76631,-1.80862 15.0836,0.41681 16.175,0.63193 18.6347,3.67291 1.7593,2.17502 2.4821,4.78824 2.2127,8 -0.3134,3.7357 -0.9743,4.76983 -3.0485,4.76983 -1.5965,0 -2.8428,-1.05922 -3.1377,-2.66666 -0.2691,-1.46667 -1.4203,-3.71667 -2.5582,-5 -1.7019,-1.91934 -4.3389,-2.32985 -14.8624,-2.31368 -7.6177,0.0117 -14.14185,0.70095 -16.12667,1.70371 -1.89191,0.95582 -3.97689,3.68602 -4.82159,6.31368 -0.81855,2.54629 -1.89144,6.85673 -2.38421,9.57875 -0.71887,3.971 -0.35886,5.4862 1.8216,7.66666 2.32978,2.32979 4.42082,2.71754 14.65477,2.71754 6.5655,0 13.5105,-0.71681 15.4334,-1.59291 1.9228,-0.8761 4.3664,-3.2761 5.4303,-5.33333 1.0638,-2.05723 2.8376,-3.74042 3.9418,-3.74042 1.1042,0 2.3471,0.88477 2.7621,1.96615 0.415,1.08139 -0.5133,4.01751 -2.0629,6.52472 -1.5495,2.50721 -4.8485,5.52244 -7.3311,6.70051 -3.3422,1.58598 -8.5437,2.14195 -20.0396,2.14195 z m 58.36,-0.30227 c -13.3621,0.21261 -23.2264,-0.16029 -23.6806,-0.8952 -0.4282,-0.69277 1.0076,-9.43144 3.1907,-19.41925 2.183,-9.98781 4.3247,-18.73498 4.7592,-19.43814 0.4537,-0.73405 10.3754,-1.27847 23.2995,-1.27847 12.3801,0 22.8466,0.54585 23.2589,1.21301 0.4124,0.66715 0.3836,2.16715 -0.064,3.33333 -0.6902,1.79852 -3.6757,2.12342 -19.671,2.14074 -10.3716,0.0112 -19.5623,0.46881 -20.424,1.01684 -0.8616,0.54803 -1.7616,2.78884 -2,4.97958 l -0.4334,3.98316 17.9742,0.37418 c 9.8858,0.20579 18.5304,0.93037 19.2102,1.61016 0.7591,0.75908 0.5889,2.01566 -0.4411,3.25669 -1.3245,1.59596 -5.6428,2.09831 -20.5435,2.38985 l -18.8664,0.36912 V 256 v 4.66667 l 19.0878,0.37047 c 18.8684,0.36622 19.0831,0.40455 18.6667,3.33334 -0.4142,2.91375 -0.8007,2.96889 -23.3233,3.32725 z M 1094.0318,268 c -1.0309,0 -2.2161,-0.55284 -2.6337,-1.22853 -0.4176,-0.67569 1.0268,-9.40038 3.2099,-19.38819 2.183,-9.98781 4.3247,-18.73498 4.7592,-19.43814 0.4346,-0.70316 2.4855,-1.27847 4.5575,-1.27847 3.1475,0 5.9313,2.50795 16.9213,15.24461 7.2347,8.38454 13.904,15.28454 14.8207,15.33333 0.9166,0.0488 1.6666,-0.17205 1.6666,-0.49078 0,-0.31872 0.9204,-4.96872 2.0452,-10.33333 1.1248,-5.36461 2.648,-12.00383 3.3847,-14.75383 0.9707,-3.62307 2.0598,-5 3.9549,-5 1.9839,0 2.5956,0.88519 2.5337,3.66666 -0.045,2.01667 -1.6962,11.16667 -3.6698,20.33334 l -3.5882,16.66666 -4.2002,0.40811 c -3.8663,0.37567 -5.2339,-0.7902 -17.2042,-14.66666 -7.1522,-8.29113 -13.7775,-15.26237 -14.7228,-15.49165 -1.0258,-0.24879 -2.2451,1.63281 -3.0241,4.66667 -0.7179,2.79594 -2.0184,8.68353 -2.8899,13.08353 -0.8715,4.4 -2.1384,9.05 -2.8155,10.33334 -0.677,1.28333 -2.0744,2.33333 -3.1053,2.33333 z m 78.5143,0 c -1.0797,0 -2.2709,-0.80196 -2.647,-1.78213 -0.3761,-0.98017 0.5427,-7.40208 2.0419,-14.27091 1.4991,-6.86883 2.7257,-13.86687 2.7257,-15.5512 0,-2.90556 -0.4829,-3.06243 -9.4261,-3.06243 -9.0125,0 -9.4074,-0.13161 -9,-3 0.4214,-2.96707 0.6869,-3.004 24.1896,-3.36449 l 23.7634,-0.36449 -0.4301,3.03116 c -0.3964,2.79312 -1.1937,3.06201 -10.1525,3.42403 -8.5709,0.34633 -9.868,0.74115 -10.9513,3.33333 -0.6759,1.61726 -2.4734,8.88434 -3.9945,16.14907 -1.5211,7.26473 -3.0785,13.71473 -3.4608,14.33333 -0.3823,0.6186 -1.5785,1.12473 -2.6583,1.12473 z m 54.5518,-0.30227 c -13.3621,0.21261 -23.2264,-0.16029 -23.6806,-0.8952 -0.4282,-0.69277 1.0076,-9.43144 3.1907,-19.41925 2.183,-9.98781 4.3247,-18.73498 4.7592,-19.43814 0.4537,-0.73405 10.3754,-1.27847 23.2995,-1.27847 12.3801,0 22.8466,0.54585 23.2589,1.21301 0.4124,0.66715 0.3836,2.16715 -0.064,3.33333 -0.6902,1.79852 -3.6757,2.12342 -19.671,2.14074 -10.3716,0.0112 -19.5623,0.46881 -20.424,1.01684 -0.8616,0.54803 -1.7616,2.78884 -2,4.97958 l -0.4334,3.98316 17.9742,0.37418 c 9.8858,0.20579 18.5304,0.93037 19.2102,1.61016 0.7591,0.75908 0.5889,2.01566 -0.4411,3.25669 -1.3245,1.59596 -5.6428,2.09831 -20.5435,2.38985 l -18.8664,0.36912 V 256 v 4.66667 l 19.0878,0.37047 c 18.8684,0.36622 19.0831,0.40455 18.6667,3.33334 -0.4142,2.91375 -0.8007,2.96889 -23.3233,3.32725 z m 33.9989,0.0298 c -1.1998,0.23106 -2.5437,-0.16595 -2.9864,-0.88225 -0.4427,-0.71629 0.9812,-9.4742 3.1642,-19.46201 2.1831,-9.98781 4.3247,-18.73498 4.7593,-19.43814 0.449,-0.72643 9.68,-1.27847 21.3781,-1.27847 19.1686,0 20.782,0.19398 23.4016,2.81358 2.3258,2.32578 2.6608,3.77057 1.9326,8.33333 -0.4845,3.03587 -1.7973,6.91987 -2.9173,8.63112 -1.12,1.71125 -4.0896,3.96931 -6.5993,5.01789 -2.5096,1.04859 -4.5629,2.22238 -4.5629,2.60842 0,0.38604 1.2486,3.14938 2.7747,6.14074 1.8019,3.53218 2.319,5.8945 1.4749,6.73859 -0.7148,0.71486 -2.4134,1.08769 -3.7747,0.82852 -1.3612,-0.25917 -4.163,-3.61544 -6.2262,-7.45837 l -3.7513,-6.98716 h -10.6106 c -9.7768,0 -10.7003,0.23577 -11.7513,3 -0.6274,1.65 -1.6769,4.79417 -2.3323,6.98705 -0.6554,2.19287 -2.1733,4.1761 -3.3731,4.40716 z m 24.9318,-22.39421 c 16.6485,0 16.6996,-0.01 18.2612,-3.43688 1.1122,-2.44105 1.1592,-4.08295 0.1623,-5.66666 -1.1567,-1.83757 -4.1372,-2.29589 -16.9447,-2.60558 l -15.5411,-0.3758 -1.3165,3.4626 c -0.7241,1.90442 -1.3165,4.62353 -1.3165,6.04246 0,2.41357 1.0762,2.57986 16.6953,2.57986 z M 849.62557,206.33528 c -400.09696,0.29742 -451.12787,0.10917 -451.80932,-1.66666 -0.42252,-1.10108 -0.42252,-2.90283 0,-4.0039 0.68145,-1.77584 51.71236,-1.96408 451.80932,-1.66667 l 451.04113,0.33528 V 202.66667 206 Z M 200.69844,172 c -78.03092,0 -142.137343,-0.45 -142.458724,-1 -0.321381,-0.55 3.535204,-11.5 8.570188,-24.33333 5.034985,-12.83334 10.213664,-25.43334 11.508177,-28 L 80.67174,114 222.33587,113.66061 C 331.35336,113.39943 364,113.68776 364,114.91179 c 0,0.87481 -4.23303,12.9787 -9.40674,26.89753 -5.1737,13.91883 -9.99481,26.4058 -10.71357,27.74882 C 342.62552,171.90158 336.85433,172 200.69844,172 Z m 202.55032,-5.33333 c -6.83359,0 -12.71615,-0.47156 -13.07235,-1.0479 -0.3562,-0.57634 5.54172,-30.22575 13.10648,-65.887584 7.56476,-35.661832 14.1562,-65.49028 14.64764,-66.28544 0.62548,-1.012062 23.76779,-1.436962 77.14816,-1.416463 73.87164,0.02837 76.44215,0.114288 82.25464,2.749423 3.3,1.496078 7.40839,4.032901 9.12976,5.637384 1.72137,1.604484 4.3045,5.208279 5.74029,8.008433 1.43579,2.800154 2.92949,7.900154 3.31932,11.333333 0.44305,3.901723 -0.3273,10.935271 -2.05459,18.759197 -1.51986,6.884379 -4.24444,15.044285 -6.05462,18.133124 -1.81018,3.088839 -6.898,8.955293 -11.30626,13.036563 -5.12503,4.74488 -10.69386,8.42278 -15.44447,10.20021 -7.13806,2.67069 -9.85558,2.77972 -69.28421,2.77972 -50.91134,0 -62.18134,0.3266 -63.70077,1.84603 -1.01532,1.01532 -3.53692,10.16532 -5.60355,20.33333 -2.06663,10.16802 -4.35224,19.2373 -5.07913,20.15397 -0.88777,1.11955 -5.40032,1.66667 -13.74634,1.66667 z m 88.64013,-68.004987 c 55.24781,-0.0047 58.32106,-0.132997 62.372,-2.603012 2.34349,-1.428916 5.23789,-4.089122 6.432,-5.91157 1.19412,-1.822448 3.01959,-6.501093 4.05662,-10.396988 1.03703,-3.895896 1.89263,-8.999988 1.90133,-11.342428 0.01,-2.596944 -1.23957,-5.718888 -3.20115,-8 l -3.21697,-3.741018 -58.58665,-0.373239 c -46.34642,-0.295259 -58.877,-0.01669 -59.97639,1.333334 -0.76436,0.938614 -3.18154,10.227753 -5.37153,20.642531 -2.18998,10.414779 -3.65297,19.264779 -3.25108,19.666667 0.40189,0.401889 26.88071,0.728464 58.84182,0.725723 z m 117.23934,68.004987 c -9.73795,0 -12.02852,-0.39071 -12.71054,-2.16804 -0.45758,-1.19243 5.41125,-31.34243 13.04184,-67.000004 l 13.8738,-64.831959 75.33334,-0.377641 c 53.08617,-0.266117 76.96494,0.06866 80.85829,1.133607 3.03873,0.831186 7.76613,3.358606 10.50534,5.616489 2.7392,2.257883 6.39711,7.14776 8.12867,10.866393 2.00021,4.295536 3.15306,9.23609 3.16134,13.547868 0.007,3.732694 -1.15001,11.33414 -2.5715,16.892101 -1.42149,5.557961 -3.89861,12.681207 -5.50471,15.829436 -1.60611,3.148228 -6.01949,8.74993 -9.80751,12.44822 -3.78803,3.6983 -9.4109,7.86215 -12.49529,9.25302 -3.49788,1.57732 -5.60797,3.40941 -5.60797,4.86913 0,1.28716 3,10.49308 6.66667,20.4576 3.66667,9.96452 6.66667,19.32027 6.66667,20.79054 0,2.51307 -0.87691,2.67324 -14.63593,2.67324 -13.72581,0 -14.75415,-0.18655 -16.53707,-3 -1.04563,-1.65 -4.70205,-10.78983 -8.12537,-20.31074 -3.42332,-9.5209 -6.85511,-18.0709 -7.62619,-19 -1.08416,-1.30634 -12.17011,-1.68464 -48.90537,-1.66885 -26.12687,0.0112 -48.23041,0.48243 -49.11898,1.04712 -0.88857,0.56468 -3.45795,9.66737 -5.70974,20.2282 -2.25179,10.56083 -4.74825,19.98962 -5.54769,20.95288 -1.00127,1.20647 -5.1494,1.75139 -13.3321,1.75139 z M 698.7633,98.372858 758.85993,98 l 5.07885,-5.445813 c 3.62264,-3.884381 5.50641,-7.439429 6.57004,-12.398961 C 771.32897,76.330994 772,70.936198 772,68.166791 c 0,-3.688237 -0.92018,-5.90003 -3.43963,-8.267706 l -3.43962,-3.232418 -58.364,-0.373239 c -46.20173,-0.29546 -58.63476,-0.01761 -59.66335,1.333334 -0.71465,0.938614 -2.90546,9.506571 -4.86848,19.039905 -1.96302,9.533333 -3.56668,18.401119 -3.56369,19.706191 0.005,2.245272 3.23676,2.35281 60.10207,2 z m 121.74011,68.293812 c -12.33225,0 -12.50341,-0.0441 -12.50341,-3.22142 0,-1.77178 6.01187,-31.54829 13.35972,-66.170019 7.34784,-34.621727 13.68326,-63.472088 14.07869,-64.111913 C 835.83384,32.523493 842.12197,32 849.41202,32 c 11.47875,0 13.25465,0.297552 13.25465,2.220811 0,1.221446 -6.05998,30.771446 -13.46662,65.666667 C 841.79341,134.7827 835.11994,164.08333 834.37012,165 c -0.91444,1.11793 -5.47997,1.66667 -13.86671,1.66667 z m 55.27098,-0.28635 c -7.20279,0.21248 -13.23971,-0.18185 -13.67956,-0.89355 -0.43301,-0.70062 5.21688,-29.67176 12.5553,-64.38031 C 881.98856,66.397905 888.5815,36.65 889.30111,35 c 1.2886,-2.954631 1.67681,-2.999803 25.6703,-2.986975 22.85339,0.01222 24.7844,0.20974 31.18463,3.189853 3.75249,1.747255 8.33875,5.191393 10.19169,7.653641 1.85294,2.462248 8.93698,19.776814 15.74231,38.476814 6.80533,18.699997 13.22739,34.708787 14.27124,35.575087 1.04386,0.8663 2.67222,1.27796 3.61858,0.91481 0.94636,-0.36315 13.33224,-15.47194 27.52414,-33.575088 14.192,-18.103145 28.3788,-35.430197 31.5263,-38.50456 3.1476,-3.074363 9.1534,-7.274363 13.3463,-9.333333 7.4524,-3.659588 8.2142,-3.753307 33.9567,-4.176997 25.1806,-0.414443 26.3334,-0.321955 26.3334,2.112827 0,1.400433 -6.0055,30.940551 -13.3455,65.644707 -7.34,34.704154 -14.0134,63.903384 -14.8299,64.887174 -1.0383,1.25112 -5.0546,1.78871 -13.3631,1.78871 -9.6714,0 -12.0311,-0.39742 -12.6993,-2.13884 -0.4514,-1.17636 4.1235,-25.44295 10.1664,-53.92576 6.0429,-28.482815 10.5957,-52.42034 10.1172,-53.194502 C 1088.2341,56.633405 1085.7588,56 1083.2118,56 c -2.5469,0 -6.5897,0.818492 -8.984,1.818872 -3.2036,1.33858 -12.1267,11.636915 -33.7919,39 -16.1913,20.449618 -30.5851,38.208248 -31.9861,39.463608 -1.4011,1.25537 -4.7562,3.20537 -7.4558,4.33334 -3.26414,1.36385 -9.20995,2.05085 -17.74967,2.05085 -8.71325,0 -14.2108,-0.64986 -17.10141,-2.02155 -2.34305,-1.11185 -5.21048,-3.66185 -6.37208,-5.66666 -1.16159,-2.00482 -7.35532,-18.04513 -13.76385,-35.645127 -6.40852,-17.6 -12.52386,-33.894645 -13.58964,-36.210322 -1.06578,-2.315677 -3.6185,-4.906498 -5.67271,-5.757379 -2.05421,-0.850882 -6.06211,-1.356237 -8.90645,-1.123011 L 912.66667,56.666667 902.24396,106 c -5.73249,27.13333 -11.13249,51.73333 -12,54.66667 L 888.66667,166 Z m 348.39571,0.24282 c -69.1753,-0.0406 -74.6639,-0.21315 -81.5034,-2.56229 -5.0943,-1.74973 -8.8532,-4.22373 -12.3111,-8.10289 -2.7378,-3.07126 -5.5844,-7.76823 -6.3259,-10.4377 -0.7415,-2.66948 -1.3515,-7.4115 -1.3556,-10.53784 0,-3.12633 3.0246,-19.8595 6.7304,-37.184827 4.1256,-19.287711 7.995,-33.981367 9.9803,-37.899241 1.7834,-3.519259 6.2209,-9.377053 9.8612,-13.017319 3.6402,-3.640266 10.0991,-8.327699 14.353,-10.416516 l 7.7343,-3.79785 78.5106,-0.374407 78.5105,-0.374408 -0.8976,6.766764 c -0.4937,3.721721 -1.6258,8.990204 -2.5158,11.707741 l -1.6182,4.940976 L 1250.6614,56 c -53.406,0.489999 -73.4079,1.094833 -75.4785,2.282382 -1.5495,0.888643 -4.6667,3.722243 -6.9273,6.296888 -2.2606,2.574644 -4.7395,6.947572 -5.5088,9.717618 -0.7692,2.770045 -1.4019,6.681571 -1.406,8.692281 l -0.01,3.655836 77,0.344164 77,0.344164 -0.1896,6 c -0.1043,3.3 -0.8775,8.549997 -1.7181,11.666667 l -1.5284,5.66667 -76.9486,0.0204 c -42.3217,0.0112 -77.742,0.52346 -78.7117,1.13829 -0.9697,0.61482 -2.3054,3.45563 -2.9682,6.31291 -0.6628,2.85728 -1.2194,7.43559 -1.2369,10.17402 -0.023,3.64564 1.0099,6.14502 3.8581,9.33333 l 3.89,4.35437 71.7443,0.36762 c 39.4594,0.20219 72.1829,0.80612 72.7188,1.34208 0.536,0.53595 0.03,5.17052 -1.125,10.29904 -1.1548,5.12853 -2.7022,10.07459 -3.4387,10.99126 -1.0431,1.29827 -17.7337,1.65705 -75.5092,1.62314 z M 232.98244,88.610773 C 107.08814,89.376062 93.219315,89.254307 92.499103,87.377463 92.059597,86.232129 93.942061,80.053654 96.682356,73.647519 99.422651,67.241384 102.72743,59.9 104.02631,57.333333 c 1.29888,-2.566666 5.27432,-7.546291 8.83431,-11.065831 3.55999,-3.519541 10.3601,-8.319541 15.11134,-10.666667 l 8.63863,-4.267502 h 128.25026 c 70.53764,0 128.6589,0.408636 129.15834,0.908079 0.49944,0.499443 -3.42168,12.499443 -8.7136,26.666667 -5.29193,14.167223 -10.30056,26.454961 -11.1303,27.306083 -1.1154,1.14414 -37.91738,1.768818 -141.19285,2.396611 z"
         id="path4" />
      <path
         style="fill:#2167ab"
         d="m 399.08678,266.66667 c -1.29063,0 -1.74874,-0.75575 -1.24843,-2.05954 0.43467,-1.13275 7.19999,-9.86322 15.03403,-19.40105 12.95486,-15.77236 14.59802,-17.30523 18.15937,-16.94047 3.69268,0.37822 4.2871,1.35021 10.43785,17.06772 3.5872,9.16667 6.86447,17.71667 7.28281,19 0.55744,1.71004 0.0315,2.33334 -1.96879,2.33334 -1.84013,0 -3.61238,-1.73074 -5.4394,-5.312 -1.70068,-3.33361 -3.94118,-5.62101 -6.01575,-6.1417 -1.81817,-0.45633 -8.07743,-0.613 -13.90947,-0.34815 l -10.6037,0.48153 -4.84488,5.66016 c -2.66468,3.11309 -5.76232,5.66016 -6.88364,5.66016 z m 27.57989,-16 c 8.3099,0 9.33333,-0.28029 9.33333,-2.55613 0,-1.40587 -1.17868,-5.30587 -2.61928,-8.66667 -1.44061,-3.36079 -3.19393,-6.11054 -3.89626,-6.11054 -0.70234,0 -3.71979,2.85 -6.70544,6.33334 -2.98566,3.48333 -5.43234,7.38333 -5.43708,8.66666 -0.007,2.00082 1.32145,2.33334 9.32473,2.33334 z m 54.93953,16 c -15.51695,0 -17.42886,-0.26074 -19.61354,-2.67478 -2.34197,-2.58785 -2.32056,-3.16199 0.65877,-17.66667 1.69368,-8.24554 3.35416,-15.74189 3.68997,-16.65855 C 466.67722,228.75 467.78778,228 468.80932,228 c 1.02154,0 1.85735,0.61047 1.85735,1.35659 0,0.74613 -1.22935,7.03074 -2.73189,13.96579 -2.03692,9.40156 -2.37199,13.28168 -1.31713,15.2527 0.80594,1.50591 3.4562,3.02648 6.15861,3.53345 2.60912,0.48947 9.53803,0.61242 15.39759,0.27322 8.17025,-0.47297 11.25137,-1.21438 13.2175,-3.18051 1.59703,-1.59702 3.74402,-7.8374 5.69373,-16.54917 2.32603,-10.39329 3.70165,-14.09613 5.35577,-14.4165 1.2242,-0.23711 2.22582,-0.0807 2.22582,0.34745 0,0.4282 -1.21934,6.32219 -2.70964,13.09776 -1.4903,6.77557 -3.34028,14.27966 -4.11106,16.67574 -0.83155,2.58502 -2.95587,5.16036 -5.22415,6.33334 -2.79822,1.44701 -8.4305,1.97681 -21.01562,1.97681 z m 57.58259,0 c -1.0205,0 -1.86139,-0.75 -1.86865,-1.66667 -0.007,-0.91667 1.28005,-7.75644 2.86067,-15.1995 1.58063,-7.44305 2.5054,-14.49305 2.05505,-15.66666 C 541.60083,232.47899 539.46218,232 532.70851,232 525.8565,232 524,231.57364 524,230 c 0,-1.69935 3.40741,-2 22.66667,-2 19.25926,0 22.66666,0.30065 22.66666,2 0,1.57823 -1.89796,2.00431 -9,2.02042 -4.95,0.0112 -9.73855,0.48956 -10.64123,1.06297 -0.90268,0.57341 -2.82927,6.81649 -4.28131,13.87352 -1.45204,7.05703 -3.02853,14.37869 -3.50331,16.27036 -0.47478,1.89167 -1.69819,3.4394 -2.71869,3.4394 z m 55.08407,0 c -16.1169,0 -18.0931,-0.25807 -20.25303,-2.64475 -2.29262,-2.53332 -2.29575,-3.13674 -0.0744,-14.32196 1.27548,-6.42247 3.16576,-13.31454 4.20061,-15.31573 1.03485,-2.00118 3.0359,-4.2563 4.44676,-5.01137 C 584.00367,228.61779 593.58363,228 603.8816,228 c 18.42038,0 18.75839,0.0531 20.87317,3.28068 1.97792,3.0187 1.97636,4.05683 -0.0196,13 -1.19304,5.34563 -2.79649,11.67976 -3.56324,14.07584 -0.82892,2.59043 -2.94378,5.15791 -5.2168,6.33334 -2.81987,1.45821 -8.50805,1.97681 -21.6823,1.97681 z m 3.95333,-4.37379 c 10.97604,-0.28519 14.07728,-0.82088 16.27702,-2.81162 1.68476,-1.52469 3.56034,-6.24768 4.93529,-12.42785 2.06578,-9.28527 2.06619,-10.11996 0.006,-12.17764 -1.80108,-1.79885 -5.04345,-2.2091 -17.45915,-2.2091 -13.6896,0 -15.53191,0.28474 -18.03304,2.7871 -1.58151,1.58229 -3.66674,6.64947 -4.82377,11.72193 -1.12093,4.91415 -1.6967,9.82437 -1.27949,10.91159 0.41721,1.08723 2.12186,2.55753 3.78811,3.26734 1.66626,0.70981 9.13134,1.13203 16.58908,0.93825 z m 60.03655,4.13355 C 657.01823,266.6661 656,266.30909 656,265.63307 c 0,-0.67602 1.49297,-8.07002 3.31772,-16.4311 1.82474,-8.36108 3.63618,-16.55197 4.0254,-18.20197 0.69606,-2.9507 1.04529,-3 21.25371,-3 17.4236,0 20.88478,0.33875 22.77505,2.22903 1.68894,1.68893 2.02609,3.54656 1.39149,7.66666 -0.46065,2.99071 -1.93105,6.93764 -3.26756,8.77098 -1.33651,1.83333 -3.67625,3.51935 -5.19942,3.74671 -1.52317,0.22736 -3.44849,1.23164 -4.2785,2.23173 -1.14915,1.38465 -0.85423,3.10198 1.23651,7.20017 1.51008,2.96 2.7456,5.70572 2.7456,6.1016 0,0.39588 -1.16192,0.71979 -2.58204,0.71979 -1.7496,0 -3.79145,-2.25678 -6.33333,-7 l -3.7513,-7 h -11.99058 -11.99058 l -1.41334,6.662 c -0.94832,4.47001 -2.15785,6.80538 -3.67609,7.09776 z m 24.48262,-19.75976 c 14.14353,0 16.21907,-0.29776 18.58797,-2.66667 C 702.8,242.53333 704,240.17619 704,238.7619 c 0,-1.41428 -0.94286,-3.51428 -2.09524,-4.66666 C 700.24709,232.43757 696.66131,232 684.73469,232 c -10.45491,0 -15.48631,0.51078 -16.41747,1.66667 -0.73844,0.91666 -1.75637,3.60202 -2.26205,5.96746 -0.50569,2.36545 -0.53956,4.91545 -0.0753,5.66667 0.49992,0.80888 7.3367,1.36587 16.76547,1.36587 z m 53.25464,20 c -12.46667,0 -22.66667,-0.50912 -22.66667,-1.13137 0,-0.62225 1.49298,-7.97225 3.31772,-16.33333 1.82475,-8.36108 3.63618,-16.55197 4.02541,-18.20197 0.69972,-2.96626 0.96357,-3 23.46005,-3 17.60722,0 22.62763,0.3769 22.20074,1.66667 -0.39391,1.19012 -6.12624,1.85728 -20.04816,2.33333 -10.72309,0.36667 -20.04738,1.26667 -20.72066,2 -0.67328,0.73333 -1.59581,2.91468 -2.05006,4.84744 -0.51128,2.17535 -0.16298,4.0643 0.91425,4.95832 0.98827,0.82019 9.05015,1.60625 18.65812,1.81923 10.14019,0.22477 16.91774,0.90918 16.91743,1.70834 -3.2e-4,0.80694 -7.23993,1.47409 -18.33768,1.68986 -15.31832,0.29783 -18.61154,0.72392 -20.00382,2.58818 C 720.75,252.83877 720,255.46414 720,257.44552 c 0,2.05503 0.90596,3.95016 2.10905,4.41183 1.15998,0.44512 9.85998,0.80932 19.33333,0.80932 14.42159,0 17.22429,0.32543 17.22429,2 0,1.69934 -3.40741,2 -22.66667,2 z m 34.22128,-0.23557 C 768.99957,266.6682 768,266.30909 768,265.63307 c 0,-0.67602 1.49297,-8.07002 3.31772,-16.4311 1.82474,-8.36108 3.63618,-16.55197 4.0254,-18.20197 0.69585,-2.94983 1.04942,-3 21.1423,-3 18.38135,0 20.66493,0.2545 22.72679,2.53283 1.75383,1.93796 2.07366,3.73856 1.36178,7.66666 -0.51171,2.82362 -1.72801,6.71113 -2.70287,8.63893 -0.97487,1.92781 -2.84468,3.99535 -4.15514,4.59454 -1.31046,0.5992 -10.48265,1.42191 -20.38265,1.82825 l -18,0.73879 -1.44539,6 c -0.90601,3.76099 -2.2743,6.16087 -3.66666,6.4311 z M 794.64858,248 c 15.59151,0 15.86611,-0.0528 18.64727,-3.58852 1.55251,-1.97369 2.64605,-4.80867 2.43011,-6.29996 -0.21594,-1.49129 -1.89263,-3.46761 -3.72596,-4.39182 -1.95885,-0.98749 -8.45507,-1.68849 -15.75432,-1.70004 -6.83155,-0.0108 -13.52749,0.57252 -14.87987,1.29629 -1.44035,0.77085 -2.82991,3.51208 -3.35461,6.61774 -0.49265,2.91598 -0.5113,5.9238 -0.0414,6.68405 0.51204,0.8285 7.19393,1.38226 16.67882,1.38226 z m 23.10487,18.66667 c -1.29063,0 -1.74874,-0.75575 -1.24843,-2.05954 0.43467,-1.13275 7.19998,-9.86322 15.03402,-19.40105 12.95487,-15.77236 14.59803,-17.30523 18.15938,-16.94047 3.69267,0.37822 4.2871,1.35021 10.43785,17.06772 3.5872,9.16667 6.86446,17.71667 7.28281,19 0.55744,1.71004 0.0315,2.33334 -1.9688,2.33334 -1.84013,0 -3.61237,-1.73074 -5.4394,-5.312 -1.70068,-3.33361 -3.94117,-5.62101 -6.01575,-6.1417 -1.81817,-0.45633 -8.07743,-0.613 -13.90946,-0.34815 l -10.6037,0.48153 -4.84488,5.66016 c -2.66469,3.11309 -5.76232,5.66016 -6.88364,5.66016 z m 27.57988,-16 c 8.30991,0 9.33334,-0.28029 9.33334,-2.55613 0,-1.40587 -1.17868,-5.30587 -2.61929,-8.66667 -1.4406,-3.36079 -3.19392,-6.11054 -3.89626,-6.11054 -0.70233,0 -3.71978,2.85 -6.70544,6.33334 -2.98565,3.48333 -5.43234,7.38333 -5.43707,8.66666 -0.007,2.00082 1.32144,2.33334 9.32472,2.33334 z m 36.91101,15.76331 C 881.00995,266.6677 880,266.30909 880,265.63307 c 0,-0.67602 1.49297,-8.07002 3.31772,-16.4311 1.82474,-8.36108 3.63618,-16.55197 4.0254,-18.20197 0.38923,-1.65 1.59625,-3 2.68228,-3 1.08603,0 1.9542,0.75 1.92927,1.66667 -0.0249,0.91666 -1.71498,9.46616 -3.75566,18.99888 -2.84962,13.31151 -4.23098,17.43247 -5.95467,17.76443 z m 13.35174,-0.004 c -1.24451,0.23967 -2.26275,-0.11734 -2.26275,-0.79336 0,-0.67602 1.49298,-8.07002 3.31772,-16.4311 1.82475,-8.36108 3.63618,-16.55197 4.02541,-18.20197 0.69605,-2.9507 1.04529,-3 21.2537,-3 17.4236,0 20.88478,0.33875 22.77506,2.22903 1.68893,1.68893 2.02609,3.54656 1.39148,7.66666 -0.46065,2.99071 -1.93105,6.93764 -3.26756,8.77098 -1.3365,1.83333 -3.67624,3.51935 -5.19941,3.74671 -1.52318,0.22736 -3.4485,1.23164 -4.2785,2.23173 -1.14916,1.38465 -0.85424,3.10198 1.2365,7.20017 1.51008,2.96 2.7456,5.70572 2.7456,6.1016 0,0.39588 -1.16192,0.71979 -2.58204,0.71979 -1.7496,0 -3.79144,-2.25678 -6.33333,-7 l -3.75129,-7 h -11.99058 -11.99058 l -1.41335,6.662 c -0.94831,4.47001 -2.15785,6.80538 -3.67608,7.09776 z m 24.48261,-19.75976 c 14.14353,0 16.21907,-0.29776 18.58798,-2.66667 1.46666,-1.46667 2.66666,-3.82381 2.66666,-5.2381 0,-1.41428 -0.94285,-3.51428 -2.09523,-4.66666 C 937.58043,232.43757 933.99464,232 922.06802,232 c -10.45491,0 -15.4863,0.51078 -16.41746,1.66667 -0.73845,0.91666 -1.75637,3.60202 -2.26206,5.96746 -0.50568,2.36545 -0.53956,4.91545 -0.0753,5.66667 0.49991,0.80888 7.3367,1.36587 16.76546,1.36587 z m 82.79771,19.77056 c -16.09158,0.40586 -17.53405,0.23846 -20.10584,-2.33334 C 981.03588,262.36921 980,259.61307 980,256.73229 c 0,-2.53057 0.66738,-7.7129 1.48306,-11.51628 0.98269,-4.58214 2.9713,-8.54046 5.89415,-11.7323 l 4.4111,-4.81704 17.33529,-0.43723 c 16.0916,-0.40586 17.534,-0.23846 20.1058,2.33333 1.7498,1.74974 2.7706,4.49001 2.7706,7.43723 0,3.14325 -0.6183,4.66667 -1.8941,4.66667 -1.0417,0 -2.2905,-1.80499 -2.775,-4.01109 -0.4845,-2.2061 -1.9928,-4.6061 -3.3516,-5.33334 -1.3589,-0.72723 -8.0601,-1.32 -14.8916,-1.31726 -9.8687,0.004 -13.27834,0.52775 -16.59316,2.54904 -3.32518,2.0276 -4.49915,3.98892 -5.78309,9.66168 -0.88602,3.9147 -1.89583,8.15764 -2.24401,9.42877 -0.36623,1.33704 0.78124,3.72542 2.72248,5.66666 3.06356,3.06356 4.35069,3.35554 14.79228,3.35554 6.9673,0 13.2426,-0.75452 16.0576,-1.93072 2.5415,-1.0619 5.3186,-3.4619 6.1712,-5.33334 0.8527,-1.87143 2.3541,-3.40261 3.3364,-3.40261 0.9822,0 1.7859,0.90881 1.7859,2.01958 0,1.11077 -2.0523,4.26077 -4.5608,7 L 1020.2117,266 Z m 55.7903,0.22944 c -12.4667,0 -22.6667,-0.50912 -22.6667,-1.13137 0,-0.62225 1.493,-7.97225 3.3177,-16.33333 1.8248,-8.36108 3.6362,-16.55197 4.0254,-18.20197 0.6997,-2.96626 0.9636,-3 23.4601,-3 17.6072,0 22.6276,0.3769 22.2007,1.66667 -0.3939,1.19012 -6.1262,1.85728 -20.0481,2.33333 -10.7231,0.36667 -20.0474,1.26667 -20.7207,2 -0.6733,0.73333 -1.5958,2.91468 -2.0501,4.84744 -0.5112,2.17535 -0.1629,4.0643 0.9143,4.95832 0.9883,0.82019 9.0501,1.60625 18.6581,1.81923 10.1402,0.22477 16.9177,0.90918 16.9174,1.70834 -3e-4,0.80694 -7.2399,1.47409 -18.3376,1.68986 -15.3184,0.29783 -18.6116,0.72392 -20.0039,2.58818 -0.9166,1.2274 -1.6666,3.85277 -1.6666,5.83415 0,2.05503 0.9059,3.95016 2.109,4.41183 1.16,0.44512 9.86,0.80932 19.3333,0.80932 14.4216,0 17.2243,0.32543 17.2243,2 0,1.69934 -3.4074,2 -22.6666,2 z m 35.5673,-0.23557 c -1.2287,0.2371 -2.234,-0.12201 -2.234,-0.79803 0,-0.67602 1.493,-8.07002 3.3177,-16.4311 1.8248,-8.36108 3.6362,-16.55197 4.0254,-18.20197 0.5304,-2.24853 1.6648,-3 4.5285,-3 3.2224,0 5.8807,2.40369 16.9746,15.34871 7.6075,8.87699 13.9971,15.19526 15.1538,14.98478 1.3798,-0.25106 2.9565,-4.7005 5.0846,-14.3487 1.6966,-7.69164 3.5943,-14.50251 4.2172,-15.13528 0.6229,-0.63277 1.695,-0.80285 2.3825,-0.37796 0.7338,0.45354 -0.3291,8.01655 -2.5742,18.31615 -2.1033,9.64899 -4.1489,18.06908 -4.5458,18.7113 -0.3969,0.64221 -2.1058,1.16767 -3.7975,1.16767 -2.2776,0 -6.6429,-4.15208 -16.8219,-16 -7.5604,-8.8 -14.2597,-16 -14.8874,-16 -0.6276,0 -1.525,1.00011 -1.994,2.22248 -0.4691,1.22236 -2.145,8.27236 -3.7242,15.66667 -2.1462,10.04855 -3.4356,13.55306 -5.1053,13.87528 z m 78.2881,0.23557 c -1.0205,0 -1.8614,-0.75 -1.8686,-1.66667 -0.01,-0.91667 1.28,-7.75644 2.8606,-15.1995 1.5807,-7.44305 2.5054,-14.49305 2.0551,-15.66666 -0.635,-1.65485 -2.7737,-2.13384 -9.5274,-2.13384 -6.852,0 -8.7085,-0.42636 -8.7085,-2 0,-1.69935 3.4074,-2 22.6667,-2 19.2593,0 22.6667,0.30065 22.6667,2 0,1.57823 -1.898,2.00431 -9,2.02042 -4.95,0.0112 -9.7386,0.48956 -10.6413,1.06297 -0.9027,0.57341 -2.8292,6.81649 -4.2813,13.87352 -1.452,7.05703 -3.0285,14.37869 -3.5033,16.27036 -0.4748,1.89167 -1.6982,3.4394 -2.7187,3.4394 z m 54.1446,0 c -12.4667,0 -22.6667,-0.50912 -22.6667,-1.13137 0,-0.62225 1.493,-7.97225 3.3177,-16.33333 1.8248,-8.36108 3.6362,-16.55197 4.0254,-18.20197 0.6997,-2.96626 0.9636,-3 23.4601,-3 17.6072,0 22.6276,0.3769 22.2007,1.66667 -0.3939,1.19012 -6.1262,1.85728 -20.0481,2.33333 -10.7231,0.36667 -20.0474,1.26667 -20.7207,2 -0.6733,0.73333 -1.5958,2.91468 -2.0501,4.84744 -0.5112,2.17535 -0.1629,4.0643 0.9143,4.95832 0.9883,0.82019 9.0501,1.60625 18.6581,1.81923 10.1402,0.22477 16.9177,0.90918 16.9174,1.70834 -3e-4,0.80694 -7.2399,1.47409 -18.3376,1.68986 -15.3184,0.29783 -18.6116,0.72392 -20.0039,2.58818 -0.9166,1.2274 -1.6666,3.85277 -1.6666,5.83415 0,2.05503 0.9059,3.95016 2.109,4.41183 1.16,0.44512 9.86,0.80932 19.3333,0.80932 14.4216,0 17.2243,0.32543 17.2243,2 0,1.69934 -3.4074,2 -22.6666,2 z m 34.2627,-0.24024 c -1.2445,0.23967 -2.2627,-0.11734 -2.2627,-0.79336 0,-0.67602 1.4929,-8.07002 3.3177,-16.4311 1.8247,-8.36108 3.6362,-16.55197 4.0254,-18.20197 0.696,-2.9507 1.0453,-3 21.2537,-3 17.4236,0 20.8848,0.33875 22.7751,2.22903 1.6889,1.68893 2.026,3.54656 1.3914,7.66666 -0.4606,2.99071 -1.931,6.93764 -3.2675,8.77098 -1.3365,1.83333 -3.6763,3.51935 -5.1994,3.74671 -1.5232,0.22736 -3.4485,1.23164 -4.2785,2.23173 -1.1492,1.38465 -0.8543,3.10198 1.2365,7.20017 1.51,2.96 2.7456,5.70572 2.7456,6.1016 0,0.39588 -1.162,0.71979 -2.5821,0.71979 -1.7496,0 -3.7914,-2.25678 -6.3333,-7 l -3.7513,-7 h -11.9906 -11.9906 l -1.4133,6.662 c -0.9483,4.47001 -2.1579,6.80538 -3.6761,7.09776 z m 24.4826,-19.75976 c 14.1436,0 16.2191,-0.29776 18.588,-2.66667 1.4667,-1.46667 2.6667,-3.82381 2.6667,-5.2381 0,-1.41428 -0.9429,-3.51428 -2.0953,-4.66666 -1.6576,-1.65767 -5.2434,-2.09524 -17.17,-2.09524 -10.455,0 -15.4864,0.51078 -16.4175,1.66667 -0.7385,0.91666 -1.7564,3.60202 -2.2621,5.96746 -0.5056,2.36545 -0.5395,4.91545 -0.075,5.66667 0.4999,0.80888 7.3367,1.36587 16.7654,1.36587 z M 849.74656,205.00195 c -323.01269,0.2409 -449.83932,-0.0734 -450.48382,-1.11617 -0.49338,-0.79831 -0.34845,-2.00007 0.32206,-2.67058 0.73311,-0.73311 180.32196,-1.08545 450.48383,-0.88383 398.30847,0.29727 449.26467,0.56214 449.26467,2.3353 0,1.77316 -50.992,2.03802 -449.58674,2.33528 z M 201.18879,170.66667 H 59.710912 l 0.850645,-3.38924 c 0.467855,-1.86409 5.1829,-14.31409 10.477878,-27.66667 l 9.627232,-24.27743 141.000003,-0.33942 c 77.55,-0.18668 141,0.1284 141,0.70019 0,0.57178 -4.5,12.98949 -10,27.59492 -5.5,14.60543 -10,26.74035 -10,26.96649 0,0.22614 -63.66505,0.41116 -141.47788,0.41116 z m 203.25327,-5.61807 c -6.72354,0.21006 -12.52886,-0.11035 -12.90071,-0.71202 -0.37185,-0.60166 5.48969,-30.17353 13.02565,-65.715258 L 418.26874,34 h 78.75144 78.75144 l 5.78085,4.008252 c 3.78585,2.624978 7.04625,6.50366 9.44753,11.239087 2.58371,5.095195 3.66062,9.227682 3.6462,13.991748 -0.0113,3.718502 -1.18893,11.397522 -2.61704,17.064488 -1.42811,5.666966 -3.60286,12.249533 -4.83278,14.627926 -1.22991,2.378393 -5.47528,7.720189 -9.43416,11.870649 -4.68318,4.90983 -10.0915,8.88292 -15.48008,11.37207 L 554,122 490.01092,122.66667 426.02184,123.33333 424.34046,130 c -0.92475,3.66667 -3.02966,12.96667 -4.67758,20.66667 l -2.99621,14 z M 491.13616,100 h 59.13615 l 4.49878,-3.031729 c 2.47433,-1.667451 5.75387,-4.894152 7.28787,-7.170448 1.53399,-2.276296 3.54685,-8.378962 4.47302,-13.561481 1.38391,-7.743863 1.36748,-10.089157 -0.0922,-13.162885 -0.97689,-2.057068 -3.87547,-4.789191 -6.4413,-6.071385 -4.22107,-2.109352 -9.9957,-2.329515 -60.66514,-2.312916 -30.8,0.01009 -56.80162,0.526475 -57.78139,1.147523 -0.97977,0.621047 -3.51154,9.16186 -5.62616,18.979583 -2.11461,9.817722 -3.86299,19.500405 -3.88527,21.517071 L 432,100 Z m 118.19717,65.33333 c -6.51344,0 -12.09626,-0.45 -12.40628,-1 -0.31001,-0.55 5.02966,-27.1 11.86593,-59 6.83627,-31.899997 13.09705,-61.149997 13.91283,-64.999997 l 1.48325,-7 76.90547,0.02928 c 71.72942,0.02731 77.26814,0.194019 82.29396,2.476936 2.96368,1.346209 7.1046,4.483031 9.20205,6.970717 2.09746,2.487685 4.62264,6.453793 5.61151,8.813573 0.98887,2.359779 1.78908,7.759779 1.77824,12 -0.0108,4.24022 -0.90004,11.443059 -1.976,16.006308 -1.07597,4.56325 -3.22368,10.993061 -4.77271,14.288471 -1.54902,3.295409 -5.11726,8.605562 -7.92942,11.800342 -2.81216,3.19478 -8.75557,7.75016 -13.20759,10.12305 -5.02918,2.68053 -8.09103,5.16838 -8.08522,6.56951 0.005,1.24033 3.24052,10.95515 7.18973,21.58848 3.94921,10.63333 6.9096,19.78333 6.57863,20.33333 -0.33097,0.55 -6.79288,1 -14.35981,1 -9.44059,0 -14.15637,-0.52302 -15.02734,-1.66666 C 747.69246,162.75 744.23031,153.9 740.69691,144 c -3.5334,-9.9 -7.01508,-18.75714 -7.73706,-19.68253 -1.02411,-1.31263 -12.33698,-1.60576 -51.45872,-1.33333 l -50.14603,0.34919 -4.15248,19.48376 c -2.28387,10.71607 -4.57418,20.16607 -5.08958,21 -0.58628,0.94863 -5.37048,1.51624 -12.77971,1.51624 z M 696.77661,100 c 56.37655,0 58.34503,-0.08608 63.04185,-2.75691 2.66651,-1.516301 5.89508,-4.17502 7.17459,-5.908264 1.27951,-1.733245 3.22951,-6.618695 4.33333,-10.856555 1.10383,-4.237861 2.00695,-9.669676 2.00695,-12.070701 0,-2.938984 -1.27097,-5.788377 -3.88951,-8.719868 l -3.88951,-4.354369 -58.71188,-0.386044 -58.71188,-0.386045 -1.86291,3.052711 c -1.02459,1.678992 -3.50032,11.049218 -5.5016,20.822726 -2.00128,9.773508 -3.31118,18.623508 -2.91088,19.666667 C 638.4691,99.703241 647.68823,100 696.77661,100 Z m 124.55672,65.33333 c -6.51344,0 -12.10586,-0.45 -12.4276,-1 -0.32173,-0.55 5.62618,-30.1 13.2176,-65.666663 7.59141,-35.566667 13.81924,-64.816667 13.83962,-65 0.0204,-0.183334 5.73705,-0.333334 12.70372,-0.333334 11.1785,0 12.66546,0.274136 12.65644,2.333334 -0.006,1.283333 -5.9807,30.400299 -13.27795,64.704363 -7.29724,34.30407 -13.62805,62.95407 -14.06846,63.66667 -0.44041,0.7126 -6.12992,1.29563 -12.64337,1.29563 z m 54.12588,-0.28353 -13.04376,0.38313 0.88776,-5.0498 c 0.48826,-2.77739 6.69479,-32.3498 13.79227,-65.716463 L 890,34 913.33333,33.611118 c 15.4314,-0.257185 25.33388,0.162971 29.24067,1.240663 3.50872,0.967886 7.87126,3.593474 10.74413,6.466348 3.88817,3.888172 6.36847,9.00567 12.64635,26.092671 4.29525,11.690727 10.26039,27.855867 13.25586,35.92253 4.8873,13.16123 5.80426,14.7082 8.93351,15.07125 3.12198,0.3622 6.25512,-3.12875 29.91675,-33.333336 14.5362,-18.555851 28.867,-36.045895 31.8461,-38.866765 2.9792,-2.820869 8.4166,-6.720869 12.0833,-8.666666 6.4619,-3.429165 7.4754,-3.551123 33,-3.971228 24.7584,-0.407493 26.3339,-0.287874 26.3436,2 0.01,1.338378 -5.7152,29.733415 -12.713,63.100082 -6.9978,33.366663 -13.2895,62.016663 -13.9817,63.666663 -1.1721,2.79435 -2.0776,3 -13.2083,3 -6.5724,0 -12.2012,-0.45 -12.5084,-1 -0.3072,-0.55 4.5341,-24.91712 10.7586,-54.14916 9.3408,-43.86716 10.9963,-53.367098 9.4799,-54.397098 -1.0106,-0.686368 -4.6605,-0.9507 -8.1109,-0.587405 -3.4505,0.363295 -7.7856,1.65122 -9.6335,2.862056 -1.848,1.210837 -12.8249,14.242748 -24.3931,28.959805 -11.5683,14.717052 -24.958,31.602662 -29.755,37.523572 -4.7971,5.92092 -11.0971,12.11059 -14,13.75483 -4.56195,2.58385 -7.24056,2.99251 -19.73914,3.01147 -11.1281,0.0169 -15.32724,-0.4898 -18.21972,-2.19843 -2.06733,-1.2212 -4.47571,-3.7712 -5.35196,-5.66667 -0.87625,-1.89546 -6.97687,-18.12179 -13.55692,-36.058508 -6.58006,-17.936715 -12.79602,-34.221665 -13.81325,-36.188777 -1.01724,-1.967113 -3.75728,-4.241619 -6.08899,-5.054459 -2.33172,-0.812839 -5.90709,-1.477889 -7.94528,-1.477889 -2.03819,0 -4.52684,0.821044 -5.53034,1.824544 -1.0035,1.003499 -6.49943,23.953499 -12.21317,50.999999 -5.71375,27.0465 -10.82239,50.97546 -11.35255,53.17546 l -0.96392,4 z m 348.48229,-0.15879 c -41.4012,0.1234 -76.7787,-0.23564 -78.6168,-0.79785 -1.8381,-0.5622 -5.1381,-1.95615 -7.3333,-3.09766 -2.1953,-1.1415 -5.3128,-3.49066 -6.9278,-5.22034 -1.615,-1.72969 -3.865,-5.36743 -5,-8.08386 -1.135,-2.71644 -2.0491,-8.40825 -2.0313,-12.64848 0.018,-4.24022 2.9639,-21.33583 6.5469,-37.990243 3.6675,-17.047166 7.8618,-32.97835 9.5973,-36.453321 1.6955,-3.394912 5.9297,-9.0648 9.4093,-12.599752 3.4796,-3.534952 9.7963,-8.130957 14.0371,-10.213345 L 1171.3333,34 1249,33.635455 l 77.6667,-0.364546 -0.128,3.697879 c -0.07,2.033833 -0.8244,6.697879 -1.6755,10.364545 L 1323.3158,54 l -71.9912,0.666667 c -64.4317,0.596662 -72.4255,0.904529 -76.1267,2.931889 -2.2744,1.245872 -5.973,4.358119 -8.2189,6.916104 -2.558,2.913364 -4.6941,7.379126 -5.7178,11.953678 -0.8989,4.016537 -1.2692,8.25429 -0.8229,9.417228 0.7277,1.896417 8.7125,2.114434 77.4412,2.114434 42.1464,0 76.9099,0.453277 77.2523,1.007282 0.3424,0.554005 -0.31,5.204005 -1.4498,10.333333 -1.1398,5.129325 -2.7346,9.766865 -3.5439,10.305635 -0.8093,0.53877 -36.1363,0.98877 -78.5044,1 l -77.033,0.0204 -1.2983,3.41462 c -0.714,1.87805 -1.6737,6.60931 -2.1326,10.51391 -0.6427,5.46805 -0.3011,8.00206 1.4866,11.0283 1.2765,2.16097 3.601,4.77971 5.1656,5.81943 2.3485,1.56068 15.354,1.95626 74.5634,2.268 l 71.7188,0.37759 -0.9151,4.95574 c -0.5034,2.72566 -1.6031,7.35574 -2.444,10.28907 l -1.5287,5.33334 z M 235.33333,87.036573 C 159.8,87.437534 96.95,87.474339 95.666667,87.118364 94.383333,86.762388 93.333333,86.184537 93.333333,85.83425 c 0,-0.350287 2.475758,-6.456292 5.501685,-13.568901 3.025922,-7.112609 7.180362,-15.3739 9.232082,-18.358424 2.05172,-2.984525 7.05413,-7.990646 11.11647,-11.124714 4.15522,-3.205728 10.88345,-6.786815 15.38148,-8.186759 7.59625,-2.364221 14.21812,-2.472817 132.63748,-2.175215 68.55313,0.172283 124.92435,0.598209 125.26938,0.946502 0.34502,0.348294 -3.75172,12.214969 -9.10387,26.37039 -5.35215,14.155422 -9.94948,25.924621 -10.21628,26.153778 -0.2668,0.229156 -62.28509,0.744706 -137.81843,1.145666 z"
         id="path3" />
      <path
         style="fill:#18345e"
         d="m 399.08678,266.66667 c -1.29063,0 -1.74874,-0.75575 -1.24843,-2.05954 0.43467,-1.13275 7.19999,-9.86322 15.03403,-19.40105 12.95486,-15.77236 14.59802,-17.30523 18.15937,-16.94047 3.69268,0.37822 4.2871,1.35021 10.43785,17.06772 3.5872,9.16667 6.86447,17.71667 7.28281,19 0.55744,1.71004 0.0315,2.33334 -1.96879,2.33334 -1.84013,0 -3.61238,-1.73074 -5.4394,-5.312 -1.70068,-3.33361 -3.94118,-5.62101 -6.01575,-6.1417 -1.81817,-0.45633 -8.07743,-0.613 -13.90947,-0.34815 l -10.6037,0.48153 -4.84488,5.66016 c -2.66468,3.11309 -5.76232,5.66016 -6.88364,5.66016 z m 27.57989,-16 c 8.3099,0 9.33333,-0.28029 9.33333,-2.55613 0,-1.40587 -1.17868,-5.30587 -2.61928,-8.66667 -1.44061,-3.36079 -3.19393,-6.11054 -3.89626,-6.11054 -0.70234,0 -3.71979,2.85 -6.70544,6.33334 -2.98566,3.48333 -5.43234,7.38333 -5.43708,8.66666 -0.007,2.00082 1.32145,2.33334 9.32473,2.33334 z m 54.93953,16 c -15.51695,0 -17.42886,-0.26074 -19.61354,-2.67478 -2.34197,-2.58785 -2.32056,-3.16199 0.65877,-17.66667 1.69368,-8.24554 3.35416,-15.74189 3.68997,-16.65855 C 466.67722,228.75 467.78778,228 468.80932,228 c 1.02154,0 1.85735,0.61047 1.85735,1.35659 0,0.74613 -1.22935,7.03074 -2.73189,13.96579 -2.03692,9.40156 -2.37199,13.28168 -1.31713,15.2527 0.80594,1.50591 3.4562,3.02648 6.15861,3.53345 2.60912,0.48947 9.53803,0.61242 15.39759,0.27322 8.17025,-0.47297 11.25137,-1.21438 13.2175,-3.18051 1.59703,-1.59702 3.74402,-7.8374 5.69373,-16.54917 2.32603,-10.39329 3.70165,-14.09613 5.35577,-14.4165 1.2242,-0.23711 2.22582,-0.0807 2.22582,0.34745 0,0.4282 -1.21934,6.32219 -2.70964,13.09776 -1.4903,6.77557 -3.34028,14.27966 -4.11106,16.67574 -0.83155,2.58502 -2.95587,5.16036 -5.22415,6.33334 -2.79822,1.44701 -8.4305,1.97681 -21.01562,1.97681 z m 57.58259,0 c -1.0205,0 -1.86139,-0.75 -1.86865,-1.66667 -0.007,-0.91667 1.28005,-7.75644 2.86067,-15.1995 1.58063,-7.44305 2.5054,-14.49305 2.05505,-15.66666 C 541.60083,232.47899 539.46218,232 532.70851,232 525.8565,232 524,231.57364 524,230 c 0,-1.69935 3.40741,-2 22.66667,-2 19.25926,0 22.66666,0.30065 22.66666,2 0,1.57823 -1.89796,2.00431 -9,2.02042 -4.95,0.0112 -9.73855,0.48956 -10.64123,1.06297 -0.90268,0.57341 -2.82927,6.81649 -4.28131,13.87352 -1.45204,7.05703 -3.02853,14.37869 -3.50331,16.27036 -0.47478,1.89167 -1.69819,3.4394 -2.71869,3.4394 z m 55.08407,0 c -16.1169,0 -18.0931,-0.25807 -20.25303,-2.64475 -2.29262,-2.53332 -2.29575,-3.13674 -0.0744,-14.32196 1.27548,-6.42247 3.16576,-13.31454 4.20061,-15.31573 1.03485,-2.00118 3.0359,-4.2563 4.44676,-5.01137 C 584.00367,228.61779 593.58363,228 603.8816,228 c 18.42038,0 18.75839,0.0531 20.87317,3.28068 1.97792,3.0187 1.97636,4.05683 -0.0196,13 -1.19304,5.34563 -2.79649,11.67976 -3.56324,14.07584 -0.82892,2.59043 -2.94378,5.15791 -5.2168,6.33334 -2.81987,1.45821 -8.50805,1.97681 -21.6823,1.97681 z m 3.95333,-4.37379 c 10.97604,-0.28519 14.07728,-0.82088 16.27702,-2.81162 1.68476,-1.52469 3.56034,-6.24768 4.93529,-12.42785 2.06578,-9.28527 2.06619,-10.11996 0.006,-12.17764 -1.80108,-1.79885 -5.04345,-2.2091 -17.45915,-2.2091 -13.6896,0 -15.53191,0.28474 -18.03304,2.7871 -1.58151,1.58229 -3.66674,6.64947 -4.82377,11.72193 -1.12093,4.91415 -1.6967,9.82437 -1.27949,10.91159 0.41721,1.08723 2.12186,2.55753 3.78811,3.26734 1.66626,0.70981 9.13134,1.13203 16.58908,0.93825 z m 60.03655,4.13355 C 657.01823,266.6661 656,266.30909 656,265.63307 c 0,-0.67602 1.49297,-8.07002 3.31772,-16.4311 1.82474,-8.36108 3.63618,-16.55197 4.0254,-18.20197 0.69606,-2.9507 1.04529,-3 21.25371,-3 17.4236,0 20.88478,0.33875 22.77505,2.22903 1.68894,1.68893 2.02609,3.54656 1.39149,7.66666 -0.46065,2.99071 -1.93105,6.93764 -3.26756,8.77098 -1.33651,1.83333 -3.67625,3.51935 -5.19942,3.74671 -1.52317,0.22736 -3.44849,1.23164 -4.2785,2.23173 -1.14915,1.38465 -0.85423,3.10198 1.23651,7.20017 1.51008,2.96 2.7456,5.70572 2.7456,6.1016 0,0.39588 -1.16192,0.71979 -2.58204,0.71979 -1.7496,0 -3.79145,-2.25678 -6.33333,-7 l -3.7513,-7 h -11.99058 -11.99058 l -1.41334,6.662 c -0.94832,4.47001 -2.15785,6.80538 -3.67609,7.09776 z m 24.48262,-19.75976 c 14.14353,0 16.21907,-0.29776 18.58797,-2.66667 C 702.8,242.53333 704,240.17619 704,238.7619 c 0,-1.41428 -0.94286,-3.51428 -2.09524,-4.66666 C 700.24709,232.43757 696.66131,232 684.73469,232 c -10.45491,0 -15.48631,0.51078 -16.41747,1.66667 -0.73844,0.91666 -1.75637,3.60202 -2.26205,5.96746 -0.50569,2.36545 -0.53956,4.91545 -0.0753,5.66667 0.49992,0.80888 7.3367,1.36587 16.76547,1.36587 z m 53.25464,20 c -12.46667,0 -22.66667,-0.50912 -22.66667,-1.13137 0,-0.62225 1.49298,-7.97225 3.31772,-16.33333 1.82475,-8.36108 3.63618,-16.55197 4.02541,-18.20197 0.69972,-2.96626 0.96357,-3 23.46005,-3 17.60722,0 22.62763,0.3769 22.20074,1.66667 -0.39391,1.19012 -6.12624,1.85728 -20.04816,2.33333 -10.72309,0.36667 -20.04738,1.26667 -20.72066,2 -0.67328,0.73333 -1.59581,2.91468 -2.05006,4.84744 -0.51128,2.17535 -0.16298,4.0643 0.91425,4.95832 0.98827,0.82019 9.05015,1.60625 18.65812,1.81923 10.14019,0.22477 16.91774,0.90918 16.91743,1.70834 -3.2e-4,0.80694 -7.23993,1.47409 -18.33768,1.68986 -15.31832,0.29783 -18.61154,0.72392 -20.00382,2.58818 C 720.75,252.83877 720,255.46414 720,257.44552 c 0,2.05503 0.90596,3.95016 2.10905,4.41183 1.15998,0.44512 9.85998,0.80932 19.33333,0.80932 14.42159,0 17.22429,0.32543 17.22429,2 0,1.69934 -3.40741,2 -22.66667,2 z m 34.22128,-0.23557 C 768.99957,266.6682 768,266.30909 768,265.63307 c 0,-0.67602 1.49297,-8.07002 3.31772,-16.4311 1.82474,-8.36108 3.63618,-16.55197 4.0254,-18.20197 0.69585,-2.94983 1.04942,-3 21.1423,-3 18.38135,0 20.66493,0.2545 22.72679,2.53283 1.75383,1.93796 2.07366,3.73856 1.36178,7.66666 -0.51171,2.82362 -1.72801,6.71113 -2.70287,8.63893 -0.97487,1.92781 -2.84468,3.99535 -4.15514,4.59454 -1.31046,0.5992 -10.48265,1.42191 -20.38265,1.82825 l -18,0.73879 -1.44539,6 c -0.90601,3.76099 -2.2743,6.16087 -3.66666,6.4311 z M 794.64858,248 c 15.59151,0 15.86611,-0.0528 18.64727,-3.58852 1.55251,-1.97369 2.64605,-4.80867 2.43011,-6.29996 -0.21594,-1.49129 -1.89263,-3.46761 -3.72596,-4.39182 -1.95885,-0.98749 -8.45507,-1.68849 -15.75432,-1.70004 -6.83155,-0.0108 -13.52749,0.57252 -14.87987,1.29629 -1.44035,0.77085 -2.82991,3.51208 -3.35461,6.61774 -0.49265,2.91598 -0.5113,5.9238 -0.0414,6.68405 0.51204,0.8285 7.19393,1.38226 16.67882,1.38226 z m 23.10487,18.66667 c -1.29063,0 -1.74874,-0.75575 -1.24843,-2.05954 0.43467,-1.13275 7.19998,-9.86322 15.03402,-19.40105 12.95487,-15.77236 14.59803,-17.30523 18.15938,-16.94047 3.69267,0.37822 4.2871,1.35021 10.43785,17.06772 3.5872,9.16667 6.86446,17.71667 7.28281,19 0.55744,1.71004 0.0315,2.33334 -1.9688,2.33334 -1.84013,0 -3.61237,-1.73074 -5.4394,-5.312 -1.70068,-3.33361 -3.94117,-5.62101 -6.01575,-6.1417 -1.81817,-0.45633 -8.07743,-0.613 -13.90946,-0.34815 l -10.6037,0.48153 -4.84488,5.66016 c -2.66469,3.11309 -5.76232,5.66016 -6.88364,5.66016 z m 27.57988,-16 c 8.30991,0 9.33334,-0.28029 9.33334,-2.55613 0,-1.40587 -1.17868,-5.30587 -2.61929,-8.66667 -1.4406,-3.36079 -3.19392,-6.11054 -3.89626,-6.11054 -0.70233,0 -3.71978,2.85 -6.70544,6.33334 -2.98565,3.48333 -5.43234,7.38333 -5.43707,8.66666 -0.007,2.00082 1.32144,2.33334 9.32472,2.33334 z m 36.91101,15.76331 C 881.00995,266.6677 880,266.30909 880,265.63307 c 0,-0.67602 1.49297,-8.07002 3.31772,-16.4311 1.82474,-8.36108 3.63618,-16.55197 4.0254,-18.20197 0.38923,-1.65 1.59625,-3 2.68228,-3 1.08603,0 1.9542,0.75 1.92927,1.66667 -0.0249,0.91666 -1.71498,9.46616 -3.75566,18.99888 -2.84962,13.31151 -4.23098,17.43247 -5.95467,17.76443 z m 13.35174,-0.004 c -1.24451,0.23967 -2.26275,-0.11734 -2.26275,-0.79336 0,-0.67602 1.49298,-8.07002 3.31772,-16.4311 1.82475,-8.36108 3.63618,-16.55197 4.02541,-18.20197 0.69605,-2.9507 1.04529,-3 21.2537,-3 17.4236,0 20.88478,0.33875 22.77506,2.22903 1.68893,1.68893 2.02609,3.54656 1.39148,7.66666 -0.46065,2.99071 -1.93105,6.93764 -3.26756,8.77098 -1.3365,1.83333 -3.67624,3.51935 -5.19941,3.74671 -1.52318,0.22736 -3.4485,1.23164 -4.2785,2.23173 -1.14916,1.38465 -0.85424,3.10198 1.2365,7.20017 1.51008,2.96 2.7456,5.70572 2.7456,6.1016 0,0.39588 -1.16192,0.71979 -2.58204,0.71979 -1.7496,0 -3.79144,-2.25678 -6.33333,-7 l -3.75129,-7 h -11.99058 -11.99058 l -1.41335,6.662 c -0.94831,4.47001 -2.15785,6.80538 -3.67608,7.09776 z m 24.48261,-19.75976 c 14.14353,0 16.21907,-0.29776 18.58798,-2.66667 1.46666,-1.46667 2.66666,-3.82381 2.66666,-5.2381 0,-1.41428 -0.94285,-3.51428 -2.09523,-4.66666 C 937.58043,232.43757 933.99464,232 922.06802,232 c -10.45491,0 -15.4863,0.51078 -16.41746,1.66667 -0.73845,0.91666 -1.75637,3.60202 -2.26206,5.96746 -0.50568,2.36545 -0.53956,4.91545 -0.0753,5.66667 0.49991,0.80888 7.3367,1.36587 16.76546,1.36587 z m 82.79771,19.77056 c -16.09158,0.40586 -17.53405,0.23846 -20.10584,-2.33334 C 981.03588,262.36921 980,259.61307 980,256.73229 c 0,-2.53057 0.66738,-7.7129 1.48306,-11.51628 0.98269,-4.58214 2.9713,-8.54046 5.89415,-11.7323 l 4.4111,-4.81704 17.33529,-0.43723 c 16.0916,-0.40586 17.534,-0.23846 20.1058,2.33333 1.7498,1.74974 2.7706,4.49001 2.7706,7.43723 0,3.14325 -0.6183,4.66667 -1.8941,4.66667 -1.0417,0 -2.2905,-1.80499 -2.775,-4.01109 -0.4845,-2.2061 -1.9928,-4.6061 -3.3516,-5.33334 -1.3589,-0.72723 -8.0601,-1.32 -14.8916,-1.31726 -9.8687,0.004 -13.27834,0.52775 -16.59316,2.54904 -3.32518,2.0276 -4.49915,3.98892 -5.78309,9.66168 -0.88602,3.9147 -1.89583,8.15764 -2.24401,9.42877 -0.36623,1.33704 0.78124,3.72542 2.72248,5.66666 3.06356,3.06356 4.35069,3.35554 14.79228,3.35554 6.9673,0 13.2426,-0.75452 16.0576,-1.93072 2.5415,-1.0619 5.3186,-3.4619 6.1712,-5.33334 0.8527,-1.87143 2.3541,-3.40261 3.3364,-3.40261 0.9822,0 1.7859,0.90881 1.7859,2.01958 0,1.11077 -2.0523,4.26077 -4.5608,7 L 1020.2117,266 Z m 55.7903,0.22944 c -12.4667,0 -22.6667,-0.50912 -22.6667,-1.13137 0,-0.62225 1.493,-7.97225 3.3177,-16.33333 1.8248,-8.36108 3.6362,-16.55197 4.0254,-18.20197 0.6997,-2.96626 0.9636,-3 23.4601,-3 17.6072,0 22.6276,0.3769 22.2007,1.66667 -0.3939,1.19012 -6.1262,1.85728 -20.0481,2.33333 -10.7231,0.36667 -20.0474,1.26667 -20.7207,2 -0.6733,0.73333 -1.5958,2.91468 -2.0501,4.84744 -0.5112,2.17535 -0.1629,4.0643 0.9143,4.95832 0.9883,0.82019 9.0501,1.60625 18.6581,1.81923 10.1402,0.22477 16.9177,0.90918 16.9174,1.70834 -3e-4,0.80694 -7.2399,1.47409 -18.3376,1.68986 -15.3184,0.29783 -18.6116,0.72392 -20.0039,2.58818 -0.9166,1.2274 -1.6666,3.85277 -1.6666,5.83415 0,2.05503 0.9059,3.95016 2.109,4.41183 1.16,0.44512 9.86,0.80932 19.3333,0.80932 14.4216,0 17.2243,0.32543 17.2243,2 0,1.69934 -3.4074,2 -22.6666,2 z m 35.5673,-0.23557 c -1.2287,0.2371 -2.234,-0.12201 -2.234,-0.79803 0,-0.67602 1.493,-8.07002 3.3177,-16.4311 1.8248,-8.36108 3.6362,-16.55197 4.0254,-18.20197 0.5304,-2.24853 1.6648,-3 4.5285,-3 3.2224,0 5.8807,2.40369 16.9746,15.34871 7.6075,8.87699 13.9971,15.19526 15.1538,14.98478 1.3798,-0.25106 2.9565,-4.7005 5.0846,-14.3487 1.6966,-7.69164 3.5943,-14.50251 4.2172,-15.13528 0.6229,-0.63277 1.695,-0.80285 2.3825,-0.37796 0.7338,0.45354 -0.3291,8.01655 -2.5742,18.31615 -2.1033,9.64899 -4.1489,18.06908 -4.5458,18.7113 -0.3969,0.64221 -2.1058,1.16767 -3.7975,1.16767 -2.2776,0 -6.6429,-4.15208 -16.8219,-16 -7.5604,-8.8 -14.2597,-16 -14.8874,-16 -0.6276,0 -1.525,1.00011 -1.994,2.22248 -0.4691,1.22236 -2.145,8.27236 -3.7242,15.66667 -2.1462,10.04855 -3.4356,13.55306 -5.1053,13.87528 z m 78.2881,0.23557 c -1.0205,0 -1.8614,-0.75 -1.8686,-1.66667 -0.01,-0.91667 1.28,-7.75644 2.8606,-15.1995 1.5807,-7.44305 2.5054,-14.49305 2.0551,-15.66666 -0.635,-1.65485 -2.7737,-2.13384 -9.5274,-2.13384 -6.852,0 -8.7085,-0.42636 -8.7085,-2 0,-1.69935 3.4074,-2 22.6667,-2 19.2593,0 22.6667,0.30065 22.6667,2 0,1.57823 -1.898,2.00431 -9,2.02042 -4.95,0.0112 -9.7386,0.48956 -10.6413,1.06297 -0.9027,0.57341 -2.8292,6.81649 -4.2813,13.87352 -1.452,7.05703 -3.0285,14.37869 -3.5033,16.27036 -0.4748,1.89167 -1.6982,3.4394 -2.7187,3.4394 z m 54.1446,0 c -12.4667,0 -22.6667,-0.50912 -22.6667,-1.13137 0,-0.62225 1.493,-7.97225 3.3177,-16.33333 1.8248,-8.36108 3.6362,-16.55197 4.0254,-18.20197 0.6997,-2.96626 0.9636,-3 23.4601,-3 17.6072,0 22.6276,0.3769 22.2007,1.66667 -0.3939,1.19012 -6.1262,1.85728 -20.0481,2.33333 -10.7231,0.36667 -20.0474,1.26667 -20.7207,2 -0.6733,0.73333 -1.5958,2.91468 -2.0501,4.84744 -0.5112,2.17535 -0.1629,4.0643 0.9143,4.95832 0.9883,0.82019 9.0501,1.60625 18.6581,1.81923 10.1402,0.22477 16.9177,0.90918 16.9174,1.70834 -3e-4,0.80694 -7.2399,1.47409 -18.3376,1.68986 -15.3184,0.29783 -18.6116,0.72392 -20.0039,2.58818 -0.9166,1.2274 -1.6666,3.85277 -1.6666,5.83415 0,2.05503 0.9059,3.95016 2.109,4.41183 1.16,0.44512 9.86,0.80932 19.3333,0.80932 14.4216,0 17.2243,0.32543 17.2243,2 0,1.69934 -3.4074,2 -22.6666,2 z m 34.2627,-0.24024 c -1.2445,0.23967 -2.2627,-0.11734 -2.2627,-0.79336 0,-0.67602 1.4929,-8.07002 3.3177,-16.4311 1.8247,-8.36108 3.6362,-16.55197 4.0254,-18.20197 0.696,-2.9507 1.0453,-3 21.2537,-3 17.4236,0 20.8848,0.33875 22.7751,2.22903 1.6889,1.68893 2.026,3.54656 1.3914,7.66666 -0.4606,2.99071 -1.931,6.93764 -3.2675,8.77098 -1.3365,1.83333 -3.6763,3.51935 -5.1994,3.74671 -1.5232,0.22736 -3.4485,1.23164 -4.2785,2.23173 -1.1492,1.38465 -0.8543,3.10198 1.2365,7.20017 1.51,2.96 2.7456,5.70572 2.7456,6.1016 0,0.39588 -1.162,0.71979 -2.5821,0.71979 -1.7496,0 -3.7914,-2.25678 -6.3333,-7 l -3.7513,-7 h -11.9906 -11.9906 l -1.4133,6.662 c -0.9483,4.47001 -2.1579,6.80538 -3.6761,7.09776 z m 24.4826,-19.75976 c 14.1436,0 16.2191,-0.29776 18.588,-2.66667 1.4667,-1.46667 2.6667,-3.82381 2.6667,-5.2381 0,-1.41428 -0.9429,-3.51428 -2.0953,-4.66666 -1.6576,-1.65767 -5.2434,-2.09524 -17.17,-2.09524 -10.455,0 -15.4864,0.51078 -16.4175,1.66667 -0.7385,0.91666 -1.7564,3.60202 -2.2621,5.96746 -0.5056,2.36545 -0.5395,4.91545 -0.075,5.66667 0.4999,0.80888 7.3367,1.36587 16.7654,1.36587 z M 849.74656,205.00195 c -323.01269,0.2409 -449.83932,-0.0734 -450.48382,-1.11617 -0.49338,-0.79831 -0.34845,-2.00007 0.32206,-2.67058 0.73311,-0.73311 180.32196,-1.08545 450.48383,-0.88383 398.30847,0.29727 449.26467,0.56214 449.26467,2.3353 0,1.77316 -50.992,2.03802 -449.58674,2.33528 z M 403.79489,165.33333 c -7.91601,0 -10.72774,-0.47556 -11.27718,-1.90739 -0.40257,-1.04906 5.30794,-30.19289 12.69002,-64.764066 7.38207,-34.571173 13.76568,-63.412847 14.1858,-64.092609 0.45419,-0.734894 30.63291,-1.235932 74.44316,-1.235932 61.00127,0 74.81699,0.337855 80.29101,1.963464 3.97402,1.180157 8.26639,3.706786 10.75939,6.333334 2.28124,2.403428 5.03143,6.169869 6.11154,8.369869 1.08011,2.2 2.33073,6.402193 2.77917,9.338206 0.48751,3.191843 -0.17948,10.19382 -1.65886,17.414566 -1.3608,6.641998 -3.68269,14.439805 -5.15974,17.32846 -1.47706,2.888656 -5.17872,8.080048 -8.2259,11.536438 -3.48026,3.94761 -8.84946,7.91383 -14.4398,10.66667 l -8.89947,4.38233 -64.33653,0.37026 c -59.30122,0.34128 -64.43066,0.54998 -65.53926,2.66666 -0.6615,1.26303 -2.87106,10.39641 -4.91014,20.29641 -2.03907,9.9 -4.28353,18.75 -4.98768,19.66667 -0.8334,1.08492 -4.96102,1.66666 -11.82553,1.66666 z m 86.03504,-64.05852 c 43.87931,-0.0457 57.28345,-0.4556 61.25833,-1.873226 2.79855,-0.998086 6.33565,-2.92175 7.86024,-4.274809 1.52459,-1.35306 3.88823,-4.95423 5.25254,-8.0026 1.3643,-3.048371 2.86527,-9.223248 3.33548,-13.721949 0.6033,-5.772093 0.32066,-9.177727 -0.96032,-11.57126 -0.99838,-1.865491 -3.45666,-4.240614 -5.46284,-5.278051 -2.98027,-1.541157 -14.24102,-1.886248 -61.55055,-1.886248 -44.70599,0 -58.21384,0.379858 -59.26699,1.666666 -0.75022,0.916667 -3.28075,10.536437 -5.62339,21.377268 -3.39764,15.722917 -3.93093,20.106335 -2.63597,21.666666 1.38125,1.664293 10.00179,1.947333 57.79347,1.897543 z m 119.12822,64.03811 c -7.09406,0.014 -10.57266,-0.50666 -10.99964,-1.64625 C 597.61506,162.75 603.49399,133.2 611.02281,98 l 13.68876,-64 h 77.31088 c 69.98718,0 77.6993,0.212861 81.41108,2.247016 2.25512,1.235859 6.24843,4.624845 8.87404,7.53108 3.31283,3.666912 5.28056,7.54835 6.42956,12.682646 1.41205,6.309673 1.3135,9.126011 -0.66956,19.135586 -1.27891,6.455353 -3.87276,14.90354 -5.76411,18.77375 -1.89135,3.87021 -6.29722,9.710452 -9.79083,12.978312 -3.49361,3.26786 -9.06564,7.25995 -12.3823,8.87131 -3.31666,1.61135 -6.33805,3.73178 -6.71422,4.71205 -0.37616,0.98027 2.63228,10.77886 6.68543,21.77464 4.05315,10.99578 7.003,20.58512 6.55522,21.30964 -0.44778,0.72452 -6.32873,1.30812 -13.06878,1.29689 -6.74006,-0.0112 -12.92336,-0.46123 -13.74068,-1 -0.81731,-0.53877 -4.64094,-9.67959 -8.49695,-20.31292 -3.85601,-10.63333 -7.61076,-20.08333 -8.3439,-21 -1.02326,-1.27942 -12.68,-1.66192 -50.16971,-1.64625 -26.86021,0.0112 -49.6015,0.50576 -50.5362,1.09896 -0.9347,0.59319 -3.58749,10.03401 -5.89508,20.97958 -2.30759,10.94557 -4.84283,20.34186 -5.63387,20.88063 -0.79104,0.53877 -6.10709,0.98877 -11.81344,1 z m 88.24853,-64.2606 c 52.37919,-0.34752 58.54831,-0.61623 62.39106,-2.717585 2.34543,-1.282562 5.7797,-4.318579 7.63172,-6.746704 2.0268,-2.657268 4.18572,-8.305315 5.4231,-14.187633 1.9144,-9.100768 1.89388,-10.103184 -0.29839,-14.576105 -1.29479,-2.641785 -3.85417,-5.549136 -5.6875,-6.46078 -2.50158,-1.243936 -17.84832,-1.662439 -61.50341,-1.677191 -44.97601,-0.0152 -58.4636,0.358376 -59.46419,1.647011 -0.71176,0.916667 -3.17061,10.6228 -5.46411,21.569185 -3.15506,15.058404 -3.80308,20.344631 -2.66247,21.718984 1.23929,1.493248 11.85054,1.747848 59.63419,1.430818 z m 124.04208,64.28101 c -5.73359,0 -10.79758,-0.60331 -11.25331,-1.34069 -0.45573,-0.73738 5.25691,-29.97242 12.69475,-64.966751 7.43784,-34.994331 13.81071,-64.091018 14.16193,-64.659306 0.35122,-0.568287 6.00317,-1.03325 12.55989,-1.03325 6.55672,0 11.92131,0.288088 11.92131,0.640195 0,0.352107 -6.06858,29.302107 -13.48573,64.333333 -7.41716,35.031229 -14.09062,64.443139 -14.82993,65.359809 -0.8683,1.0766 -5.03492,1.66666 -11.76891,1.66666 z m 54.00588,0 c -10.64506,0 -11.25464,-0.15605 -11.25464,-2.88118 0,-1.58464 5.73606,-29.93464 12.74681,-62.999995 7.01074,-33.065352 13.07579,-61.468822 13.47788,-63.118822 0.72129,-2.959891 1.02428,-3 22.66276,-3 12.16469,0 24.65542,0.685842 28.04778,1.540049 4.05841,1.021919 7.99194,3.376978 11.69172,7 5.1204,5.014166 6.59264,8.273682 18.03197,39.922344 6.85099,18.954314 13.29826,35.304314 14.32728,36.333334 1.02902,1.02902 2.61039,1.87094 3.51415,1.87094 0.90376,0 3.48349,-1.95 5.73272,-4.33333 2.24924,-2.38334 15.23733,-18.505125 28.86253,-35.826199 13.6252,-17.321075 26.7526,-33.166977 29.172,-35.213117 2.4195,-2.046139 7.6991,-5.274351 11.7324,-7.173804 6.9374,-3.267091 8.6831,-3.477156 32.3333,-3.890769 13.75,-0.240471 24.997,0.05953 24.9933,0.666666 0,0.607138 -5.7348,28.103886 -12.7358,61.103886 -7.0009,32.999997 -13.0922,61.799997 -13.5362,63.999997 -0.444,2.2 -1.4629,4.44082 -2.2643,4.97959 -0.8013,0.53877 -6.0716,0.98877 -11.7116,1 -5.6401,0.0112 -10.6198,-0.57035 -11.066,-1.29239 -0.4463,-0.72204 4.0547,-24.16273 10.0022,-52.09042 5.9474,-27.927694 10.6271,-52.086933 10.3993,-53.6872 -0.3733,-2.622202 -1.2043,-2.908862 -8.4142,-2.902342 -5.8721,0.0053 -8.9159,0.701437 -11.4435,2.617091 -1.8939,1.435421 -14.4939,16.659513 -28,33.831316 -13.5061,17.171805 -27.2437,34.234875 -30.5281,37.917945 -3.2843,3.68306 -8.3843,7.79254 -11.3333,9.13216 -3.8663,1.75634 -8.6277,2.44386 -17.07126,2.46497 -7.14532,0.0179 -13.46996,-0.70629 -16.22601,-1.85784 -2.48409,-1.03792 -5.27531,-3.28792 -6.20272,-5 -0.9274,-1.71208 -7.54353,-19.01288 -14.7025,-38.44621 -9.92829,-26.95079 -13.85885,-36.059807 -16.56774,-38.395497 -2.96018,-2.552355 -4.80343,-2.996319 -11.07149,-2.666667 l -7.52005,0.395497 -11.45554,53.452387 c -6.30055,29.39881 -11.88596,54.14881 -12.41202,55 -0.60371,0.97682 -5.1074,1.54761 -12.21113,1.54761 z m 349.58206,-0.13393 c -39.6935,-0.0737 -74.4395,-0.66834 -77.2134,-1.3215 -2.7738,-0.65316 -6.7347,-2.06224 -8.802,-3.13129 -2.0673,-1.06905 -5.6226,-4.06649 -7.9006,-6.66099 -2.278,-2.5945 -4.8318,-7.27515 -5.675,-10.40145 -0.8433,-3.12629 -1.1949,-8.55057 -0.7813,-12.05394 0.4136,-3.50338 3.5286,-19.40338 6.9224,-35.333336 4.6234,-21.701954 7.2045,-30.909422 10.2947,-36.7248 2.2683,-4.268682 6.8679,-10.202639 10.2213,-13.186571 3.3535,-2.983932 9.3972,-6.991374 13.4305,-8.905427 L 1172.6667,34 l 77,-0.384464 c 45.9975,-0.229667 77,0.107112 77,0.836447 0,0.6715 -0.9618,5.479738 -2.1373,10.684973 l -2.1372,9.464063 -72.9676,0.366157 -72.9675,0.366157 -4.9227,3.755446 c -2.7074,2.065496 -5.8967,5.242174 -7.0874,7.059285 -1.1906,1.817111 -3.0036,6.935093 -4.0289,11.373292 -1.4253,6.16915 -1.4985,8.510124 -0.3113,9.940715 1.3001,1.566418 14.0403,1.871262 78.2048,1.871262 h 76.6518 l -0.8964,5 c -0.4931,2.75 -1.483,7.249997 -2.1998,9.999997 l -1.3033,5 -76.9486,0.0204 c -42.3218,0.0112 -77.742,0.52346 -78.7117,1.13828 -0.9697,0.61483 -2.3054,3.45564 -2.9682,6.31292 -0.6628,2.85728 -1.2194,8.03558 -1.2369,11.50735 -0.026,5.11596 0.7054,7.13755 3.8581,10.66666 l 3.89,4.35437 72.11,0.3669 c 61.3649,0.31223 72.1101,0.65014 72.1101,2.26771 0,1.04544 -0.6701,5.08034 -1.4891,8.96643 -0.819,3.8861 -2.0925,7.81563 -2.8299,8.7323 -1.0453,1.29932 -17.2478,1.63714 -73.511,1.53273 z"
         id="path2" />
    </g>
  </g>
</svg>
